ISO-10303-21;
HEADER;
/* Generated by software containing ST-Developer
 * from STEP Tools, Inc. (www.steptools.com) 
 */
/* OPTION: using custom renumber hook */

FILE_DESCRIPTION(
/* description */ ('STEP AP242 Edition 2',
'CAx-IF Rec.Pracs.---Representation and Presentation of Product Manufa
cturing Information (PMI)---4.0---2014-10-13',
'CAx-IF Rec.Pracs.---3D Tessellated Geometry---0.4---2014-09-14','2;1',
'CAx-IF Rec.Pracs.---User Defined Attributes---1.5---2016-08-15'),
/* implementation_level */ '2;1');

FILE_NAME(
/* name */ 'Battery Tie down DO NOT PRINT ZIP TIE',
/* time_stamp */ '2026-08-18T14:32:17Z',
/* author */ (''),
/* organization */ (''),
/* preprocessor_version */ 'ST-DEVELOPER v20',
/* originating_system */ 'ONSHAPE BY PTC INC, 1.219',
/* authorisation */ '  ');

FILE_SCHEMA (('AP242_MANAGED_MODEL_BASED_3D_ENGINEERING_MIM_LF { 1 0 10303 442 3 1 4 }'));
ENDSEC;

DATA;
#10=SHAPE_REPRESENTATION_RELATIONSHIP('','',#1018,#12);
#11=SHAPE_REPRESENTATION_RELATIONSHIP('','',#1019,#13);
#12=ADVANCED_BREP_SHAPE_REPRESENTATION('',(#1014),#1700);
#13=ADVANCED_BREP_SHAPE_REPRESENTATION('',(#1015),#1701);
#14=ELLIPSE('',#1026,0.0065,0.0025);
#15=ELLIPSE('',#1027,0.0065,0.0025);
#16=PLANE('',#1021);
#17=PLANE('',#1022);
#18=PLANE('',#1023);
#19=PLANE('',#1024);
#20=PLANE('',#1025);
#21=PLANE('',#1028);
#22=PLANE('',#1029);
#23=PLANE('',#1031);
#24=PLANE('',#1032);
#25=PLANE('',#1033);
#26=PLANE('',#1034);
#27=PLANE('',#1035);
#28=PLANE('',#1036);
#29=PLANE('',#1037);
#30=PLANE('',#1038);
#31=PLANE('',#1039);
#32=PLANE('',#1040);
#33=PLANE('',#1041);
#34=PLANE('',#1042);
#35=PLANE('',#1043);
#36=PLANE('',#1044);
#37=PLANE('',#1045);
#38=PLANE('',#1046);
#39=PLANE('',#1047);
#40=PLANE('',#1048);
#41=PLANE('',#1049);
#42=PLANE('',#1050);
#43=PLANE('',#1051);
#44=PLANE('',#1052);
#45=PLANE('',#1053);
#46=PLANE('',#1054);
#47=PLANE('',#1055);
#48=PLANE('',#1056);
#49=PLANE('',#1057);
#50=PLANE('',#1058);
#51=PLANE('',#1059);
#52=PLANE('',#1060);
#53=PLANE('',#1061);
#54=PLANE('',#1062);
#55=PLANE('',#1063);
#56=PLANE('',#1064);
#57=PLANE('',#1065);
#58=PLANE('',#1066);
#59=LINE('',#1299,#181);
#60=LINE('',#1307,#182);
#61=LINE('',#1309,#183);
#62=LINE('',#1311,#184);
#63=LINE('',#1313,#185);
#64=LINE('',#1327,#186);
#65=LINE('',#1334,#187);
#66=LINE('',#1336,#188);
#67=LINE('',#1338,#189);
#68=LINE('',#1355,#190);
#69=LINE('',#1363,#191);
#70=LINE('',#1365,#192);
#71=LINE('',#1367,#193);
#72=LINE('',#1384,#194);
#73=LINE('',#1407,#195);
#74=LINE('',#1430,#196);
#75=LINE('',#1438,#197);
#76=LINE('',#1440,#198);
#77=LINE('',#1442,#199);
#78=LINE('',#1459,#200);
#79=LINE('',#1467,#201);
#80=LINE('',#1468,#202);
#81=LINE('',#1499,#203);
#82=LINE('',#1502,#204);
#83=LINE('',#1504,#205);
#84=LINE('',#1506,#206);
#85=LINE('',#1507,#207);
#86=LINE('',#1510,#208);
#87=LINE('',#1512,#209);
#88=LINE('',#1514,#210);
#89=LINE('',#1515,#211);
#90=LINE('',#1518,#212);
#91=LINE('',#1520,#213);
#92=LINE('',#1522,#214);
#93=LINE('',#1524,#215);
#94=LINE('',#1526,#216);
#95=LINE('',#1528,#217);
#96=LINE('',#1530,#218);
#97=LINE('',#1532,#219);
#98=LINE('',#1534,#220);
#99=LINE('',#1536,#221);
#100=LINE('',#1538,#222);
#101=LINE('',#1539,#223);
#102=LINE('',#1542,#224);
#103=LINE('',#1544,#225);
#104=LINE('',#1546,#226);
#105=LINE('',#1548,#227);
#106=LINE('',#1551,#228);
#107=LINE('',#1553,#229);
#108=LINE('',#1555,#230);
#109=LINE('',#1557,#231);
#110=LINE('',#1560,#232);
#111=LINE('',#1562,#233);
#112=LINE('',#1564,#234);
#113=LINE('',#1566,#235);
#114=LINE('',#1568,#236);
#115=LINE('',#1570,#237);
#116=LINE('',#1572,#238);
#117=LINE('',#1574,#239);
#118=LINE('',#1576,#240);
#119=LINE('',#1578,#241);
#120=LINE('',#1580,#242);
#121=LINE('',#1581,#243);
#122=LINE('',#1584,#244);
#123=LINE('',#1586,#245);
#124=LINE('',#1588,#246);
#125=LINE('',#1590,#247);
#126=LINE('',#1591,#248);
#127=LINE('',#1593,#249);
#128=LINE('',#1595,#250);
#129=LINE('',#1597,#251);
#130=LINE('',#1599,#252);
#131=LINE('',#1601,#253);
#132=LINE('',#1603,#254);
#133=LINE('',#1605,#255);
#134=LINE('',#1607,#256);
#135=LINE('',#1609,#257);
#136=LINE('',#1611,#258);
#137=LINE('',#1614,#259);
#138=LINE('',#1616,#260);
#139=LINE('',#1618,#261);
#140=LINE('',#1620,#262);
#141=LINE('',#1623,#263);
#142=LINE('',#1625,#264);
#143=LINE('',#1627,#265);
#144=LINE('',#1629,#266);
#145=LINE('',#1630,#267);
#146=LINE('',#1632,#268);
#147=LINE('',#1633,#269);
#148=LINE('',#1635,#270);
#149=LINE('',#1637,#271);
#150=LINE('',#1639,#272);
#151=LINE('',#1641,#273);
#152=LINE('',#1644,#274);
#153=LINE('',#1646,#275);
#154=LINE('',#1648,#276);
#155=LINE('',#1649,#277);
#156=LINE('',#1651,#278);
#157=LINE('',#1652,#279);
#158=LINE('',#1654,#280);
#159=LINE('',#1656,#281);
#160=LINE('',#1657,#282);
#161=LINE('',#1659,#283);
#162=LINE('',#1660,#284);
#163=LINE('',#1662,#285);
#164=LINE('',#1664,#286);
#165=LINE('',#1666,#287);
#166=LINE('',#1669,#288);
#167=LINE('',#1670,#289);
#168=LINE('',#1672,#290);
#169=LINE('',#1674,#291);
#170=LINE('',#1676,#292);
#171=LINE('',#1679,#293);
#172=LINE('',#1681,#294);
#173=LINE('',#1683,#295);
#174=LINE('',#1685,#296);
#175=LINE('',#1687,#297);
#176=LINE('',#1689,#298);
#177=LINE('',#1691,#299);
#178=LINE('',#1692,#300);
#179=LINE('',#1694,#301);
#180=LINE('',#1696,#302);
#181=VECTOR('',#1069,1.);
#182=VECTOR('',#1070,1.);
#183=VECTOR('',#1073,1.);
#184=VECTOR('',#1074,1.);
#185=VECTOR('',#1075,1.);
#186=VECTOR('',#1076,1.);
#187=VECTOR('',#1079,1.);
#188=VECTOR('',#1080,1.);
#189=VECTOR('',#1081,1.);
#190=VECTOR('',#1082,1.);
#191=VECTOR('',#1085,1.);
#192=VECTOR('',#1086,1.);
#193=VECTOR('',#1087,1.);
#194=VECTOR('',#1088,1.);
#195=VECTOR('',#1089,1.);
#196=VECTOR('',#1090,1.);
#197=VECTOR('',#1093,1.);
#198=VECTOR('',#1094,1.);
#199=VECTOR('',#1095,1.);
#200=VECTOR('',#1096,1.);
#201=VECTOR('',#1099,1.);
#202=VECTOR('',#1100,1.);
#203=VECTOR('',#1113,1.);
#204=VECTOR('',#1114,1.);
#205=VECTOR('',#1115,1.);
#206=VECTOR('',#1116,1.);
#207=VECTOR('',#1117,1.);
#208=VECTOR('',#1118,1.);
#209=VECTOR('',#1119,1.);
#210=VECTOR('',#1120,1.);
#211=VECTOR('',#1121,1.);
#212=VECTOR('',#1122,1.);
#213=VECTOR('',#1123,1.);
#214=VECTOR('',#1124,1.);
#215=VECTOR('',#1125,1.);
#216=VECTOR('',#1126,1.);
#217=VECTOR('',#1127,1.);
#218=VECTOR('',#1128,1.);
#219=VECTOR('',#1129,1.);
#220=VECTOR('',#1130,1.);
#221=VECTOR('',#1131,1.);
#222=VECTOR('',#1132,1.);
#223=VECTOR('',#1133,1.);
#224=VECTOR('',#1134,1.);
#225=VECTOR('',#1135,1.);
#226=VECTOR('',#1136,1.);
#227=VECTOR('',#1139,1.);
#228=VECTOR('',#1140,1.);
#229=VECTOR('',#1141,1.);
#230=VECTOR('',#1142,1.);
#231=VECTOR('',#1145,1.);
#232=VECTOR('',#1146,1.);
#233=VECTOR('',#1147,1.);
#234=VECTOR('',#1148,1.);
#235=VECTOR('',#1149,1.);
#236=VECTOR('',#1150,1.);
#237=VECTOR('',#1151,1.);
#238=VECTOR('',#1152,1.);
#239=VECTOR('',#1153,1.);
#240=VECTOR('',#1154,1.);
#241=VECTOR('',#1155,1.);
#242=VECTOR('',#1156,1.);
#243=VECTOR('',#1157,1.);
#244=VECTOR('',#1158,1.);
#245=VECTOR('',#1159,1.);
#246=VECTOR('',#1160,1.);
#247=VECTOR('',#1163,1.);
#248=VECTOR('',#1164,1.);
#249=VECTOR('',#1167,1.);
#250=VECTOR('',#1170,1.);
#251=VECTOR('',#1173,1.);
#252=VECTOR('',#1176,1.);
#253=VECTOR('',#1179,1.);
#254=VECTOR('',#1182,1.);
#255=VECTOR('',#1185,1.);
#256=VECTOR('',#1188,1.);
#257=VECTOR('',#1191,1.);
#258=VECTOR('',#1194,1.);
#259=VECTOR('',#1199,1.);
#260=VECTOR('',#1200,1.);
#261=VECTOR('',#1201,1.);
#262=VECTOR('',#1204,1.);
#263=VECTOR('',#1205,1.);
#264=VECTOR('',#1206,1.);
#265=VECTOR('',#1207,1.);
#266=VECTOR('',#1208,1.);
#267=VECTOR('',#1209,1.);
#268=VECTOR('',#1210,1.);
#269=VECTOR('',#1211,1.);
#270=VECTOR('',#1212,1.);
#271=VECTOR('',#1215,1.);
#272=VECTOR('',#1216,1.);
#273=VECTOR('',#1219,1.);
#274=VECTOR('',#1220,1.);
#275=VECTOR('',#1221,1.);
#276=VECTOR('',#1222,1.);
#277=VECTOR('',#1223,1.);
#278=VECTOR('',#1224,1.);
#279=VECTOR('',#1225,1.);
#280=VECTOR('',#1226,1.);
#281=VECTOR('',#1229,1.);
#282=VECTOR('',#1230,1.);
#283=VECTOR('',#1233,1.);
#284=VECTOR('',#1234,1.);
#285=VECTOR('',#1237,1.);
#286=VECTOR('',#1240,1.);
#287=VECTOR('',#1243,1.);
#288=VECTOR('',#1248,1.);
#289=VECTOR('',#1249,1.);
#290=VECTOR('',#1252,1.);
#291=VECTOR('',#1255,1.);
#292=VECTOR('',#1258,1.);
#293=VECTOR('',#1263,1.);
#294=VECTOR('',#1264,1.);
#295=VECTOR('',#1265,1.);
#296=VECTOR('',#1268,1.);
#297=VECTOR('',#1269,1.);
#298=VECTOR('',#1270,1.);
#299=VECTOR('',#1273,1.);
#300=VECTOR('',#1274,1.);
#301=VECTOR('',#1277,1.);
#302=VECTOR('',#1280,1.);
#303=ORIENTED_EDGE('',*,*,#579,.F.);
#304=ORIENTED_EDGE('',*,*,#580,.F.);
#305=ORIENTED_EDGE('',*,*,#581,.T.);
#306=ORIENTED_EDGE('',*,*,#582,.T.);
#307=ORIENTED_EDGE('',*,*,#583,.F.);
#308=ORIENTED_EDGE('',*,*,#584,.F.);
#309=ORIENTED_EDGE('',*,*,#585,.T.);
#310=ORIENTED_EDGE('',*,*,#580,.T.);
#311=ORIENTED_EDGE('',*,*,#586,.F.);
#312=ORIENTED_EDGE('',*,*,#587,.F.);
#313=ORIENTED_EDGE('',*,*,#588,.T.);
#314=ORIENTED_EDGE('',*,*,#584,.T.);
#315=ORIENTED_EDGE('',*,*,#589,.T.);
#316=ORIENTED_EDGE('',*,*,#590,.F.);
#317=ORIENTED_EDGE('',*,*,#591,.F.);
#318=ORIENTED_EDGE('',*,*,#587,.T.);
#319=ORIENTED_EDGE('',*,*,#592,.F.);
#320=ORIENTED_EDGE('',*,*,#593,.F.);
#321=ORIENTED_EDGE('',*,*,#594,.T.);
#322=ORIENTED_EDGE('',*,*,#590,.T.);
#323=ORIENTED_EDGE('',*,*,#595,.T.);
#324=ORIENTED_EDGE('',*,*,#596,.F.);
#325=ORIENTED_EDGE('',*,*,#597,.F.);
#326=ORIENTED_EDGE('',*,*,#593,.T.);
#327=ORIENTED_EDGE('',*,*,#598,.T.);
#328=ORIENTED_EDGE('',*,*,#599,.F.);
#329=ORIENTED_EDGE('',*,*,#600,.F.);
#330=ORIENTED_EDGE('',*,*,#596,.T.);
#331=ORIENTED_EDGE('',*,*,#601,.T.);
#332=ORIENTED_EDGE('',*,*,#602,.F.);
#333=ORIENTED_EDGE('',*,*,#603,.F.);
#334=ORIENTED_EDGE('',*,*,#599,.T.);
#335=ORIENTED_EDGE('',*,*,#604,.F.);
#336=ORIENTED_EDGE('',*,*,#605,.F.);
#337=ORIENTED_EDGE('',*,*,#606,.T.);
#338=ORIENTED_EDGE('',*,*,#602,.T.);
#339=ORIENTED_EDGE('',*,*,#607,.F.);
#340=ORIENTED_EDGE('',*,*,#608,.F.);
#341=ORIENTED_EDGE('',*,*,#609,.T.);
#342=ORIENTED_EDGE('',*,*,#605,.T.);
#343=ORIENTED_EDGE('',*,*,#610,.T.);
#344=ORIENTED_EDGE('',*,*,#611,.F.);
#345=ORIENTED_EDGE('',*,*,#612,.F.);
#346=ORIENTED_EDGE('',*,*,#608,.T.);
#347=ORIENTED_EDGE('',*,*,#613,.F.);
#348=ORIENTED_EDGE('',*,*,#582,.F.);
#349=ORIENTED_EDGE('',*,*,#614,.T.);
#350=ORIENTED_EDGE('',*,*,#611,.T.);
#351=ORIENTED_EDGE('',*,*,#615,.T.);
#352=ORIENTED_EDGE('',*,*,#616,.F.);
#353=ORIENTED_EDGE('',*,*,#581,.F.);
#354=ORIENTED_EDGE('',*,*,#585,.F.);
#355=ORIENTED_EDGE('',*,*,#588,.F.);
#356=ORIENTED_EDGE('',*,*,#591,.T.);
#357=ORIENTED_EDGE('',*,*,#594,.F.);
#358=ORIENTED_EDGE('',*,*,#597,.T.);
#359=ORIENTED_EDGE('',*,*,#600,.T.);
#360=ORIENTED_EDGE('',*,*,#603,.T.);
#361=ORIENTED_EDGE('',*,*,#606,.F.);
#362=ORIENTED_EDGE('',*,*,#609,.F.);
#363=ORIENTED_EDGE('',*,*,#612,.T.);
#364=ORIENTED_EDGE('',*,*,#614,.F.);
#365=ORIENTED_EDGE('',*,*,#615,.F.);
#366=ORIENTED_EDGE('',*,*,#579,.T.);
#367=ORIENTED_EDGE('',*,*,#613,.T.);
#368=ORIENTED_EDGE('',*,*,#610,.F.);
#369=ORIENTED_EDGE('',*,*,#607,.T.);
#370=ORIENTED_EDGE('',*,*,#604,.T.);
#371=ORIENTED_EDGE('',*,*,#601,.F.);
#372=ORIENTED_EDGE('',*,*,#598,.F.);
#373=ORIENTED_EDGE('',*,*,#595,.F.);
#374=ORIENTED_EDGE('',*,*,#592,.T.);
#375=ORIENTED_EDGE('',*,*,#589,.F.);
#376=ORIENTED_EDGE('',*,*,#586,.T.);
#377=ORIENTED_EDGE('',*,*,#583,.T.);
#378=ORIENTED_EDGE('',*,*,#616,.T.);
#379=ORIENTED_EDGE('',*,*,#617,.T.);
#380=ORIENTED_EDGE('',*,*,#618,.T.);
#381=ORIENTED_EDGE('',*,*,#619,.T.);
#382=ORIENTED_EDGE('',*,*,#620,.T.);
#383=ORIENTED_EDGE('',*,*,#621,.T.);
#384=ORIENTED_EDGE('',*,*,#622,.T.);
#385=ORIENTED_EDGE('',*,*,#623,.T.);
#386=ORIENTED_EDGE('',*,*,#624,.T.);
#387=ORIENTED_EDGE('',*,*,#625,.F.);
#388=ORIENTED_EDGE('',*,*,#626,.T.);
#389=ORIENTED_EDGE('',*,*,#627,.F.);
#390=ORIENTED_EDGE('',*,*,#628,.F.);
#391=ORIENTED_EDGE('',*,*,#629,.F.);
#392=ORIENTED_EDGE('',*,*,#630,.F.);
#393=ORIENTED_EDGE('',*,*,#631,.T.);
#394=ORIENTED_EDGE('',*,*,#632,.T.);
#395=ORIENTED_EDGE('',*,*,#633,.T.);
#396=ORIENTED_EDGE('',*,*,#634,.F.);
#397=ORIENTED_EDGE('',*,*,#635,.T.);
#398=ORIENTED_EDGE('',*,*,#636,.T.);
#399=ORIENTED_EDGE('',*,*,#637,.F.);
#400=ORIENTED_EDGE('',*,*,#638,.T.);
#401=ORIENTED_EDGE('',*,*,#639,.T.);
#402=ORIENTED_EDGE('',*,*,#640,.F.);
#403=ORIENTED_EDGE('',*,*,#641,.F.);
#404=ORIENTED_EDGE('',*,*,#642,.T.);
#405=ORIENTED_EDGE('',*,*,#643,.T.);
#406=ORIENTED_EDGE('',*,*,#644,.T.);
#407=ORIENTED_EDGE('',*,*,#645,.T.);
#408=ORIENTED_EDGE('',*,*,#646,.F.);
#409=ORIENTED_EDGE('',*,*,#647,.F.);
#410=ORIENTED_EDGE('',*,*,#648,.T.);
#411=ORIENTED_EDGE('',*,*,#649,.F.);
#412=ORIENTED_EDGE('',*,*,#650,.F.);
#413=ORIENTED_EDGE('',*,*,#651,.F.);
#414=ORIENTED_EDGE('',*,*,#652,.T.);
#415=ORIENTED_EDGE('',*,*,#653,.T.);
#416=ORIENTED_EDGE('',*,*,#654,.T.);
#417=ORIENTED_EDGE('',*,*,#655,.T.);
#418=ORIENTED_EDGE('',*,*,#656,.F.);
#419=ORIENTED_EDGE('',*,*,#657,.T.);
#420=ORIENTED_EDGE('',*,*,#658,.T.);
#421=ORIENTED_EDGE('',*,*,#659,.F.);
#422=ORIENTED_EDGE('',*,*,#660,.F.);
#423=ORIENTED_EDGE('',*,*,#645,.F.);
#424=ORIENTED_EDGE('',*,*,#661,.F.);
#425=ORIENTED_EDGE('',*,*,#625,.T.);
#426=ORIENTED_EDGE('',*,*,#662,.T.);
#427=ORIENTED_EDGE('',*,*,#656,.T.);
#428=ORIENTED_EDGE('',*,*,#663,.F.);
#429=ORIENTED_EDGE('',*,*,#626,.F.);
#430=ORIENTED_EDGE('',*,*,#661,.T.);
#431=ORIENTED_EDGE('',*,*,#655,.F.);
#432=ORIENTED_EDGE('',*,*,#664,.F.);
#433=ORIENTED_EDGE('',*,*,#627,.T.);
#434=ORIENTED_EDGE('',*,*,#663,.T.);
#435=ORIENTED_EDGE('',*,*,#654,.F.);
#436=ORIENTED_EDGE('',*,*,#665,.F.);
#437=ORIENTED_EDGE('',*,*,#628,.T.);
#438=ORIENTED_EDGE('',*,*,#664,.T.);
#439=ORIENTED_EDGE('',*,*,#653,.F.);
#440=ORIENTED_EDGE('',*,*,#666,.F.);
#441=ORIENTED_EDGE('',*,*,#629,.T.);
#442=ORIENTED_EDGE('',*,*,#665,.T.);
#443=ORIENTED_EDGE('',*,*,#652,.F.);
#444=ORIENTED_EDGE('',*,*,#667,.F.);
#445=ORIENTED_EDGE('',*,*,#630,.T.);
#446=ORIENTED_EDGE('',*,*,#666,.T.);
#447=ORIENTED_EDGE('',*,*,#651,.T.);
#448=ORIENTED_EDGE('',*,*,#668,.F.);
#449=ORIENTED_EDGE('',*,*,#631,.F.);
#450=ORIENTED_EDGE('',*,*,#667,.T.);
#451=ORIENTED_EDGE('',*,*,#650,.T.);
#452=ORIENTED_EDGE('',*,*,#669,.F.);
#453=ORIENTED_EDGE('',*,*,#632,.F.);
#454=ORIENTED_EDGE('',*,*,#668,.T.);
#455=ORIENTED_EDGE('',*,*,#649,.T.);
#456=ORIENTED_EDGE('',*,*,#670,.F.);
#457=ORIENTED_EDGE('',*,*,#633,.F.);
#458=ORIENTED_EDGE('',*,*,#669,.T.);
#459=ORIENTED_EDGE('',*,*,#648,.F.);
#460=ORIENTED_EDGE('',*,*,#671,.F.);
#461=ORIENTED_EDGE('',*,*,#634,.T.);
#462=ORIENTED_EDGE('',*,*,#670,.T.);
#463=ORIENTED_EDGE('',*,*,#647,.T.);
#464=ORIENTED_EDGE('',*,*,#672,.F.);
#465=ORIENTED_EDGE('',*,*,#635,.F.);
#466=ORIENTED_EDGE('',*,*,#671,.T.);
#467=ORIENTED_EDGE('',*,*,#646,.T.);
#468=ORIENTED_EDGE('',*,*,#662,.F.);
#469=ORIENTED_EDGE('',*,*,#636,.F.);
#470=ORIENTED_EDGE('',*,*,#672,.T.);
#471=ORIENTED_EDGE('',*,*,#673,.T.);
#472=ORIENTED_EDGE('',*,*,#674,.T.);
#473=ORIENTED_EDGE('',*,*,#675,.F.);
#474=ORIENTED_EDGE('',*,*,#659,.T.);
#475=ORIENTED_EDGE('',*,*,#676,.F.);
#476=ORIENTED_EDGE('',*,*,#677,.F.);
#477=ORIENTED_EDGE('',*,*,#678,.T.);
#478=ORIENTED_EDGE('',*,*,#679,.T.);
#479=ORIENTED_EDGE('',*,*,#680,.F.);
#480=ORIENTED_EDGE('',*,*,#660,.T.);
#481=ORIENTED_EDGE('',*,*,#675,.T.);
#482=ORIENTED_EDGE('',*,*,#681,.T.);
#483=ORIENTED_EDGE('',*,*,#682,.T.);
#484=ORIENTED_EDGE('',*,*,#643,.F.);
#485=ORIENTED_EDGE('',*,*,#683,.T.);
#486=ORIENTED_EDGE('',*,*,#684,.T.);
#487=ORIENTED_EDGE('',*,*,#680,.T.);
#488=ORIENTED_EDGE('',*,*,#685,.T.);
#489=ORIENTED_EDGE('',*,*,#686,.F.);
#490=ORIENTED_EDGE('',*,*,#657,.F.);
#491=ORIENTED_EDGE('',*,*,#687,.T.);
#492=ORIENTED_EDGE('',*,*,#688,.T.);
#493=ORIENTED_EDGE('',*,*,#689,.F.);
#494=ORIENTED_EDGE('',*,*,#690,.F.);
#495=ORIENTED_EDGE('',*,*,#641,.T.);
#496=ORIENTED_EDGE('',*,*,#691,.T.);
#497=ORIENTED_EDGE('',*,*,#692,.T.);
#498=ORIENTED_EDGE('',*,*,#673,.F.);
#499=ORIENTED_EDGE('',*,*,#658,.F.);
#500=ORIENTED_EDGE('',*,*,#686,.T.);
#501=ORIENTED_EDGE('',*,*,#693,.T.);
#502=ORIENTED_EDGE('',*,*,#694,.T.);
#503=ORIENTED_EDGE('',*,*,#695,.F.);
#504=ORIENTED_EDGE('',*,*,#687,.F.);
#505=ORIENTED_EDGE('',*,*,#696,.T.);
#506=ORIENTED_EDGE('',*,*,#677,.T.);
#507=ORIENTED_EDGE('',*,*,#697,.F.);
#508=ORIENTED_EDGE('',*,*,#674,.F.);
#509=ORIENTED_EDGE('',*,*,#698,.F.);
#510=ORIENTED_EDGE('',*,*,#618,.F.);
#511=ORIENTED_EDGE('',*,*,#698,.T.);
#512=ORIENTED_EDGE('',*,*,#692,.F.);
#513=ORIENTED_EDGE('',*,*,#699,.F.);
#514=ORIENTED_EDGE('',*,*,#619,.F.);
#515=ORIENTED_EDGE('',*,*,#697,.T.);
#516=ORIENTED_EDGE('',*,*,#617,.F.);
#517=ORIENTED_EDGE('',*,*,#700,.F.);
#518=ORIENTED_EDGE('',*,*,#681,.F.);
#519=ORIENTED_EDGE('',*,*,#701,.F.);
#520=ORIENTED_EDGE('',*,*,#700,.T.);
#521=ORIENTED_EDGE('',*,*,#620,.F.);
#522=ORIENTED_EDGE('',*,*,#699,.T.);
#523=ORIENTED_EDGE('',*,*,#682,.F.);
#524=ORIENTED_EDGE('',*,*,#701,.T.);
#525=ORIENTED_EDGE('',*,*,#691,.F.);
#526=ORIENTED_EDGE('',*,*,#644,.F.);
#527=ORIENTED_EDGE('',*,*,#702,.F.);
#528=ORIENTED_EDGE('',*,*,#685,.F.);
#529=ORIENTED_EDGE('',*,*,#703,.F.);
#530=ORIENTED_EDGE('',*,*,#624,.F.);
#531=ORIENTED_EDGE('',*,*,#703,.T.);
#532=ORIENTED_EDGE('',*,*,#679,.F.);
#533=ORIENTED_EDGE('',*,*,#704,.F.);
#534=ORIENTED_EDGE('',*,*,#621,.F.);
#535=ORIENTED_EDGE('',*,*,#702,.T.);
#536=ORIENTED_EDGE('',*,*,#623,.F.);
#537=ORIENTED_EDGE('',*,*,#705,.F.);
#538=ORIENTED_EDGE('',*,*,#693,.F.);
#539=ORIENTED_EDGE('',*,*,#622,.F.);
#540=ORIENTED_EDGE('',*,*,#704,.T.);
#541=ORIENTED_EDGE('',*,*,#706,.F.);
#542=ORIENTED_EDGE('',*,*,#705,.T.);
#543=ORIENTED_EDGE('',*,*,#678,.F.);
#544=ORIENTED_EDGE('',*,*,#696,.F.);
#545=ORIENTED_EDGE('',*,*,#694,.F.);
#546=ORIENTED_EDGE('',*,*,#706,.T.);
#547=ORIENTED_EDGE('',*,*,#689,.T.);
#548=ORIENTED_EDGE('',*,*,#707,.T.);
#549=ORIENTED_EDGE('',*,*,#708,.T.);
#550=ORIENTED_EDGE('',*,*,#709,.F.);
#551=ORIENTED_EDGE('',*,*,#638,.F.);
#552=ORIENTED_EDGE('',*,*,#710,.F.);
#553=ORIENTED_EDGE('',*,*,#711,.T.);
#554=ORIENTED_EDGE('',*,*,#712,.T.);
#555=ORIENTED_EDGE('',*,*,#676,.T.);
#556=ORIENTED_EDGE('',*,*,#713,.F.);
#557=ORIENTED_EDGE('',*,*,#710,.T.);
#558=ORIENTED_EDGE('',*,*,#637,.T.);
#559=ORIENTED_EDGE('',*,*,#714,.F.);
#560=ORIENTED_EDGE('',*,*,#707,.F.);
#561=ORIENTED_EDGE('',*,*,#688,.F.);
#562=ORIENTED_EDGE('',*,*,#695,.T.);
#563=ORIENTED_EDGE('',*,*,#640,.T.);
#564=ORIENTED_EDGE('',*,*,#715,.F.);
#565=ORIENTED_EDGE('',*,*,#708,.F.);
#566=ORIENTED_EDGE('',*,*,#714,.T.);
#567=ORIENTED_EDGE('',*,*,#642,.F.);
#568=ORIENTED_EDGE('',*,*,#690,.T.);
#569=ORIENTED_EDGE('',*,*,#709,.T.);
#570=ORIENTED_EDGE('',*,*,#715,.T.);
#571=ORIENTED_EDGE('',*,*,#639,.F.);
#572=ORIENTED_EDGE('',*,*,#712,.F.);
#573=ORIENTED_EDGE('',*,*,#716,.T.);
#574=ORIENTED_EDGE('',*,*,#683,.F.);
#575=ORIENTED_EDGE('',*,*,#716,.F.);
#576=ORIENTED_EDGE('',*,*,#711,.F.);
#577=ORIENTED_EDGE('',*,*,#713,.T.);
#578=ORIENTED_EDGE('',*,*,#684,.F.);
#579=EDGE_CURVE('',#717,#718,#807,.T.);
#580=EDGE_CURVE('',#719,#717,#59,.T.);
#581=EDGE_CURVE('',#719,#720,#808,.T.);
#582=EDGE_CURVE('',#720,#718,#60,.T.);
#583=EDGE_CURVE('',#721,#717,#61,.T.);
#584=EDGE_CURVE('',#722,#721,#62,.T.);
#585=EDGE_CURVE('',#722,#719,#63,.T.);
#586=EDGE_CURVE('',#723,#721,#809,.T.);
#587=EDGE_CURVE('',#724,#723,#64,.T.);
#588=EDGE_CURVE('',#724,#722,#810,.T.);
#589=EDGE_CURVE('',#723,#725,#65,.T.);
#590=EDGE_CURVE('',#726,#725,#66,.T.);
#591=EDGE_CURVE('',#724,#726,#67,.T.);
#592=EDGE_CURVE('',#727,#725,#811,.T.);
#593=EDGE_CURVE('',#728,#727,#68,.T.);
#594=EDGE_CURVE('',#728,#726,#812,.T.);
#595=EDGE_CURVE('',#727,#729,#69,.T.);
#596=EDGE_CURVE('',#730,#729,#70,.T.);
#597=EDGE_CURVE('',#728,#730,#71,.T.);
#598=EDGE_CURVE('',#729,#731,#813,.T.);
#599=EDGE_CURVE('',#732,#731,#72,.T.);
#600=EDGE_CURVE('',#730,#732,#814,.T.);
#601=EDGE_CURVE('',#731,#733,#815,.T.);
#602=EDGE_CURVE('',#734,#733,#73,.T.);
#603=EDGE_CURVE('',#732,#734,#816,.T.);
#604=EDGE_CURVE('',#735,#733,#817,.T.);
#605=EDGE_CURVE('',#736,#735,#74,.T.);
#606=EDGE_CURVE('',#736,#734,#818,.T.);
#607=EDGE_CURVE('',#737,#735,#75,.T.);
#608=EDGE_CURVE('',#738,#737,#76,.T.);
#609=EDGE_CURVE('',#738,#736,#77,.T.);
#610=EDGE_CURVE('',#737,#739,#819,.T.);
#611=EDGE_CURVE('',#740,#739,#78,.T.);
#612=EDGE_CURVE('',#738,#740,#820,.T.);
#613=EDGE_CURVE('',#718,#739,#79,.T.);
#614=EDGE_CURVE('',#720,#740,#80,.T.);
#615=EDGE_CURVE('',#741,#741,#14,.T.);
#616=EDGE_CURVE('',#742,#742,#15,.T.);
#617=EDGE_CURVE('',#743,#744,#81,.T.);
#618=EDGE_CURVE('',#744,#745,#82,.T.);
#619=EDGE_CURVE('',#745,#746,#83,.T.);
#620=EDGE_CURVE('',#746,#743,#84,.T.);
#621=EDGE_CURVE('',#747,#748,#85,.T.);
#622=EDGE_CURVE('',#748,#749,#86,.T.);
#623=EDGE_CURVE('',#749,#750,#87,.T.);
#624=EDGE_CURVE('',#750,#747,#88,.T.);
#625=EDGE_CURVE('',#751,#752,#89,.T.);
#626=EDGE_CURVE('',#751,#753,#90,.T.);
#627=EDGE_CURVE('',#754,#753,#91,.T.);
#628=EDGE_CURVE('',#755,#754,#92,.T.);
#629=EDGE_CURVE('',#756,#755,#93,.T.);
#630=EDGE_CURVE('',#757,#756,#94,.T.);
#631=EDGE_CURVE('',#757,#758,#95,.T.);
#632=EDGE_CURVE('',#758,#759,#96,.T.);
#633=EDGE_CURVE('',#759,#760,#97,.T.);
#634=EDGE_CURVE('',#761,#760,#98,.T.);
#635=EDGE_CURVE('',#761,#762,#99,.T.);
#636=EDGE_CURVE('',#762,#752,#100,.T.);
#637=EDGE_CURVE('',#763,#764,#101,.T.);
#638=EDGE_CURVE('',#763,#765,#102,.T.);
#639=EDGE_CURVE('',#765,#766,#103,.T.);
#640=EDGE_CURVE('',#764,#766,#104,.T.);
#641=EDGE_CURVE('',#767,#768,#105,.T.);
#642=EDGE_CURVE('',#767,#769,#106,.T.);
#643=EDGE_CURVE('',#769,#770,#107,.T.);
#644=EDGE_CURVE('',#770,#768,#108,.T.);
#645=EDGE_CURVE('',#771,#772,#109,.T.);
#646=EDGE_CURVE('',#773,#772,#110,.T.);
#647=EDGE_CURVE('',#774,#773,#111,.T.);
#648=EDGE_CURVE('',#774,#775,#112,.T.);
#649=EDGE_CURVE('',#776,#775,#113,.T.);
#650=EDGE_CURVE('',#777,#776,#114,.T.);
#651=EDGE_CURVE('',#778,#777,#115,.T.);
#652=EDGE_CURVE('',#778,#779,#116,.T.);
#653=EDGE_CURVE('',#779,#780,#117,.T.);
#654=EDGE_CURVE('',#780,#781,#118,.T.);
#655=EDGE_CURVE('',#781,#782,#119,.T.);
#656=EDGE_CURVE('',#771,#782,#120,.T.);
#657=EDGE_CURVE('',#783,#784,#121,.T.);
#658=EDGE_CURVE('',#784,#785,#122,.T.);
#659=EDGE_CURVE('',#786,#785,#123,.T.);
#660=EDGE_CURVE('',#783,#786,#124,.T.);
#661=EDGE_CURVE('',#751,#771,#125,.T.);
#662=EDGE_CURVE('',#752,#772,#126,.T.);
#663=EDGE_CURVE('',#753,#782,#127,.T.);
#664=EDGE_CURVE('',#754,#781,#128,.T.);
#665=EDGE_CURVE('',#755,#780,#129,.T.);
#666=EDGE_CURVE('',#756,#779,#130,.T.);
#667=EDGE_CURVE('',#757,#778,#131,.T.);
#668=EDGE_CURVE('',#758,#777,#132,.T.);
#669=EDGE_CURVE('',#759,#776,#133,.T.);
#670=EDGE_CURVE('',#760,#775,#134,.T.);
#671=EDGE_CURVE('',#761,#774,#135,.T.);
#672=EDGE_CURVE('',#762,#773,#136,.T.);
#673=EDGE_CURVE('',#785,#787,#137,.T.);
#674=EDGE_CURVE('',#787,#788,#138,.T.);
#675=EDGE_CURVE('',#786,#788,#139,.T.);
#676=EDGE_CURVE('',#789,#790,#140,.T.);
#677=EDGE_CURVE('',#791,#789,#141,.T.);
#678=EDGE_CURVE('',#791,#792,#142,.F.);
#679=EDGE_CURVE('',#792,#793,#143,.T.);
#680=EDGE_CURVE('',#783,#793,#144,.T.);
#681=EDGE_CURVE('',#788,#794,#145,.T.);
#682=EDGE_CURVE('',#794,#770,#146,.T.);
#683=EDGE_CURVE('',#769,#795,#147,.T.);
#684=EDGE_CURVE('',#795,#790,#148,.T.);
#685=EDGE_CURVE('',#793,#796,#149,.T.);
#686=EDGE_CURVE('',#784,#796,#150,.T.);
#687=EDGE_CURVE('',#797,#798,#151,.T.);
#688=EDGE_CURVE('',#798,#799,#152,.T.);
#689=EDGE_CURVE('',#800,#799,#153,.T.);
#690=EDGE_CURVE('',#767,#800,#154,.T.);
#691=EDGE_CURVE('',#768,#801,#155,.T.);
#692=EDGE_CURVE('',#801,#787,#156,.T.);
#693=EDGE_CURVE('',#796,#802,#157,.T.);
#694=EDGE_CURVE('',#802,#797,#158,.F.);
#695=EDGE_CURVE('',#798,#789,#159,.T.);
#696=EDGE_CURVE('',#797,#791,#160,.T.);
#697=EDGE_CURVE('',#788,#744,#161,.T.);
#698=EDGE_CURVE('',#745,#787,#162,.F.);
#699=EDGE_CURVE('',#746,#801,#163,.F.);
#700=EDGE_CURVE('',#794,#743,#164,.F.);
#701=EDGE_CURVE('',#794,#801,#165,.T.);
#702=EDGE_CURVE('',#796,#750,#166,.T.);
#703=EDGE_CURVE('',#747,#793,#167,.T.);
#704=EDGE_CURVE('',#748,#792,#168,.F.);
#705=EDGE_CURVE('',#802,#749,#169,.T.);
#706=EDGE_CURVE('',#802,#792,#170,.T.);
#707=EDGE_CURVE('',#799,#803,#171,.T.);
#708=EDGE_CURVE('',#803,#804,#172,.T.);
#709=EDGE_CURVE('',#800,#804,#173,.T.);
#710=EDGE_CURVE('',#805,#763,#174,.T.);
#711=EDGE_CURVE('',#805,#806,#175,.T.);
#712=EDGE_CURVE('',#806,#765,#176,.T.);
#713=EDGE_CURVE('',#805,#790,#177,.T.);
#714=EDGE_CURVE('',#803,#764,#178,.T.);
#715=EDGE_CURVE('',#804,#766,#179,.T.);
#716=EDGE_CURVE('',#806,#795,#180,.T.);
#717=VERTEX_POINT('',#1297);
#718=VERTEX_POINT('',#1298);
#719=VERTEX_POINT('',#1300);
#720=VERTEX_POINT('',#1306);
#721=VERTEX_POINT('',#1310);
#722=VERTEX_POINT('',#1312);
#723=VERTEX_POINT('',#1326);
#724=VERTEX_POINT('',#1328);
#725=VERTEX_POINT('',#1335);
#726=VERTEX_POINT('',#1337);
#727=VERTEX_POINT('',#1354);
#728=VERTEX_POINT('',#1356);
#729=VERTEX_POINT('',#1364);
#730=VERTEX_POINT('',#1366);
#731=VERTEX_POINT('',#1383);
#732=VERTEX_POINT('',#1385);
#733=VERTEX_POINT('',#1406);
#734=VERTEX_POINT('',#1408);
#735=VERTEX_POINT('',#1429);
#736=VERTEX_POINT('',#1431);
#737=VERTEX_POINT('',#1439);
#738=VERTEX_POINT('',#1441);
#739=VERTEX_POINT('',#1458);
#740=VERTEX_POINT('',#1460);
#741=VERTEX_POINT('',#1492);
#742=VERTEX_POINT('',#1494);
#743=VERTEX_POINT('',#1500);
#744=VERTEX_POINT('',#1501);
#745=VERTEX_POINT('',#1503);
#746=VERTEX_POINT('',#1505);
#747=VERTEX_POINT('',#1508);
#748=VERTEX_POINT('',#1509);
#749=VERTEX_POINT('',#1511);
#750=VERTEX_POINT('',#1513);
#751=VERTEX_POINT('',#1516);
#752=VERTEX_POINT('',#1517);
#753=VERTEX_POINT('',#1519);
#754=VERTEX_POINT('',#1521);
#755=VERTEX_POINT('',#1523);
#756=VERTEX_POINT('',#1525);
#757=VERTEX_POINT('',#1527);
#758=VERTEX_POINT('',#1529);
#759=VERTEX_POINT('',#1531);
#760=VERTEX_POINT('',#1533);
#761=VERTEX_POINT('',#1535);
#762=VERTEX_POINT('',#1537);
#763=VERTEX_POINT('',#1540);
#764=VERTEX_POINT('',#1541);
#765=VERTEX_POINT('',#1543);
#766=VERTEX_POINT('',#1545);
#767=VERTEX_POINT('',#1549);
#768=VERTEX_POINT('',#1550);
#769=VERTEX_POINT('',#1552);
#770=VERTEX_POINT('',#1554);
#771=VERTEX_POINT('',#1558);
#772=VERTEX_POINT('',#1559);
#773=VERTEX_POINT('',#1561);
#774=VERTEX_POINT('',#1563);
#775=VERTEX_POINT('',#1565);
#776=VERTEX_POINT('',#1567);
#777=VERTEX_POINT('',#1569);
#778=VERTEX_POINT('',#1571);
#779=VERTEX_POINT('',#1573);
#780=VERTEX_POINT('',#1575);
#781=VERTEX_POINT('',#1577);
#782=VERTEX_POINT('',#1579);
#783=VERTEX_POINT('',#1582);
#784=VERTEX_POINT('',#1583);
#785=VERTEX_POINT('',#1585);
#786=VERTEX_POINT('',#1587);
#787=VERTEX_POINT('',#1615);
#788=VERTEX_POINT('',#1617);
#789=VERTEX_POINT('',#1621);
#790=VERTEX_POINT('',#1622);
#791=VERTEX_POINT('',#1624);
#792=VERTEX_POINT('',#1626);
#793=VERTEX_POINT('',#1628);
#794=VERTEX_POINT('',#1631);
#795=VERTEX_POINT('',#1634);
#796=VERTEX_POINT('',#1638);
#797=VERTEX_POINT('',#1642);
#798=VERTEX_POINT('',#1643);
#799=VERTEX_POINT('',#1645);
#800=VERTEX_POINT('',#1647);
#801=VERTEX_POINT('',#1650);
#802=VERTEX_POINT('',#1653);
#803=VERTEX_POINT('',#1680);
#804=VERTEX_POINT('',#1682);
#805=VERTEX_POINT('',#1686);
#806=VERTEX_POINT('',#1688);
#807=B_SPLINE_CURVE_WITH_KNOTS('',3,(#1292,#1293,#1294,#1295,#1296),
 .UNSPECIFIED.,.F.,.F.,(4,1,4),(0.498972987837822,0.498980919801424,1.),
 .UNSPECIFIED.);
#808=B_SPLINE_CURVE_WITH_KNOTS('',3,(#1301,#1302,#1303,#1304,#1305),
 .UNSPECIFIED.,.F.,.F.,(4,1,4),(0.498972987837822,0.498980919801424,1.),
 .UNSPECIFIED.);
#809=B_SPLINE_CURVE_WITH_KNOTS('',3,(#1322,#1323,#1324,#1325),
 .UNSPECIFIED.,.F.,.F.,(4,4),(0.,0.497852132356547),
 .PIECEWISE_BEZIER_KNOTS.);
#810=B_SPLINE_CURVE_WITH_KNOTS('',3,(#1329,#1330,#1331,#1332),
 .UNSPECIFIED.,.F.,.F.,(4,4),(0.,0.497852132356547),
 .PIECEWISE_BEZIER_KNOTS.);
#811=B_SPLINE_CURVE_WITH_KNOTS('',3,(#1349,#1350,#1351,#1352,#1353),
 .UNSPECIFIED.,.F.,.F.,(4,1,4),(0.,0.48635805970042,1.),.UNSPECIFIED.);
#812=B_SPLINE_CURVE_WITH_KNOTS('',3,(#1357,#1358,#1359,#1360,#1361),
 .UNSPECIFIED.,.F.,.F.,(4,1,4),(0.,0.48635805970042,1.),.UNSPECIFIED.);
#813=B_SPLINE_CURVE_WITH_KNOTS('',3,(#1378,#1379,#1380,#1381,#1382),
 .UNSPECIFIED.,.F.,.F.,(4,1,4),(0.,0.508123666045436,1.),.UNSPECIFIED.);
#814=B_SPLINE_CURVE_WITH_KNOTS('',3,(#1386,#1387,#1388,#1389,#1390),
 .UNSPECIFIED.,.F.,.F.,(4,1,4),(0.,0.508123666045436,1.),.UNSPECIFIED.);
#815=B_SPLINE_CURVE_WITH_KNOTS('',3,(#1401,#1402,#1403,#1404,#1405),
 .UNSPECIFIED.,.F.,.F.,(4,1,4),(0.,0.495685817571344,1.),.UNSPECIFIED.);
#816=B_SPLINE_CURVE_WITH_KNOTS('',3,(#1409,#1410,#1411,#1412,#1413),
 .UNSPECIFIED.,.F.,.F.,(4,1,4),(0.,0.495685817571344,1.),.UNSPECIFIED.);
#817=B_SPLINE_CURVE_WITH_KNOTS('',3,(#1424,#1425,#1426,#1427,#1428),
 .UNSPECIFIED.,.F.,.F.,(4,1,4),(0.,0.489592528585713,1.),.UNSPECIFIED.);
#818=B_SPLINE_CURVE_WITH_KNOTS('',3,(#1432,#1433,#1434,#1435,#1436),
 .UNSPECIFIED.,.F.,.F.,(4,1,4),(0.,0.489592528585713,1.),.UNSPECIFIED.);
#819=B_SPLINE_CURVE_WITH_KNOTS('',3,(#1453,#1454,#1455,#1456,#1457),
 .UNSPECIFIED.,.F.,.F.,(4,1,4),(0.,0.493725410339972,1.),.UNSPECIFIED.);
#820=B_SPLINE_CURVE_WITH_KNOTS('',3,(#1461,#1462,#1463,#1464,#1465),
 .UNSPECIFIED.,.F.,.F.,(4,1,4),(0.,0.493725410339972,1.),.UNSPECIFIED.);
#821=EDGE_LOOP('',(#303,#304,#305,#306));
#822=EDGE_LOOP('',(#307,#308,#309,#310));
#823=EDGE_LOOP('',(#311,#312,#313,#314));
#824=EDGE_LOOP('',(#315,#316,#317,#318));
#825=EDGE_LOOP('',(#319,#320,#321,#322));
#826=EDGE_LOOP('',(#323,#324,#325,#326));
#827=EDGE_LOOP('',(#327,#328,#329,#330));
#828=EDGE_LOOP('',(#331,#332,#333,#334));
#829=EDGE_LOOP('',(#335,#336,#337,#338));
#830=EDGE_LOOP('',(#339,#340,#341,#342));
#831=EDGE_LOOP('',(#343,#344,#345,#346));
#832=EDGE_LOOP('',(#347,#348,#349,#350));
#833=EDGE_LOOP('',(#351));
#834=EDGE_LOOP('',(#352));
#835=EDGE_LOOP('',(#353,#354,#355,#356,#357,#358,#359,#360,#361,#362,#363,
#364));
#836=EDGE_LOOP('',(#365));
#837=EDGE_LOOP('',(#366,#367,#368,#369,#370,#371,#372,#373,#374,#375,#376,
#377));
#838=EDGE_LOOP('',(#378));
#839=EDGE_LOOP('',(#379,#380,#381,#382));
#840=EDGE_LOOP('',(#383,#384,#385,#386));
#841=EDGE_LOOP('',(#387,#388,#389,#390,#391,#392,#393,#394,#395,#396,#397,
#398));
#842=EDGE_LOOP('',(#399,#400,#401,#402));
#843=EDGE_LOOP('',(#403,#404,#405,#406));
#844=EDGE_LOOP('',(#407,#408,#409,#410,#411,#412,#413,#414,#415,#416,#417,
#418));
#845=EDGE_LOOP('',(#419,#420,#421,#422));
#846=EDGE_LOOP('',(#423,#424,#425,#426));
#847=EDGE_LOOP('',(#427,#428,#429,#430));
#848=EDGE_LOOP('',(#431,#432,#433,#434));
#849=EDGE_LOOP('',(#435,#436,#437,#438));
#850=EDGE_LOOP('',(#439,#440,#441,#442));
#851=EDGE_LOOP('',(#443,#444,#445,#446));
#852=EDGE_LOOP('',(#447,#448,#449,#450));
#853=EDGE_LOOP('',(#451,#452,#453,#454));
#854=EDGE_LOOP('',(#455,#456,#457,#458));
#855=EDGE_LOOP('',(#459,#460,#461,#462));
#856=EDGE_LOOP('',(#463,#464,#465,#466));
#857=EDGE_LOOP('',(#467,#468,#469,#470));
#858=EDGE_LOOP('',(#471,#472,#473,#474));
#859=EDGE_LOOP('',(#475,#476,#477,#478,#479,#480,#481,#482,#483,#484,#485,
#486));
#860=EDGE_LOOP('',(#487,#488,#489,#490));
#861=EDGE_LOOP('',(#491,#492,#493,#494,#495,#496,#497,#498,#499,#500,#501,
#502));
#862=EDGE_LOOP('',(#503,#504,#505,#506));
#863=EDGE_LOOP('',(#507,#508,#509,#510));
#864=EDGE_LOOP('',(#511,#512,#513,#514));
#865=EDGE_LOOP('',(#515,#516,#517,#518));
#866=EDGE_LOOP('',(#519,#520,#521,#522));
#867=EDGE_LOOP('',(#523,#524,#525,#526));
#868=EDGE_LOOP('',(#527,#528,#529,#530));
#869=EDGE_LOOP('',(#531,#532,#533,#534));
#870=EDGE_LOOP('',(#535,#536,#537,#538));
#871=EDGE_LOOP('',(#539,#540,#541,#542));
#872=EDGE_LOOP('',(#543,#544,#545,#546));
#873=EDGE_LOOP('',(#547,#548,#549,#550));
#874=EDGE_LOOP('',(#551,#552,#553,#554));
#875=EDGE_LOOP('',(#555,#556,#557,#558,#559,#560,#561,#562));
#876=EDGE_LOOP('',(#563,#564,#565,#566));
#877=EDGE_LOOP('',(#567,#568,#569,#570,#571,#572,#573,#574));
#878=EDGE_LOOP('',(#575,#576,#577,#578));
#879=FACE_BOUND('',#821,.T.);
#880=FACE_BOUND('',#822,.T.);
#881=FACE_BOUND('',#823,.T.);
#882=FACE_BOUND('',#824,.T.);
#883=FACE_BOUND('',#825,.T.);
#884=FACE_BOUND('',#826,.T.);
#885=FACE_BOUND('',#827,.T.);
#886=FACE_BOUND('',#828,.T.);
#887=FACE_BOUND('',#829,.T.);
#888=FACE_BOUND('',#830,.T.);
#889=FACE_BOUND('',#831,.T.);
#890=FACE_BOUND('',#832,.T.);
#891=FACE_BOUND('',#833,.T.);
#892=FACE_BOUND('',#834,.T.);
#893=FACE_BOUND('',#835,.T.);
#894=FACE_BOUND('',#836,.T.);
#895=FACE_BOUND('',#837,.T.);
#896=FACE_BOUND('',#838,.T.);
#897=FACE_BOUND('',#839,.T.);
#898=FACE_BOUND('',#840,.T.);
#899=FACE_BOUND('',#841,.T.);
#900=FACE_BOUND('',#842,.T.);
#901=FACE_BOUND('',#843,.T.);
#902=FACE_BOUND('',#844,.T.);
#903=FACE_BOUND('',#845,.T.);
#904=FACE_BOUND('',#846,.T.);
#905=FACE_BOUND('',#847,.T.);
#906=FACE_BOUND('',#848,.T.);
#907=FACE_BOUND('',#849,.T.);
#908=FACE_BOUND('',#850,.T.);
#909=FACE_BOUND('',#851,.T.);
#910=FACE_BOUND('',#852,.T.);
#911=FACE_BOUND('',#853,.T.);
#912=FACE_BOUND('',#854,.T.);
#913=FACE_BOUND('',#855,.T.);
#914=FACE_BOUND('',#856,.T.);
#915=FACE_BOUND('',#857,.T.);
#916=FACE_BOUND('',#858,.T.);
#917=FACE_BOUND('',#859,.T.);
#918=FACE_BOUND('',#860,.T.);
#919=FACE_BOUND('',#861,.T.);
#920=FACE_BOUND('',#862,.T.);
#921=FACE_BOUND('',#863,.T.);
#922=FACE_BOUND('',#864,.T.);
#923=FACE_BOUND('',#865,.T.);
#924=FACE_BOUND('',#866,.T.);
#925=FACE_BOUND('',#867,.T.);
#926=FACE_BOUND('',#868,.T.);
#927=FACE_BOUND('',#869,.T.);
#928=FACE_BOUND('',#870,.T.);
#929=FACE_BOUND('',#871,.T.);
#930=FACE_BOUND('',#872,.T.);
#931=FACE_BOUND('',#873,.T.);
#932=FACE_BOUND('',#874,.T.);
#933=FACE_BOUND('',#875,.T.);
#934=FACE_BOUND('',#876,.T.);
#935=FACE_BOUND('',#877,.T.);
#936=FACE_BOUND('',#878,.T.);
#937=B_SPLINE_SURFACE_WITH_KNOTS('',3,1,((#1284,#1285),(#1286,#1287),(#1288,
#1289),(#1290,#1291)),.SURF_OF_LINEAR_EXTRUSION.,.F.,.F.,.F.,(4,4),(2,2),
(0.498972987837822,1.),(0.,1.),.PIECEWISE_BEZIER_KNOTS.);
#938=B_SPLINE_SURFACE_WITH_KNOTS('',3,1,((#1314,#1315),(#1316,#1317),(#1318,
#1319),(#1320,#1321)),.SURF_OF_LINEAR_EXTRUSION.,.F.,.F.,.F.,(4,4),(2,2),
(0.,0.497850145470087),(0.,1.),.PIECEWISE_BEZIER_KNOTS.);
#939=B_SPLINE_SURFACE_WITH_KNOTS('',3,1,((#1339,#1340),(#1341,#1342),(#1343,
#1344),(#1345,#1346),(#1347,#1348)),.SURF_OF_LINEAR_EXTRUSION.,.F.,.F.,
 .F.,(4,1,4),(2,2),(0.,0.48635805970042,1.),(0.,1.),.UNSPECIFIED.);
#940=B_SPLINE_SURFACE_WITH_KNOTS('',3,1,((#1368,#1369),(#1370,#1371),(#1372,
#1373),(#1374,#1375),(#1376,#1377)),.SURF_OF_LINEAR_EXTRUSION.,.F.,.F.,
 .F.,(4,1,4),(2,2),(0.,0.508123666045436,1.),(0.,1.),.UNSPECIFIED.);
#941=B_SPLINE_SURFACE_WITH_KNOTS('',3,1,((#1391,#1392),(#1393,#1394),(#1395,
#1396),(#1397,#1398),(#1399,#1400)),.SURF_OF_LINEAR_EXTRUSION.,.F.,.F.,
 .F.,(4,1,4),(2,2),(0.,0.495685817571344,1.),(0.,1.),.UNSPECIFIED.);
#942=B_SPLINE_SURFACE_WITH_KNOTS('',3,1,((#1414,#1415),(#1416,#1417),(#1418,
#1419),(#1420,#1421),(#1422,#1423)),.SURF_OF_LINEAR_EXTRUSION.,.F.,.F.,
 .F.,(4,1,4),(2,2),(0.,0.489592528585713,1.),(0.,1.),.UNSPECIFIED.);
#943=B_SPLINE_SURFACE_WITH_KNOTS('',3,1,((#1443,#1444),(#1445,#1446),(#1447,
#1448),(#1449,#1450),(#1451,#1452)),.SURF_OF_LINEAR_EXTRUSION.,.F.,.F.,
 .F.,(4,1,4),(2,2),(0.,0.493725410339972,1.),(0.,1.),.UNSPECIFIED.);
#944=B_SPLINE_SURFACE_WITH_KNOTS('',3,1,((#1469,#1470),(#1471,#1472),(#1473,
#1474),(#1475,#1476),(#1477,#1478),(#1479,#1480),(#1481,#1482),(#1483,#1484),
(#1485,#1486),(#1487,#1488),(#1489,#1490)),.SURF_OF_LINEAR_EXTRUSION.,.T.,
 .F.,.F.,(1,1,1,1,1,1,1,1,1,1,1,1,1,1,1),(2,2),(-2.35619449019234,-1.5707963267949,
-0.785398163397448,0.,0.785398163397448,1.5707963267949,2.35619449019234,
3.14159265358979,3.92699081698724,4.71238898038469,5.49778714378214,6.28318530717959,
7.06858347057703,7.85398163397448,8.63937979737193),(0.,1.),
 .UNSPECIFIED.);
#945=ADVANCED_FACE('',(#879),#937,.T.);
#946=ADVANCED_FACE('',(#880),#16,.T.);
#947=ADVANCED_FACE('',(#881),#938,.T.);
#948=ADVANCED_FACE('',(#882),#17,.F.);
#949=ADVANCED_FACE('',(#883),#939,.T.);
#950=ADVANCED_FACE('',(#884),#18,.F.);
#951=ADVANCED_FACE('',(#885),#940,.F.);
#952=ADVANCED_FACE('',(#886),#941,.F.);
#953=ADVANCED_FACE('',(#887),#942,.T.);
#954=ADVANCED_FACE('',(#888),#19,.T.);
#955=ADVANCED_FACE('',(#889),#943,.F.);
#956=ADVANCED_FACE('',(#890),#20,.T.);
#957=ADVANCED_FACE('',(#891,#892),#944,.T.);
#958=ADVANCED_FACE('',(#893,#894),#21,.T.);
#959=ADVANCED_FACE('',(#895,#896),#22,.F.);
#960=ADVANCED_FACE('',(#897,#898,#899,#900),#23,.T.);
#961=ADVANCED_FACE('',(#901),#24,.T.);
#962=ADVANCED_FACE('',(#902,#903),#25,.F.);
#963=ADVANCED_FACE('',(#904),#26,.T.);
#964=ADVANCED_FACE('',(#905),#27,.F.);
#965=ADVANCED_FACE('',(#906),#28,.T.);
#966=ADVANCED_FACE('',(#907),#29,.T.);
#967=ADVANCED_FACE('',(#908),#30,.T.);
#968=ADVANCED_FACE('',(#909),#31,.T.);
#969=ADVANCED_FACE('',(#910),#32,.F.);
#970=ADVANCED_FACE('',(#911),#33,.F.);
#971=ADVANCED_FACE('',(#912),#34,.F.);
#972=ADVANCED_FACE('',(#913),#35,.T.);
#973=ADVANCED_FACE('',(#914),#36,.F.);
#974=ADVANCED_FACE('',(#915),#37,.F.);
#975=ADVANCED_FACE('',(#916),#38,.T.);
#976=ADVANCED_FACE('',(#917),#39,.T.);
#977=ADVANCED_FACE('',(#918),#40,.F.);
#978=ADVANCED_FACE('',(#919),#41,.F.);
#979=ADVANCED_FACE('',(#920),#42,.T.);
#980=ADVANCED_FACE('',(#921),#43,.F.);
#981=ADVANCED_FACE('',(#922),#44,.T.);
#982=ADVANCED_FACE('',(#923),#45,.F.);
#983=ADVANCED_FACE('',(#924),#46,.T.);
#984=ADVANCED_FACE('',(#925),#47,.T.);
#985=ADVANCED_FACE('',(#926),#48,.T.);
#986=ADVANCED_FACE('',(#927),#49,.F.);
#987=ADVANCED_FACE('',(#928),#50,.T.);
#988=ADVANCED_FACE('',(#929),#51,.F.);
#989=ADVANCED_FACE('',(#930),#52,.F.);
#990=ADVANCED_FACE('',(#931),#53,.T.);
#991=ADVANCED_FACE('',(#932),#54,.T.);
#992=ADVANCED_FACE('',(#933),#55,.F.);
#993=ADVANCED_FACE('',(#934),#56,.F.);
#994=ADVANCED_FACE('',(#935),#57,.T.);
#995=ADVANCED_FACE('',(#936),#58,.T.);
#996=CLOSED_SHELL('',(#945,#946,#947,#948,#949,#950,#951,#952,#953,#954,
#955,#956,#957,#958,#959));
#997=CLOSED_SHELL('',(#960,#961,#962,#963,#964,#965,#966,#967,#968,#969,
#970,#971,#972,#973,#974,#975,#976,#977,#978,#979,#980,#981,#982,#983,#984,
#985,#986,#987,#988,#989,#990,#991,#992,#993,#994,#995));
#998=STYLED_ITEM('',(#1000),#1014);
#999=STYLED_ITEM('',(#1001),#1015);
#1000=PRESENTATION_STYLE_ASSIGNMENT((#1002));
#1001=PRESENTATION_STYLE_ASSIGNMENT((#1003));
#1002=SURFACE_STYLE_USAGE(.BOTH.,#1004);
#1003=SURFACE_STYLE_USAGE(.BOTH.,#1005);
#1004=SURFACE_SIDE_STYLE('',(#1006));
#1005=SURFACE_SIDE_STYLE('',(#1007));
#1006=SURFACE_STYLE_FILL_AREA(#1008);
#1007=SURFACE_STYLE_FILL_AREA(#1009);
#1008=FILL_AREA_STYLE('',(#1010));
#1009=FILL_AREA_STYLE('',(#1011));
#1010=FILL_AREA_STYLE_COLOUR('',#1012);
#1011=FILL_AREA_STYLE_COLOUR('',#1013);
#1012=COLOUR_RGB('',0.647058823529412,0.647058823529412,0.647058823529412);
#1013=COLOUR_RGB('',0.615686274509804,0.811764705882353,0.929411764705882);
#1014=MANIFOLD_SOLID_BREP('Part 2',#996);
#1015=MANIFOLD_SOLID_BREP('Part 1',#997);
#1016=SHAPE_DEFINITION_REPRESENTATION(#1710,#1018);
#1017=SHAPE_DEFINITION_REPRESENTATION(#1711,#1019);
#1018=SHAPE_REPRESENTATION('Part 2',(#1020),#1700);
#1019=SHAPE_REPRESENTATION('Part 1',(#1030),#1701);
#1020=AXIS2_PLACEMENT_3D('',#1283,#1067,#1068);
#1021=AXIS2_PLACEMENT_3D('',#1308,#1071,#1072);
#1022=AXIS2_PLACEMENT_3D('',#1333,#1077,#1078);
#1023=AXIS2_PLACEMENT_3D('',#1362,#1083,#1084);
#1024=AXIS2_PLACEMENT_3D('',#1437,#1091,#1092);
#1025=AXIS2_PLACEMENT_3D('',#1466,#1097,#1098);
#1026=AXIS2_PLACEMENT_3D('',#1491,#1101,#1102);
#1027=AXIS2_PLACEMENT_3D('',#1493,#1103,#1104);
#1028=AXIS2_PLACEMENT_3D('',#1495,#1105,#1106);
#1029=AXIS2_PLACEMENT_3D('',#1496,#1107,#1108);
#1030=AXIS2_PLACEMENT_3D('',#1497,#1109,#1110);
#1031=AXIS2_PLACEMENT_3D('',#1498,#1111,#1112);
#1032=AXIS2_PLACEMENT_3D('',#1547,#1137,#1138);
#1033=AXIS2_PLACEMENT_3D('',#1556,#1143,#1144);
#1034=AXIS2_PLACEMENT_3D('',#1589,#1161,#1162);
#1035=AXIS2_PLACEMENT_3D('',#1592,#1165,#1166);
#1036=AXIS2_PLACEMENT_3D('',#1594,#1168,#1169);
#1037=AXIS2_PLACEMENT_3D('',#1596,#1171,#1172);
#1038=AXIS2_PLACEMENT_3D('',#1598,#1174,#1175);
#1039=AXIS2_PLACEMENT_3D('',#1600,#1177,#1178);
#1040=AXIS2_PLACEMENT_3D('',#1602,#1180,#1181);
#1041=AXIS2_PLACEMENT_3D('',#1604,#1183,#1184);
#1042=AXIS2_PLACEMENT_3D('',#1606,#1186,#1187);
#1043=AXIS2_PLACEMENT_3D('',#1608,#1189,#1190);
#1044=AXIS2_PLACEMENT_3D('',#1610,#1192,#1193);
#1045=AXIS2_PLACEMENT_3D('',#1612,#1195,#1196);
#1046=AXIS2_PLACEMENT_3D('',#1613,#1197,#1198);
#1047=AXIS2_PLACEMENT_3D('',#1619,#1202,#1203);
#1048=AXIS2_PLACEMENT_3D('',#1636,#1213,#1214);
#1049=AXIS2_PLACEMENT_3D('',#1640,#1217,#1218);
#1050=AXIS2_PLACEMENT_3D('',#1655,#1227,#1228);
#1051=AXIS2_PLACEMENT_3D('',#1658,#1231,#1232);
#1052=AXIS2_PLACEMENT_3D('',#1661,#1235,#1236);
#1053=AXIS2_PLACEMENT_3D('',#1663,#1238,#1239);
#1054=AXIS2_PLACEMENT_3D('',#1665,#1241,#1242);
#1055=AXIS2_PLACEMENT_3D('',#1667,#1244,#1245);
#1056=AXIS2_PLACEMENT_3D('',#1668,#1246,#1247);
#1057=AXIS2_PLACEMENT_3D('',#1671,#1250,#1251);
#1058=AXIS2_PLACEMENT_3D('',#1673,#1253,#1254);
#1059=AXIS2_PLACEMENT_3D('',#1675,#1256,#1257);
#1060=AXIS2_PLACEMENT_3D('',#1677,#1259,#1260);
#1061=AXIS2_PLACEMENT_3D('',#1678,#1261,#1262);
#1062=AXIS2_PLACEMENT_3D('',#1684,#1266,#1267);
#1063=AXIS2_PLACEMENT_3D('',#1690,#1271,#1272);
#1064=AXIS2_PLACEMENT_3D('',#1693,#1275,#1276);
#1065=AXIS2_PLACEMENT_3D('',#1695,#1278,#1279);
#1066=AXIS2_PLACEMENT_3D('',#1697,#1281,#1282);
#1067=DIRECTION('',(0.,0.,1.));
#1068=DIRECTION('',(1.,0.,0.));
#1069=DIRECTION('',(0.,0.,-1.));
#1070=DIRECTION('',(0.,0.,-1.));
#1071=DIRECTION('',(-1.12556700990355E-12,1.,0.));
#1072=DIRECTION('',(-1.,-1.12556700990355E-12,0.));
#1073=DIRECTION('',(1.,1.12556700990355E-12,0.));
#1074=DIRECTION('',(0.,0.,-1.));
#1075=DIRECTION('',(1.,1.12556700990355E-12,0.));
#1076=DIRECTION('',(0.,0.,-1.));
#1077=DIRECTION('',(1.,0.,0.));
#1078=DIRECTION('',(0.,0.,-1.));
#1079=DIRECTION('',(0.,-1.,0.));
#1080=DIRECTION('',(0.,0.,-1.));
#1081=DIRECTION('',(0.,-1.,0.));
#1082=DIRECTION('',(0.,0.,-1.));
#1083=DIRECTION('',(1.,0.,0.));
#1084=DIRECTION('',(0.,0.,-1.));
#1085=DIRECTION('',(0.,-1.,0.));
#1086=DIRECTION('',(0.,0.,-1.));
#1087=DIRECTION('',(0.,-1.,0.));
#1088=DIRECTION('',(0.,0.,-1.));
#1089=DIRECTION('',(0.,0.,-1.));
#1090=DIRECTION('',(0.,0.,-1.));
#1091=DIRECTION('',(1.,0.,0.));
#1092=DIRECTION('',(0.,0.,-1.));
#1093=DIRECTION('',(0.,-1.,0.));
#1094=DIRECTION('',(0.,0.,-1.));
#1095=DIRECTION('',(0.,-1.,0.));
#1096=DIRECTION('',(0.,0.,-1.));
#1097=DIRECTION('',(1.,6.07069291414831E-17,0.));
#1098=DIRECTION('',(-6.07069291414831E-17,1.,0.));
#1099=DIRECTION('',(6.07069291414831E-17,-1.,0.));
#1100=DIRECTION('',(6.07069291414831E-17,-1.,0.));
#1101=DIRECTION('',(0.,0.,1.));
#1102=DIRECTION('',(-1.,0.,0.));
#1103=DIRECTION('',(0.,0.,1.));
#1104=DIRECTION('',(-1.,0.,0.));
#1105=DIRECTION('',(0.,0.,1.));
#1106=DIRECTION('',(1.,0.,0.));
#1107=DIRECTION('',(0.,0.,1.));
#1108=DIRECTION('',(1.,0.,0.));
#1109=DIRECTION('',(0.,0.,1.));
#1110=DIRECTION('',(1.,0.,0.));
#1111=DIRECTION('',(0.,0.,1.));
#1112=DIRECTION('',(1.,0.,0.));
#1113=DIRECTION('',(1.,2.89120579329468E-16,0.));
#1114=DIRECTION('',(0.,-1.,0.));
#1115=DIRECTION('',(-1.,0.,0.));
#1116=DIRECTION('',(0.,1.,0.));
#1117=DIRECTION('',(1.,2.89120579329468E-16,0.));
#1118=DIRECTION('',(0.,-1.,0.));
#1119=DIRECTION('',(-1.,0.,0.));
#1120=DIRECTION('',(0.,1.,0.));
#1121=DIRECTION('',(-2.31296463463574E-16,-1.,0.));
#1122=DIRECTION('',(1.,0.,0.));
#1123=DIRECTION('',(0.,-1.,0.));
#1124=DIRECTION('',(1.,0.,0.));
#1125=DIRECTION('',(-1.15648231731787E-16,-1.,0.));
#1126=DIRECTION('',(1.,0.,0.));
#1127=DIRECTION('',(-1.15648231731787E-16,-1.,0.));
#1128=DIRECTION('',(-1.,8.67361737988404E-17,0.));
#1129=DIRECTION('',(0.,-1.,0.));
#1130=DIRECTION('',(-1.,8.67361737988404E-17,0.));
#1131=DIRECTION('',(-2.31296463463574E-16,-1.,0.));
#1132=DIRECTION('',(1.,0.,0.));
#1133=DIRECTION('',(0.,-1.,0.));
#1134=DIRECTION('',(1.,0.,0.));
#1135=DIRECTION('',(0.,-1.,0.));
#1136=DIRECTION('',(1.,0.,0.));
#1137=DIRECTION('',(0.,0.,-1.));
#1138=DIRECTION('',(1.,0.,0.));
#1139=DIRECTION('',(1.,0.,0.));
#1140=DIRECTION('',(0.,1.,0.));
#1141=DIRECTION('',(1.,0.,0.));
#1142=DIRECTION('',(0.,-1.,0.));
#1143=DIRECTION('',(0.,0.,1.));
#1144=DIRECTION('',(1.,0.,0.));
#1145=DIRECTION('',(-2.31296463463574E-16,-1.,0.));
#1146=DIRECTION('',(1.,0.,0.));
#1147=DIRECTION('',(-2.31296463463574E-16,-1.,0.));
#1148=DIRECTION('',(-1.,8.67361737988404E-17,0.));
#1149=DIRECTION('',(0.,-1.,0.));
#1150=DIRECTION('',(-1.,8.67361737988404E-17,0.));
#1151=DIRECTION('',(-1.15648231731787E-16,-1.,0.));
#1152=DIRECTION('',(1.,0.,0.));
#1153=DIRECTION('',(-1.15648231731787E-16,-1.,0.));
#1154=DIRECTION('',(1.,0.,0.));
#1155=DIRECTION('',(0.,-1.,0.));
#1156=DIRECTION('',(1.,0.,0.));
#1157=DIRECTION('',(0.,-1.,0.));
#1158=DIRECTION('',(1.,0.,0.));
#1159=DIRECTION('',(0.,-1.,0.));
#1160=DIRECTION('',(1.,0.,0.));
#1161=DIRECTION('',(1.,-2.31296463463574E-16,0.));
#1162=DIRECTION('',(2.31296463463574E-16,1.,0.));
#1163=DIRECTION('',(0.,0.,-1.));
#1164=DIRECTION('',(0.,0.,-1.));
#1165=DIRECTION('',(0.,1.,0.));
#1166=DIRECTION('',(0.,0.,1.));
#1167=DIRECTION('',(0.,0.,-1.));
#1168=DIRECTION('',(1.,0.,0.));
#1169=DIRECTION('',(0.,0.,-1.));
#1170=DIRECTION('',(0.,0.,-1.));
#1171=DIRECTION('',(0.,1.,0.));
#1172=DIRECTION('',(0.,0.,1.));
#1173=DIRECTION('',(0.,0.,-1.));
#1174=DIRECTION('',(1.,-1.15648231731787E-16,0.));
#1175=DIRECTION('',(1.15648231731787E-16,1.,0.));
#1176=DIRECTION('',(0.,0.,-1.));
#1177=DIRECTION('',(0.,1.,0.));
#1178=DIRECTION('',(0.,0.,1.));
#1179=DIRECTION('',(0.,0.,-1.));
#1180=DIRECTION('',(1.,-1.15648231731787E-16,0.));
#1181=DIRECTION('',(1.15648231731787E-16,1.,0.));
#1182=DIRECTION('',(0.,0.,-1.));
#1183=DIRECTION('',(-8.67361737988404E-17,-1.,0.));
#1184=DIRECTION('',(1.,-8.67361737988404E-17,0.));
#1185=DIRECTION('',(0.,0.,-1.));
#1186=DIRECTION('',(1.,0.,0.));
#1187=DIRECTION('',(0.,0.,-1.));
#1188=DIRECTION('',(0.,0.,-1.));
#1189=DIRECTION('',(-8.67361737988404E-17,-1.,0.));
#1190=DIRECTION('',(1.,-8.67361737988404E-17,0.));
#1191=DIRECTION('',(0.,0.,-1.));
#1192=DIRECTION('',(1.,-2.31296463463574E-16,0.));
#1193=DIRECTION('',(2.31296463463574E-16,1.,0.));
#1194=DIRECTION('',(0.,0.,-1.));
#1195=DIRECTION('',(0.,1.,0.));
#1196=DIRECTION('',(0.,0.,1.));
#1197=DIRECTION('',(-1.,0.,0.));
#1198=DIRECTION('',(0.,0.,1.));
#1199=DIRECTION('',(0.,0.,1.));
#1200=DIRECTION('',(0.,1.,0.));
#1201=DIRECTION('',(0.,0.,1.));
#1202=DIRECTION('',(2.89120579329468E-16,-1.,0.));
#1203=DIRECTION('',(1.,2.89120579329468E-16,0.));
#1204=DIRECTION('',(0.,0.,-1.));
#1205=DIRECTION('',(1.,0.,0.));
#1206=DIRECTION('',(0.707106781186549,2.0443912222445E-16,-0.707106781186546));
#1207=DIRECTION('',(-1.,-2.89120579329468E-16,0.));
#1208=DIRECTION('',(0.,0.,1.));
#1209=DIRECTION('',(-1.,-2.89120579329468E-16,0.));
#1210=DIRECTION('',(-0.707106781186549,-2.0443912222445E-16,-0.707106781186546));
#1211=DIRECTION('',(0.,0.,-1.));
#1212=DIRECTION('',(-1.,-2.89120579329468E-16,0.));
#1213=DIRECTION('',(-1.,0.,0.));
#1214=DIRECTION('',(0.,0.,1.));
#1215=DIRECTION('',(0.,-1.,0.));
#1216=DIRECTION('',(0.,0.,1.));
#1217=DIRECTION('',(0.,-1.,0.));
#1218=DIRECTION('',(0.,0.,-1.));
#1219=DIRECTION('',(1.,0.,0.));
#1220=DIRECTION('',(0.,0.,-1.));
#1221=DIRECTION('',(-1.,0.,0.));
#1222=DIRECTION('',(0.,0.,-1.));
#1223=DIRECTION('',(0.707106781186549,0.,0.707106781186546));
#1224=DIRECTION('',(1.,0.,0.));
#1225=DIRECTION('',(1.,0.,0.));
#1226=DIRECTION('',(-0.707106781186549,0.,0.707106781186546));
#1227=DIRECTION('',(0.,0.,-1.));
#1228=DIRECTION('',(1.,0.,0.));
#1229=DIRECTION('',(0.,1.,0.));
#1230=DIRECTION('',(0.,1.,0.));
#1231=DIRECTION('',(0.707106781186546,0.,-0.707106781186549));
#1232=DIRECTION('',(0.,-1.,0.));
#1233=DIRECTION('',(0.577350269189628,0.577350269189624,0.577350269189625));
#1234=DIRECTION('',(0.577350269189628,-0.577350269189624,0.577350269189625));
#1235=DIRECTION('',(0.,0.707106781186548,0.707106781186547));
#1236=DIRECTION('',(-1.,0.,0.));
#1237=DIRECTION('',(-0.577350269189625,-0.577350269189625,0.577350269189626));
#1238=DIRECTION('',(-2.0443912222445E-16,0.707106781186548,-0.707106781186547));
#1239=DIRECTION('',(1.,2.89120579329468E-16,0.));
#1240=DIRECTION('',(0.577350269189625,-0.577350269189625,-0.577350269189626));
#1241=DIRECTION('',(0.707106781186548,0.,0.707106781186547));
#1242=DIRECTION('',(0.,1.,0.));
#1243=DIRECTION('',(0.,-1.,0.));
#1244=DIRECTION('',(0.707106781186546,0.,-0.707106781186549));
#1245=DIRECTION('',(0.,1.,0.));
#1246=DIRECTION('',(0.707106781186551,0.,0.707106781186545));
#1247=DIRECTION('',(0.,1.,0.));
#1248=DIRECTION('',(-0.577350269189624,-0.577350269189624,0.577350269189629));
#1249=DIRECTION('',(0.577350269189624,-0.577350269189624,-0.577350269189629));
#1250=DIRECTION('',(-2.04439122224451E-16,0.707106781186551,-0.707106781186545));
#1251=DIRECTION('',(1.,2.89120579329468E-16,0.));
#1252=DIRECTION('',(0.577350269189624,0.577350269189624,0.577350269189629));
#1253=DIRECTION('',(0.,0.707106781186551,0.707106781186545));
#1254=DIRECTION('',(-1.,0.,0.));
#1255=DIRECTION('',(0.577350269189624,-0.577350269189624,0.577350269189629));
#1256=DIRECTION('',(0.707106781186551,0.,-0.707106781186545));
#1257=DIRECTION('',(0.,-1.,0.));
#1258=DIRECTION('',(0.,1.,0.));
#1259=DIRECTION('',(0.707106781186546,0.,0.707106781186549));
#1260=DIRECTION('',(0.,-1.,0.));
#1261=DIRECTION('',(0.,0.,1.));
#1262=DIRECTION('',(1.,0.,0.));
#1263=DIRECTION('',(0.,-1.,0.));
#1264=DIRECTION('',(1.,0.,0.));
#1265=DIRECTION('',(0.,-1.,0.));
#1266=DIRECTION('',(0.,-1.,0.));
#1267=DIRECTION('',(0.,0.,-1.));
#1268=DIRECTION('',(0.,0.,1.));
#1269=DIRECTION('',(1.,0.,0.));
#1270=DIRECTION('',(0.,0.,1.));
#1271=DIRECTION('',(-1.,0.,0.));
#1272=DIRECTION('',(0.,0.,1.));
#1273=DIRECTION('',(0.,-1.,0.));
#1274=DIRECTION('',(0.,0.,1.));
#1275=DIRECTION('',(0.,-1.,0.));
#1276=DIRECTION('',(0.,0.,-1.));
#1277=DIRECTION('',(0.,0.,1.));
#1278=DIRECTION('',(-1.,0.,0.));
#1279=DIRECTION('',(0.,0.,1.));
#1280=DIRECTION('',(0.,-1.,0.));
#1281=DIRECTION('',(0.,0.,1.));
#1282=DIRECTION('',(1.,0.,0.));
#1283=CARTESIAN_POINT('',(0.,0.,0.));
#1284=CARTESIAN_POINT('',(-0.0647608057171801,0.0809993337343749,0.001));
#1285=CARTESIAN_POINT('',(-0.0647608057171801,0.0809993337343749,0.));
#1286=CARTESIAN_POINT('',(-0.0629236912315268,0.0809925824084669,0.001));
#1287=CARTESIAN_POINT('',(-0.0629236912315268,0.0809925824084669,0.));
#1288=CARTESIAN_POINT('',(-0.0610922048480976,0.0779656298318337,0.001));
#1289=CARTESIAN_POINT('',(-0.0610922048480976,0.0779656298318337,0.));
#1290=CARTESIAN_POINT('',(-0.0592607184648514,0.074938677251339,0.001));
#1291=CARTESIAN_POINT('',(-0.0592607184648514,0.074938677251339,0.));
#1292=CARTESIAN_POINT('',(-0.0647608057171801,0.0809993337343749,0.));
#1293=CARTESIAN_POINT('',(-0.0647607766330691,0.0809993336274919,0.));
#1294=CARTESIAN_POINT('',(-0.0629236622363335,0.0809925344914038,0.));
#1295=CARTESIAN_POINT('',(-0.0610921758530874,0.0779655819109091,0.));
#1296=CARTESIAN_POINT('',(-0.0592607184648514,0.074938677251339,0.));
#1297=CARTESIAN_POINT('',(-0.0647608057174782,0.080999333572915,0.));
#1298=CARTESIAN_POINT('',(-0.0592607184648514,0.074938677251339,0.));
#1299=CARTESIAN_POINT('',(-0.0647608057174782,0.080999333572915,0.001));
#1300=CARTESIAN_POINT('',(-0.0647608057174782,0.080999333572915,0.001));
#1301=CARTESIAN_POINT('',(-0.0647608057171801,0.0809993337343749,0.001));
#1302=CARTESIAN_POINT('',(-0.0647607766330691,0.0809993336274919,0.001));
#1303=CARTESIAN_POINT('',(-0.0629236622363335,0.0809925344914038,0.001));
#1304=CARTESIAN_POINT('',(-0.0610921758530874,0.0779655819109091,0.001));
#1305=CARTESIAN_POINT('',(-0.0592607184648514,0.074938677251339,0.001));
#1306=CARTESIAN_POINT('',(-0.0592607184648514,0.074938677251339,0.001));
#1307=CARTESIAN_POINT('',(-0.0592607184648514,0.074938677251339,0.001));
#1308=CARTESIAN_POINT('',(-0.0647669705163559,0.080999333411455,0.001));
#1309=CARTESIAN_POINT('',(-0.0647669705163559,0.080999333411455,0.));
#1310=CARTESIAN_POINT('',(-0.0647731571713278,0.0809993335329054,0.));
#1311=CARTESIAN_POINT('',(-0.0647731571713278,0.0809993335329054,0.001));
#1312=CARTESIAN_POINT('',(-0.0647731571713278,0.0809993335329054,0.001));
#1313=CARTESIAN_POINT('',(-0.0647669705163559,0.080999333411455,0.001));
#1314=CARTESIAN_POINT('',(-0.0702607184648514,0.0750287175178528,0.001));
#1315=CARTESIAN_POINT('',(-0.0702607184648514,0.0750287175178528,2.16840434497101E-19));
#1316=CARTESIAN_POINT('',(-0.0684296832752357,0.078010662024309,0.001));
#1317=CARTESIAN_POINT('',(-0.0684296832752357,0.078010662024309,0.));
#1318=CARTESIAN_POINT('',(-0.06659864808562,0.0809926065307651,0.001));
#1319=CARTESIAN_POINT('',(-0.06659864808562,0.0809926065307651,4.33680868994202E-19));
#1320=CARTESIAN_POINT('',(-0.0647731571717747,0.0809993336543553,0.001));
#1321=CARTESIAN_POINT('',(-0.0647731571717747,0.0809993336543553,8.67361737988404E-19));
#1322=CARTESIAN_POINT('',(-0.0702607184648514,0.0750287175178528,0.));
#1323=CARTESIAN_POINT('',(-0.0684296759676973,0.078010673925049,0.));
#1324=CARTESIAN_POINT('',(-0.0665986334705433,0.0809926303322452,0.));
#1325=CARTESIAN_POINT('',(-0.0647731353155404,0.0809993337347556,0.));
#1326=CARTESIAN_POINT('',(-0.0702607184648514,0.0750287175178528,0.));
#1327=CARTESIAN_POINT('',(-0.0702607184648514,0.0750287175178528,0.001));
#1328=CARTESIAN_POINT('',(-0.0702607184648514,0.0750287175178528,0.001));
#1329=CARTESIAN_POINT('',(-0.0702607184648514,0.0750287175178528,0.001));
#1330=CARTESIAN_POINT('',(-0.0684296759676973,0.078010673925049,0.001));
#1331=CARTESIAN_POINT('',(-0.0665986334705433,0.0809926303322452,0.001));
#1332=CARTESIAN_POINT('',(-0.0647731353155404,0.0809993337347556,0.001));
#1333=CARTESIAN_POINT('',(-0.0702607184648514,0.0178329404443502,0.001));
#1334=CARTESIAN_POINT('',(-0.0702607184648514,0.0178329404443502,0.));
#1335=CARTESIAN_POINT('',(-0.0702607184648514,-0.0393628366291523,0.));
#1336=CARTESIAN_POINT('',(-0.0702607184648514,-0.0393628366291523,0.001));
#1337=CARTESIAN_POINT('',(-0.0702607184648514,-0.0393628366291523,0.001));
#1338=CARTESIAN_POINT('',(-0.0702607184648514,0.0178329404443502,0.001));
#1339=CARTESIAN_POINT('',(-0.0752607184648514,-0.0440006665885449,0.001));
#1340=CARTESIAN_POINT('',(-0.0752607184648514,-0.0440006665885449,0.));
#1341=CARTESIAN_POINT('',(-0.073861162567761,-0.0439939162608033,0.001));
#1342=CARTESIAN_POINT('',(-0.073861162567761,-0.0439939162608033,0.));
#1343=CARTESIAN_POINT('',(-0.0709835380087015,-0.0439800369231285,0.001));
#1344=CARTESIAN_POINT('',(-0.0709835380087015,-0.0439800369231285,0.));
#1345=CARTESIAN_POINT('',(-0.0705060013307028,-0.0409296455650096,0.001));
#1346=CARTESIAN_POINT('',(-0.0705060013307028,-0.0409296455650096,0.));
#1347=CARTESIAN_POINT('',(-0.0702607184648514,-0.0393628366291523,0.001));
#1348=CARTESIAN_POINT('',(-0.0702607184648514,-0.0393628366291523,0.));
#1349=CARTESIAN_POINT('',(-0.0752607184648514,-0.0440006665885449,0.));
#1350=CARTESIAN_POINT('',(-0.073861162567761,-0.0439939162608033,0.));
#1351=CARTESIAN_POINT('',(-0.0709835380087015,-0.0439800369231285,0.));
#1352=CARTESIAN_POINT('',(-0.0705060013307028,-0.0409296455650096,0.));
#1353=CARTESIAN_POINT('',(-0.0702607184648514,-0.0393628366291523,0.));
#1354=CARTESIAN_POINT('',(-0.0752607184648514,-0.0440006665885449,0.));
#1355=CARTESIAN_POINT('',(-0.0752607184648514,-0.0440006665885449,0.001));
#1356=CARTESIAN_POINT('',(-0.0752607184648514,-0.0440006665885449,0.001));
#1357=CARTESIAN_POINT('',(-0.0752607184648514,-0.0440006665885449,0.001));
#1358=CARTESIAN_POINT('',(-0.073861162567761,-0.0439939162608033,0.001));
#1359=CARTESIAN_POINT('',(-0.0709835380087015,-0.0439800369231285,0.001));
#1360=CARTESIAN_POINT('',(-0.0705060013307028,-0.0409296455650096,0.001));
#1361=CARTESIAN_POINT('',(-0.0702607184648514,-0.0393628366291523,0.001));
#1362=CARTESIAN_POINT('',(-0.0752607184648514,-0.0532245337963104,0.001));
#1363=CARTESIAN_POINT('',(-0.0752607184648514,-0.0532245337963104,0.));
#1364=CARTESIAN_POINT('',(-0.0752607184648514,-0.062448401004076,0.));
#1365=CARTESIAN_POINT('',(-0.0752607184648514,-0.062448401004076,0.001));
#1366=CARTESIAN_POINT('',(-0.0752607184648514,-0.062448401004076,0.001));
#1367=CARTESIAN_POINT('',(-0.0752607184648514,-0.0532245337963104,0.001));
#1368=CARTESIAN_POINT('',(-0.0752607184648514,-0.062448401004076,0.001));
#1369=CARTESIAN_POINT('',(-0.0752607184648514,-0.062448401004076,0.));
#1370=CARTESIAN_POINT('',(-0.0748964971080712,-0.062738346175977,0.001));
#1371=CARTESIAN_POINT('',(-0.0748964971080712,-0.062738346175977,0.));
#1372=CARTESIAN_POINT('',(-0.0741797004282102,-0.0633089654784739,0.001));
#1373=CARTESIAN_POINT('',(-0.0741797004282102,-0.0633089654784739,0.));
#1374=CARTESIAN_POINT('',(-0.0734809465622281,-0.0627773958576491,0.001));
#1375=CARTESIAN_POINT('',(-0.0734809465622281,-0.0627773958576491,0.));
#1376=CARTESIAN_POINT('',(-0.0731372460722923,-0.0625159293413162,0.001));
#1377=CARTESIAN_POINT('',(-0.0731372460722923,-0.0625159293413162,0.));
#1378=CARTESIAN_POINT('',(-0.0752607184648514,-0.062448401004076,0.));
#1379=CARTESIAN_POINT('',(-0.0748964971080712,-0.062738346175977,0.));
#1380=CARTESIAN_POINT('',(-0.0741797004282102,-0.0633089654784739,0.));
#1381=CARTESIAN_POINT('',(-0.0734809465622281,-0.0627773958576491,0.));
#1382=CARTESIAN_POINT('',(-0.0731372460722923,-0.0625159293413162,0.));
#1383=CARTESIAN_POINT('',(-0.0731372460722923,-0.0625159293413162,0.));
#1384=CARTESIAN_POINT('',(-0.0731372460722923,-0.0625159293413162,0.001));
#1385=CARTESIAN_POINT('',(-0.0731372460722923,-0.0625159293413162,0.001));
#1386=CARTESIAN_POINT('',(-0.0752607184648514,-0.062448401004076,0.001));
#1387=CARTESIAN_POINT('',(-0.0748964971080712,-0.062738346175977,0.001));
#1388=CARTESIAN_POINT('',(-0.0741797004282102,-0.0633089654784739,0.001));
#1389=CARTESIAN_POINT('',(-0.0734809465622281,-0.0627773958576491,0.001));
#1390=CARTESIAN_POINT('',(-0.0731372460722923,-0.0625159293413162,0.001));
#1391=CARTESIAN_POINT('',(-0.0731372460722923,-0.0625159293413162,0.001));
#1392=CARTESIAN_POINT('',(-0.0731372460722923,-0.0625159293413162,0.));
#1393=CARTESIAN_POINT('',(-0.0703601997357014,-0.0610051624260252,0.001));
#1394=CARTESIAN_POINT('',(-0.0703601997357014,-0.0610051624260252,0.));
#1395=CARTESIAN_POINT('',(-0.0647577672307785,-0.0579573307920818,0.001));
#1396=CARTESIAN_POINT('',(-0.0647577672307785,-0.0579573307920818,0.));
#1397=CARTESIAN_POINT('',(-0.0589706062790961,-0.0609876808362958,0.001));
#1398=CARTESIAN_POINT('',(-0.0589706062790961,-0.0609876808362958,0.));
#1399=CARTESIAN_POINT('',(-0.0560520589351654,-0.0625159293413162,0.001));
#1400=CARTESIAN_POINT('',(-0.0560520589351654,-0.0625159293413162,0.));
#1401=CARTESIAN_POINT('',(-0.0731372460722923,-0.0625159293413162,0.));
#1402=CARTESIAN_POINT('',(-0.0703601997357014,-0.0610051624260252,0.));
#1403=CARTESIAN_POINT('',(-0.0647577672307785,-0.0579573307920818,0.));
#1404=CARTESIAN_POINT('',(-0.0589706062790961,-0.0609876808362958,0.));
#1405=CARTESIAN_POINT('',(-0.0560520589351654,-0.0625159293413162,0.));
#1406=CARTESIAN_POINT('',(-0.0560520589351654,-0.0625159293413162,0.));
#1407=CARTESIAN_POINT('',(-0.0560520589351654,-0.0625159293413162,0.001));
#1408=CARTESIAN_POINT('',(-0.0560520589351654,-0.0625159293413162,0.001));
#1409=CARTESIAN_POINT('',(-0.0731372460722923,-0.0625159293413162,0.001));
#1410=CARTESIAN_POINT('',(-0.0703601997357014,-0.0610051624260252,0.001));
#1411=CARTESIAN_POINT('',(-0.0647577672307785,-0.0579573307920818,0.001));
#1412=CARTESIAN_POINT('',(-0.0589706062790961,-0.0609876808362958,0.001));
#1413=CARTESIAN_POINT('',(-0.0560520589351654,-0.0625159293413162,0.001));
#1414=CARTESIAN_POINT('',(-0.0542607184648514,-0.0625159293413162,0.001));
#1415=CARTESIAN_POINT('',(-0.0542607184648514,-0.0625159293413162,0.));
#1416=CARTESIAN_POINT('',(-0.0545377175935434,-0.062771277088608,0.001));
#1417=CARTESIAN_POINT('',(-0.0545377175935434,-0.062771277088608,0.));
#1418=CARTESIAN_POINT('',(-0.0551034924216279,-0.0632928286491055,0.001));
#1419=CARTESIAN_POINT('',(-0.0551034924216279,-0.0632928286491055,0.));
#1420=CARTESIAN_POINT('',(-0.0557315126952891,-0.062778464596694,0.001));
#1421=CARTESIAN_POINT('',(-0.0557315126952891,-0.062778464596694,0.));
#1422=CARTESIAN_POINT('',(-0.0560520589351654,-0.0625159293413162,0.001));
#1423=CARTESIAN_POINT('',(-0.0560520589351654,-0.0625159293413162,0.));
#1424=CARTESIAN_POINT('',(-0.0542607184648514,-0.0625159293413162,0.));
#1425=CARTESIAN_POINT('',(-0.0545377175935434,-0.062771277088608,0.));
#1426=CARTESIAN_POINT('',(-0.0551034924216279,-0.0632928286491055,0.));
#1427=CARTESIAN_POINT('',(-0.0557315126952891,-0.062778464596694,0.));
#1428=CARTESIAN_POINT('',(-0.0560520589351654,-0.0625159293413162,0.));
#1429=CARTESIAN_POINT('',(-0.0542607184648514,-0.0625159293413162,0.));
#1430=CARTESIAN_POINT('',(-0.0542607184648514,-0.0625159293413162,0.001));
#1431=CARTESIAN_POINT('',(-0.0542607184648514,-0.0625159293413162,0.001));
#1432=CARTESIAN_POINT('',(-0.0542607184648514,-0.0625159293413162,0.001));
#1433=CARTESIAN_POINT('',(-0.0545377175935434,-0.062771277088608,0.001));
#1434=CARTESIAN_POINT('',(-0.0551034924216279,-0.0632928286491055,0.001));
#1435=CARTESIAN_POINT('',(-0.0557315126952891,-0.062778464596694,0.001));
#1436=CARTESIAN_POINT('',(-0.0560520589351654,-0.0625159293413162,0.001));
#1437=CARTESIAN_POINT('',(-0.0542607184648514,-0.0532582979649305,0.001));
#1438=CARTESIAN_POINT('',(-0.0542607184648514,-0.0532582979649305,0.));
#1439=CARTESIAN_POINT('',(-0.0542607184648514,-0.0440006665885449,0.));
#1440=CARTESIAN_POINT('',(-0.0542607184648514,-0.0440006665885449,0.001));
#1441=CARTESIAN_POINT('',(-0.0542607184648514,-0.0440006665885449,0.001));
#1442=CARTESIAN_POINT('',(-0.0542607184648514,-0.0532582979649305,0.001));
#1443=CARTESIAN_POINT('',(-0.0542607184648514,-0.0440006665885449,0.001));
#1444=CARTESIAN_POINT('',(-0.0542607184648514,-0.0440006665885449,0.));
#1445=CARTESIAN_POINT('',(-0.0557186163163543,-0.0439738244192944,0.001));
#1446=CARTESIAN_POINT('',(-0.0557186163163543,-0.0439738244192944,0.));
#1447=CARTESIAN_POINT('',(-0.0586714678831776,-0.0439194578246481,0.001));
#1448=CARTESIAN_POINT('',(-0.0586714678831776,-0.0439194578246481,0.));
#1449=CARTESIAN_POINT('',(-0.0590626652025235,-0.0408943645071513,0.001));
#1450=CARTESIAN_POINT('',(-0.0590626652025235,-0.0408943645071513,0.));
#1451=CARTESIAN_POINT('',(-0.0592607184648514,-0.0393628366291523,0.001));
#1452=CARTESIAN_POINT('',(-0.0592607184648514,-0.0393628366291523,0.));
#1453=CARTESIAN_POINT('',(-0.0542607184648514,-0.0440006665885449,0.));
#1454=CARTESIAN_POINT('',(-0.0557186163163543,-0.0439738244192944,0.));
#1455=CARTESIAN_POINT('',(-0.0586714678831776,-0.0439194578246481,0.));
#1456=CARTESIAN_POINT('',(-0.0590626652025235,-0.0408943645071513,0.));
#1457=CARTESIAN_POINT('',(-0.0592607184648514,-0.0393628366291523,0.));
#1458=CARTESIAN_POINT('',(-0.0592607184648514,-0.0393628366291523,0.));
#1459=CARTESIAN_POINT('',(-0.0592607184648514,-0.0393628366291523,0.001));
#1460=CARTESIAN_POINT('',(-0.0592607184648514,-0.0393628366291523,0.001));
#1461=CARTESIAN_POINT('',(-0.0542607184648514,-0.0440006665885449,0.001));
#1462=CARTESIAN_POINT('',(-0.0557186163163543,-0.0439738244192944,0.001));
#1463=CARTESIAN_POINT('',(-0.0586714678831776,-0.0439194578246481,0.001));
#1464=CARTESIAN_POINT('',(-0.0590626652025235,-0.0408943645071513,0.001));
#1465=CARTESIAN_POINT('',(-0.0592607184648514,-0.0393628366291523,0.001));
#1466=CARTESIAN_POINT('',(-0.0592607184648514,0.0177879203110934,0.001));
#1467=CARTESIAN_POINT('',(-0.0592607184648514,0.0177879203110934,0.));
#1468=CARTESIAN_POINT('',(-0.0592607184648514,0.0177879203110934,0.001));
#1469=CARTESIAN_POINT('',(-0.0698541940266443,-0.0511732516451312,0.001));
#1470=CARTESIAN_POINT('',(-0.0698541940266443,-0.0511732516451312,0.));
#1471=CARTESIAN_POINT('',(-0.0719639806839549,-0.0531322807073593,0.001));
#1472=CARTESIAN_POINT('',(-0.0719639806839549,-0.0531322807073593,2.16840434497101E-19));
#1473=CARTESIAN_POINT('',(-0.0698541940266444,-0.0550913097695874,0.001));
#1474=CARTESIAN_POINT('',(-0.0698541940266444,-0.0550913097695874,0.));
#1475=CARTESIAN_POINT('',(-0.0647607184648514,-0.0559027661762453,0.001));
#1476=CARTESIAN_POINT('',(-0.0647607184648514,-0.0559027661762453,2.16840434497101E-19));
#1477=CARTESIAN_POINT('',(-0.0596672429030584,-0.0550913097695874,0.001));
#1478=CARTESIAN_POINT('',(-0.0596672429030584,-0.0550913097695874,0.));
#1479=CARTESIAN_POINT('',(-0.0575574562457479,-0.0531322807073593,0.001));
#1480=CARTESIAN_POINT('',(-0.0575574562457479,-0.0531322807073593,0.));
#1481=CARTESIAN_POINT('',(-0.0596672429030584,-0.0511732516451312,0.001));
#1482=CARTESIAN_POINT('',(-0.0596672429030584,-0.0511732516451312,2.16840434497101E-19));
#1483=CARTESIAN_POINT('',(-0.0647607184648514,-0.0503617952384733,0.001));
#1484=CARTESIAN_POINT('',(-0.0647607184648514,-0.0503617952384733,2.16840434497101E-19));
#1485=CARTESIAN_POINT('',(-0.0698541940266443,-0.0511732516451312,0.001));
#1486=CARTESIAN_POINT('',(-0.0698541940266443,-0.0511732516451312,0.));
#1487=CARTESIAN_POINT('',(-0.0719639806839549,-0.0531322807073593,0.001));
#1488=CARTESIAN_POINT('',(-0.0719639806839549,-0.0531322807073593,2.16840434497101E-19));
#1489=CARTESIAN_POINT('',(-0.0698541940266444,-0.0550913097695874,0.001));
#1490=CARTESIAN_POINT('',(-0.0698541940266444,-0.0550913097695874,0.));
#1491=CARTESIAN_POINT('',(-0.0647607184648514,-0.0531322807073593,0.001));
#1492=CARTESIAN_POINT('',(-0.0712607184648514,-0.0531322807073593,0.001));
#1493=CARTESIAN_POINT('',(-0.0647607184648514,-0.0531322807073593,0.));
#1494=CARTESIAN_POINT('',(-0.0712607184648514,-0.0531322807073593,0.));
#1495=CARTESIAN_POINT('',(-0.0647607184648514,0.00884688871344688,0.001));
#1496=CARTESIAN_POINT('',(-0.0647607184648514,0.00884688871344688,0.));
#1497=CARTESIAN_POINT('',(0.,0.,0.));
#1498=CARTESIAN_POINT('',(1.38777878078145E-17,0.,0.003));
#1499=CARTESIAN_POINT('',(1.17093834628434E-17,0.0075,0.003));
#1500=CARTESIAN_POINT('',(0.0275,0.0075,0.003));
#1501=CARTESIAN_POINT('',(0.0315,0.0075,0.003));
#1502=CARTESIAN_POINT('',(0.0315,0.,0.003));
#1503=CARTESIAN_POINT('',(0.0315,-0.0075,0.003));
#1504=CARTESIAN_POINT('',(0.028,-0.0075,0.003));
#1505=CARTESIAN_POINT('',(0.0275,-0.0075,0.003));
#1506=CARTESIAN_POINT('',(0.0275,0.007,0.003));
#1507=CARTESIAN_POINT('',(1.17093834628434E-17,0.0075,0.003));
#1508=CARTESIAN_POINT('',(-0.0315,0.0075,0.003));
#1509=CARTESIAN_POINT('',(-0.0275,0.0075,0.003));
#1510=CARTESIAN_POINT('',(-0.0275,0.,0.003));
#1511=CARTESIAN_POINT('',(-0.0275,-0.0075,0.003));
#1512=CARTESIAN_POINT('',(-0.031,-0.0075,0.003));
#1513=CARTESIAN_POINT('',(-0.0315,-0.0075,0.003));
#1514=CARTESIAN_POINT('',(-0.0315,0.007,0.003));
#1515=CARTESIAN_POINT('',(0.016,-0.025,0.003));
#1516=CARTESIAN_POINT('',(0.016,-0.01,0.003));
#1517=CARTESIAN_POINT('',(0.016,-0.04,0.003));
#1518=CARTESIAN_POINT('',(0.026,-0.01,0.003));
#1519=CARTESIAN_POINT('',(0.036,-0.01,0.003));
#1520=CARTESIAN_POINT('',(0.036,-3.46944695195361E-18,0.003));
#1521=CARTESIAN_POINT('',(0.036,0.01,0.003));
#1522=CARTESIAN_POINT('',(0.026,0.01,0.003));
#1523=CARTESIAN_POINT('',(0.016,0.01,0.003));
#1524=CARTESIAN_POINT('',(0.016,0.025,0.003));
#1525=CARTESIAN_POINT('',(0.016,0.04,0.003));
#1526=CARTESIAN_POINT('',(1.38777878078145E-17,0.04,0.003));
#1527=CARTESIAN_POINT('',(-0.016,0.04,0.003));
#1528=CARTESIAN_POINT('',(-0.016,0.025,0.003));
#1529=CARTESIAN_POINT('',(-0.016,0.01,0.003));
#1530=CARTESIAN_POINT('',(-0.026,0.01,0.003));
#1531=CARTESIAN_POINT('',(-0.036,0.01,0.003));
#1532=CARTESIAN_POINT('',(-0.036,5.20417042793042E-18,0.003));
#1533=CARTESIAN_POINT('',(-0.036,-0.01,0.003));
#1534=CARTESIAN_POINT('',(-0.026,-0.01,0.003));
#1535=CARTESIAN_POINT('',(-0.016,-0.01,0.003));
#1536=CARTESIAN_POINT('',(-0.016,-0.025,0.003));
#1537=CARTESIAN_POINT('',(-0.016,-0.04,0.003));
#1538=CARTESIAN_POINT('',(0.,-0.04,0.003));
#1539=CARTESIAN_POINT('',(-0.014,0.,0.003));
#1540=CARTESIAN_POINT('',(-0.014,0.038,0.003));
#1541=CARTESIAN_POINT('',(-0.014,-0.038,0.003));
#1542=CARTESIAN_POINT('',(8.67361737988404E-18,0.038,0.003));
#1543=CARTESIAN_POINT('',(0.014,0.038,0.003));
#1544=CARTESIAN_POINT('',(0.014,0.,0.003));
#1545=CARTESIAN_POINT('',(0.014,-0.038,0.003));
#1546=CARTESIAN_POINT('',(8.67361737988404E-18,-0.038,0.003));
#1547=CARTESIAN_POINT('',(1.38777878078145E-17,0.,0.002));
#1548=CARTESIAN_POINT('',(1.38777878078145E-17,-0.007,0.002));
#1549=CARTESIAN_POINT('',(0.014,-0.007,0.002));
#1550=CARTESIAN_POINT('',(0.0275,-0.007,0.002));
#1551=CARTESIAN_POINT('',(0.014,0.,0.002));
#1552=CARTESIAN_POINT('',(0.014,0.007,0.002));
#1553=CARTESIAN_POINT('',(1.38777878078145E-17,0.007,0.002));
#1554=CARTESIAN_POINT('',(0.0275,0.007,0.002));
#1555=CARTESIAN_POINT('',(0.0275,-0.007,0.002));
#1556=CARTESIAN_POINT('',(1.38777878078145E-17,0.,0.));
#1557=CARTESIAN_POINT('',(0.016,-0.025,0.));
#1558=CARTESIAN_POINT('',(0.016,-0.01,0.));
#1559=CARTESIAN_POINT('',(0.016,-0.04,0.));
#1560=CARTESIAN_POINT('',(0.,-0.04,0.));
#1561=CARTESIAN_POINT('',(-0.016,-0.04,0.));
#1562=CARTESIAN_POINT('',(-0.016,-0.025,0.));
#1563=CARTESIAN_POINT('',(-0.016,-0.01,0.));
#1564=CARTESIAN_POINT('',(-0.026,-0.01,0.));
#1565=CARTESIAN_POINT('',(-0.036,-0.01,0.));
#1566=CARTESIAN_POINT('',(-0.036,5.20417042793042E-18,0.));
#1567=CARTESIAN_POINT('',(-0.036,0.01,0.));
#1568=CARTESIAN_POINT('',(-0.026,0.01,0.));
#1569=CARTESIAN_POINT('',(-0.016,0.01,0.));
#1570=CARTESIAN_POINT('',(-0.016,0.025,0.));
#1571=CARTESIAN_POINT('',(-0.016,0.04,0.));
#1572=CARTESIAN_POINT('',(1.38777878078145E-17,0.04,0.));
#1573=CARTESIAN_POINT('',(0.016,0.04,0.));
#1574=CARTESIAN_POINT('',(0.016,0.025,0.));
#1575=CARTESIAN_POINT('',(0.016,0.01,0.));
#1576=CARTESIAN_POINT('',(0.026,0.01,0.));
#1577=CARTESIAN_POINT('',(0.036,0.01,0.));
#1578=CARTESIAN_POINT('',(0.036,-3.46944695195361E-18,0.));
#1579=CARTESIAN_POINT('',(0.036,-0.01,0.));
#1580=CARTESIAN_POINT('',(0.026,-0.01,0.));
#1581=CARTESIAN_POINT('',(-0.031,0.,0.));
#1582=CARTESIAN_POINT('',(-0.031,0.007,0.));
#1583=CARTESIAN_POINT('',(-0.031,-0.007,0.));
#1584=CARTESIAN_POINT('',(1.38777878078145E-17,-0.007,0.));
#1585=CARTESIAN_POINT('',(0.031,-0.007,0.));
#1586=CARTESIAN_POINT('',(0.031,0.,0.));
#1587=CARTESIAN_POINT('',(0.031,0.007,0.));
#1588=CARTESIAN_POINT('',(1.38777878078145E-17,0.007,0.));
#1589=CARTESIAN_POINT('',(0.016,-0.025,0.003));
#1590=CARTESIAN_POINT('',(0.016,-0.01,0.003));
#1591=CARTESIAN_POINT('',(0.016,-0.04,0.003));
#1592=CARTESIAN_POINT('',(0.026,-0.01,0.003));
#1593=CARTESIAN_POINT('',(0.036,-0.01,0.003));
#1594=CARTESIAN_POINT('',(0.036,-3.46944695195361E-18,0.003));
#1595=CARTESIAN_POINT('',(0.036,0.01,0.003));
#1596=CARTESIAN_POINT('',(0.026,0.01,0.003));
#1597=CARTESIAN_POINT('',(0.016,0.01,0.003));
#1598=CARTESIAN_POINT('',(0.016,0.025,0.003));
#1599=CARTESIAN_POINT('',(0.016,0.04,0.003));
#1600=CARTESIAN_POINT('',(1.38777878078145E-17,0.04,0.003));
#1601=CARTESIAN_POINT('',(-0.016,0.04,0.003));
#1602=CARTESIAN_POINT('',(-0.016,0.025,0.003));
#1603=CARTESIAN_POINT('',(-0.016,0.01,0.003));
#1604=CARTESIAN_POINT('',(-0.026,0.01,0.003));
#1605=CARTESIAN_POINT('',(-0.036,0.01,0.003));
#1606=CARTESIAN_POINT('',(-0.036,5.20417042793042E-18,0.003));
#1607=CARTESIAN_POINT('',(-0.036,-0.01,0.003));
#1608=CARTESIAN_POINT('',(-0.026,-0.01,0.003));
#1609=CARTESIAN_POINT('',(-0.016,-0.01,0.003));
#1610=CARTESIAN_POINT('',(-0.016,-0.025,0.003));
#1611=CARTESIAN_POINT('',(-0.016,-0.04,0.003));
#1612=CARTESIAN_POINT('',(0.,-0.04,0.003));
#1613=CARTESIAN_POINT('',(0.031,0.,-0.022));
#1614=CARTESIAN_POINT('',(0.031,-0.007,-0.022));
#1615=CARTESIAN_POINT('',(0.031,-0.007,0.0025));
#1616=CARTESIAN_POINT('',(0.031,0.,0.0025));
#1617=CARTESIAN_POINT('',(0.031,0.007,0.0025));
#1618=CARTESIAN_POINT('',(0.031,0.007,-0.022));
#1619=CARTESIAN_POINT('',(-0.0295,0.007,-0.022));
#1620=CARTESIAN_POINT('',(-0.014,0.007,-0.022));
#1621=CARTESIAN_POINT('',(-0.014,0.007,0.002));
#1622=CARTESIAN_POINT('',(-0.014,0.007,0.001));
#1623=CARTESIAN_POINT('',(1.38777878078145E-17,0.007,0.002));
#1624=CARTESIAN_POINT('',(-0.0275,0.007,0.002));
#1625=CARTESIAN_POINT('',(-0.028,0.007,0.0025));
#1626=CARTESIAN_POINT('',(-0.028,0.007,0.0025));
#1627=CARTESIAN_POINT('',(-0.0295,0.007,0.0025));
#1628=CARTESIAN_POINT('',(-0.031,0.007,0.0025));
#1629=CARTESIAN_POINT('',(-0.031,0.007,-0.022));
#1630=CARTESIAN_POINT('',(-0.0295,0.007,0.0025));
#1631=CARTESIAN_POINT('',(0.028,0.007,0.0025));
#1632=CARTESIAN_POINT('',(0.0275,0.007,0.002));
#1633=CARTESIAN_POINT('',(0.014,0.007,-0.022));
#1634=CARTESIAN_POINT('',(0.014,0.007,0.001));
#1635=CARTESIAN_POINT('',(-0.0295,0.007,0.001));
#1636=CARTESIAN_POINT('',(-0.031,4.33680868994202E-19,-0.022));
#1637=CARTESIAN_POINT('',(-0.031,-0.007,0.0025));
#1638=CARTESIAN_POINT('',(-0.031,-0.007,0.0025));
#1639=CARTESIAN_POINT('',(-0.031,-0.007,-0.022));
#1640=CARTESIAN_POINT('',(-0.0295,-0.007,-0.022));
#1641=CARTESIAN_POINT('',(1.38777878078145E-17,-0.007,0.002));
#1642=CARTESIAN_POINT('',(-0.0275,-0.007,0.002));
#1643=CARTESIAN_POINT('',(-0.014,-0.007,0.002));
#1644=CARTESIAN_POINT('',(-0.014,-0.007,-0.022));
#1645=CARTESIAN_POINT('',(-0.014,-0.007,0.001));
#1646=CARTESIAN_POINT('',(-0.0295,-0.007,0.001));
#1647=CARTESIAN_POINT('',(0.014,-0.007,0.001));
#1648=CARTESIAN_POINT('',(0.014,-0.007,-0.022));
#1649=CARTESIAN_POINT('',(-0.013,-0.007,-0.0385));
#1650=CARTESIAN_POINT('',(0.028,-0.007,0.0025));
#1651=CARTESIAN_POINT('',(0.031,-0.007,0.0025));
#1652=CARTESIAN_POINT('',(-0.028,-0.007,0.0025));
#1653=CARTESIAN_POINT('',(-0.028,-0.007,0.0025));
#1654=CARTESIAN_POINT('',(-0.0165,-0.007,-0.009));
#1655=CARTESIAN_POINT('',(1.38777878078145E-17,0.,0.002));
#1656=CARTESIAN_POINT('',(-0.014,0.,0.002));
#1657=CARTESIAN_POINT('',(-0.0275,0.,0.002));
#1658=CARTESIAN_POINT('',(0.0315,0.,0.003));
#1659=CARTESIAN_POINT('',(0.029,0.005,0.0005));
#1660=CARTESIAN_POINT('',(0.029,-0.005,0.00050000000000001));
#1661=CARTESIAN_POINT('',(-0.0295,-0.007,0.0025));
#1662=CARTESIAN_POINT('',(0.0303333333333334,-0.00466666666666667,0.000166666666666664));
#1663=CARTESIAN_POINT('',(1.17093834628434E-17,0.0075,0.003));
#1664=CARTESIAN_POINT('',(0.0183333333333334,0.0166666666666666,0.0121666666666667));
#1665=CARTESIAN_POINT('',(0.028,0.,0.0025));
#1666=CARTESIAN_POINT('',(0.028,-0.007,0.0025));
#1667=CARTESIAN_POINT('',(0.0275,0.,0.002));
#1668=CARTESIAN_POINT('',(-0.031,4.33680868994202E-19,0.0025));
#1669=CARTESIAN_POINT('',(-0.0286666666666667,-0.00466666666666668,0.000166666666666659));
#1670=CARTESIAN_POINT('',(-0.021,-0.00299999999999994,-0.0075));
#1671=CARTESIAN_POINT('',(1.17093834628434E-17,0.0075,0.003));
#1672=CARTESIAN_POINT('',(-0.03,0.005,0.000499999999999994));
#1673=CARTESIAN_POINT('',(-0.0295,-0.007,0.0025));
#1674=CARTESIAN_POINT('',(-0.03,-0.005,0.000499999999999994));
#1675=CARTESIAN_POINT('',(-0.0275,0.,0.003));
#1676=CARTESIAN_POINT('',(-0.028,4.33680868994202E-19,0.0025));
#1677=CARTESIAN_POINT('',(-0.028,4.33680868994202E-19,0.0025));
#1678=CARTESIAN_POINT('',(1.38777878078145E-17,0.,0.001));
#1679=CARTESIAN_POINT('',(-0.014,0.,0.001));
#1680=CARTESIAN_POINT('',(-0.014,-0.038,0.001));
#1681=CARTESIAN_POINT('',(8.67361737988404E-18,-0.038,0.001));
#1682=CARTESIAN_POINT('',(0.014,-0.038,0.001));
#1683=CARTESIAN_POINT('',(0.014,0.,0.001));
#1684=CARTESIAN_POINT('',(8.67361737988404E-18,0.038,0.001));
#1685=CARTESIAN_POINT('',(-0.014,0.038,0.001));
#1686=CARTESIAN_POINT('',(-0.014,0.038,0.001));
#1687=CARTESIAN_POINT('',(8.67361737988404E-18,0.038,0.001));
#1688=CARTESIAN_POINT('',(0.014,0.038,0.001));
#1689=CARTESIAN_POINT('',(0.014,0.038,0.001));
#1690=CARTESIAN_POINT('',(-0.014,0.,0.001));
#1691=CARTESIAN_POINT('',(-0.014,0.,0.001));
#1692=CARTESIAN_POINT('',(-0.014,-0.038,0.001));
#1693=CARTESIAN_POINT('',(8.67361737988404E-18,-0.038,0.001));
#1694=CARTESIAN_POINT('',(0.014,-0.038,0.001));
#1695=CARTESIAN_POINT('',(0.014,0.,0.001));
#1696=CARTESIAN_POINT('',(0.014,0.,0.001));
#1697=CARTESIAN_POINT('',(1.38777878078145E-17,0.,0.001));
#1698=MECHANICAL_DESIGN_GEOMETRIC_PRESENTATION_REPRESENTATION('',(#998),
#1700);
#1699=MECHANICAL_DESIGN_GEOMETRIC_PRESENTATION_REPRESENTATION('',(#999),
#1701);
#1700=(
GEOMETRIC_REPRESENTATION_CONTEXT(3)
GLOBAL_UNCERTAINTY_ASSIGNED_CONTEXT((#1702))
GLOBAL_UNIT_ASSIGNED_CONTEXT((#1708,#1706,#1704))
REPRESENTATION_CONTEXT('Part 2','TOP_LEVEL_ASSEMBLY_PART')
);
#1701=(
GEOMETRIC_REPRESENTATION_CONTEXT(3)
GLOBAL_UNCERTAINTY_ASSIGNED_CONTEXT((#1703))
GLOBAL_UNIT_ASSIGNED_CONTEXT((#1709,#1707,#1705))
REPRESENTATION_CONTEXT('Part 1','TOP_LEVEL_ASSEMBLY_PART')
);
#1702=UNCERTAINTY_MEASURE_WITH_UNIT(LENGTH_MEASURE(2.E-5),#1708,
'DISTANCE_ACCURACY_VALUE','Maximum Tolerance applied to model');
#1703=UNCERTAINTY_MEASURE_WITH_UNIT(LENGTH_MEASURE(1.E-8),#1709,
'DISTANCE_ACCURACY_VALUE','Maximum Tolerance applied to model');
#1704=(
NAMED_UNIT(*)
SI_UNIT($,.STERADIAN.)
SOLID_ANGLE_UNIT()
);
#1705=(
NAMED_UNIT(*)
SI_UNIT($,.STERADIAN.)
SOLID_ANGLE_UNIT()
);
#1706=(
NAMED_UNIT(*)
PLANE_ANGLE_UNIT()
SI_UNIT($,.RADIAN.)
);
#1707=(
NAMED_UNIT(*)
PLANE_ANGLE_UNIT()
SI_UNIT($,.RADIAN.)
);
#1708=(
LENGTH_UNIT()
NAMED_UNIT(*)
SI_UNIT($,.METRE.)
);
#1709=(
LENGTH_UNIT()
NAMED_UNIT(*)
SI_UNIT($,.METRE.)
);
#1710=PRODUCT_DEFINITION_SHAPE('','',#1712);
#1711=PRODUCT_DEFINITION_SHAPE('','',#1713);
#1712=PRODUCT_DEFINITION('','',#1716,#1714);
#1713=PRODUCT_DEFINITION('','',#1717,#1715);
#1714=PRODUCT_DEFINITION_CONTEXT('',#1728,'design');
#1715=PRODUCT_DEFINITION_CONTEXT('',#1729,'design');
#1716=PRODUCT_DEFINITION_FORMATION_WITH_SPECIFIED_SOURCE('','',#1720,
 .NOT_KNOWN.);
#1717=PRODUCT_DEFINITION_FORMATION_WITH_SPECIFIED_SOURCE('','',#1721,
 .NOT_KNOWN.);
#1718=PRODUCT_RELATED_PRODUCT_CATEGORY('','',(#1720));
#1719=PRODUCT_RELATED_PRODUCT_CATEGORY('','',(#1721));
#1720=PRODUCT('Part 2','Part 2','Part 2',(#1724));
#1721=PRODUCT('Part 1','Part 1','Part 1',(#1725));
#1722=PRODUCT_CATEGORY('','');
#1723=PRODUCT_CATEGORY('','');
#1724=PRODUCT_CONTEXT('',#1728,'mechanical');
#1725=PRODUCT_CONTEXT('',#1729,'mechanical');
#1726=APPLICATION_PROTOCOL_DEFINITION('international standard',
'ap242_managed_model_based_3d_engineering',2020,#1728);
#1727=APPLICATION_PROTOCOL_DEFINITION('international standard',
'ap242_managed_model_based_3d_engineering',2020,#1729);
#1728=APPLICATION_CONTEXT('managed model based 3d engineering');
#1729=APPLICATION_CONTEXT('managed model based 3d engineering');
ENDSEC;
END-ISO-10303-21;
