ISO-10303-21;
HEADER;
/* Generated by software containing ST-Developer
 * from STEP Tools, Inc. (www.steptools.com) 
 */
/* OPTION: using custom renumber hook */

FILE_DESCRIPTION(
/* description */ ('STEP AP242 Edition 2',
'CAx-IF Rec.Pracs.---Representation and Presentation of Product Manufa
cturing Information (PMI)---4.0---2014-10-13',
'CAx-IF Rec.Pracs.---3D Tessellated Geometry---0.4---2014-09-14','2;1',
'CAx-IF Rec.Pracs.---User Defined Attributes---1.5---2016-08-15'),
/* implementation_level */ '2;1');

FILE_NAME(
/* name */ 'Part Studio 1',
/* time_stamp */ '2026-08-18T14:28:11Z',
/* author */ (''),
/* organization */ (''),
/* preprocessor_version */ 'ST-DEVELOPER v20',
/* originating_system */ 'ONSHAPE BY PTC INC, 1.219',
/* authorisation */ '  ');

FILE_SCHEMA (('AP242_MANAGED_MODEL_BASED_3D_ENGINEERING_MIM_LF { 1 0 10303 442 3 1 4 }'));
ENDSEC;

DATA;
#10=SHAPE_REPRESENTATION_RELATIONSHIP('','',#364,#11);
#11=ADVANCED_BREP_SHAPE_REPRESENTATION('',(#362),#586);
#12=CYLINDRICAL_SURFACE('',#387,0.0008);
#13=CYLINDRICAL_SURFACE('',#388,0.001);
#14=CYLINDRICAL_SURFACE('',#389,0.00697707719525825);
#15=CYLINDRICAL_SURFACE('',#394,0.0008);
#16=CYLINDRICAL_SURFACE('',#395,0.0009);
#17=LINE('',#497,#50);
#18=LINE('',#500,#51);
#19=LINE('',#502,#52);
#20=LINE('',#504,#53);
#21=LINE('',#505,#54);
#22=LINE('',#508,#55);
#23=LINE('',#510,#56);
#24=LINE('',#512,#57);
#25=LINE('',#514,#58);
#26=LINE('',#517,#59);
#27=LINE('',#519,#60);
#28=LINE('',#521,#61);
#29=LINE('',#523,#62);
#30=LINE('',#526,#63);
#31=LINE('',#527,#64);
#32=LINE('',#529,#65);
#33=LINE('',#532,#66);
#34=LINE('',#533,#67);
#35=LINE('',#535,#68);
#36=LINE('',#536,#69);
#37=LINE('',#543,#70);
#38=LINE('',#545,#71);
#39=LINE('',#547,#72);
#40=LINE('',#553,#73);
#41=LINE('',#557,#74);
#42=LINE('',#559,#75);
#43=LINE('',#561,#76);
#44=LINE('',#569,#77);
#45=LINE('',#571,#78);
#46=LINE('',#576,#79);
#47=LINE('',#577,#80);
#48=LINE('',#579,#81);
#49=LINE('',#581,#82);
#50=VECTOR('',#404,1.);
#51=VECTOR('',#405,1.);
#52=VECTOR('',#406,1.);
#53=VECTOR('',#407,1.);
#54=VECTOR('',#408,1.);
#55=VECTOR('',#409,1.);
#56=VECTOR('',#410,1.);
#57=VECTOR('',#411,1.);
#58=VECTOR('',#414,1.);
#59=VECTOR('',#415,1.);
#60=VECTOR('',#416,1.);
#61=VECTOR('',#417,1.);
#62=VECTOR('',#420,1.);
#63=VECTOR('',#421,1.);
#64=VECTOR('',#422,1.);
#65=VECTOR('',#425,1.);
#66=VECTOR('',#426,1.);
#67=VECTOR('',#427,1.);
#68=VECTOR('',#430,1.);
#69=VECTOR('',#431,1.);
#70=VECTOR('',#440,1.);
#71=VECTOR('',#441,1.);
#72=VECTOR('',#442,1.);
#73=VECTOR('',#449,1.);
#74=VECTOR('',#452,1.);
#75=VECTOR('',#455,1.);
#76=VECTOR('',#456,1.);
#77=VECTOR('',#465,1.);
#78=VECTOR('',#468,1.);
#79=VECTOR('',#477,1.);
#80=VECTOR('',#478,1.);
#81=VECTOR('',#481,1.);
#82=VECTOR('',#484,1.);
#83=ORIENTED_EDGE('',*,*,#169,.F.);
#84=ORIENTED_EDGE('',*,*,#170,.F.);
#85=ORIENTED_EDGE('',*,*,#171,.T.);
#86=ORIENTED_EDGE('',*,*,#172,.T.);
#87=ORIENTED_EDGE('',*,*,#173,.T.);
#88=ORIENTED_EDGE('',*,*,#174,.T.);
#89=ORIENTED_EDGE('',*,*,#175,.F.);
#90=ORIENTED_EDGE('',*,*,#176,.T.);
#91=ORIENTED_EDGE('',*,*,#177,.T.);
#92=ORIENTED_EDGE('',*,*,#178,.F.);
#93=ORIENTED_EDGE('',*,*,#179,.F.);
#94=ORIENTED_EDGE('',*,*,#180,.T.);
#95=ORIENTED_EDGE('',*,*,#181,.T.);
#96=ORIENTED_EDGE('',*,*,#182,.F.);
#97=ORIENTED_EDGE('',*,*,#183,.F.);
#98=ORIENTED_EDGE('',*,*,#184,.T.);
#99=ORIENTED_EDGE('',*,*,#179,.T.);
#100=ORIENTED_EDGE('',*,*,#185,.T.);
#101=ORIENTED_EDGE('',*,*,#186,.F.);
#102=ORIENTED_EDGE('',*,*,#187,.T.);
#103=ORIENTED_EDGE('',*,*,#183,.T.);
#104=ORIENTED_EDGE('',*,*,#188,.T.);
#105=ORIENTED_EDGE('',*,*,#181,.F.);
#106=ORIENTED_EDGE('',*,*,#189,.T.);
#107=ORIENTED_EDGE('',*,*,#186,.T.);
#108=ORIENTED_EDGE('',*,*,#190,.F.);
#109=ORIENTED_EDGE('',*,*,#191,.T.);
#110=ORIENTED_EDGE('',*,*,#192,.T.);
#111=ORIENTED_EDGE('',*,*,#182,.T.);
#112=ORIENTED_EDGE('',*,*,#190,.T.);
#113=ORIENTED_EDGE('',*,*,#188,.F.);
#114=ORIENTED_EDGE('',*,*,#185,.F.);
#115=ORIENTED_EDGE('',*,*,#193,.F.);
#116=ORIENTED_EDGE('',*,*,#194,.T.);
#117=ORIENTED_EDGE('',*,*,#195,.T.);
#118=ORIENTED_EDGE('',*,*,#176,.F.);
#119=ORIENTED_EDGE('',*,*,#196,.F.);
#120=ORIENTED_EDGE('',*,*,#197,.F.);
#121=ORIENTED_EDGE('',*,*,#198,.F.);
#122=ORIENTED_EDGE('',*,*,#199,.T.);
#123=ORIENTED_EDGE('',*,*,#193,.T.);
#124=ORIENTED_EDGE('',*,*,#175,.T.);
#125=ORIENTED_EDGE('',*,*,#200,.F.);
#126=ORIENTED_EDGE('',*,*,#178,.T.);
#127=ORIENTED_EDGE('',*,*,#201,.F.);
#128=ORIENTED_EDGE('',*,*,#202,.F.);
#129=ORIENTED_EDGE('',*,*,#200,.T.);
#130=ORIENTED_EDGE('',*,*,#203,.F.);
#131=ORIENTED_EDGE('',*,*,#204,.F.);
#132=ORIENTED_EDGE('',*,*,#195,.F.);
#133=ORIENTED_EDGE('',*,*,#205,.T.);
#134=ORIENTED_EDGE('',*,*,#206,.T.);
#135=ORIENTED_EDGE('',*,*,#201,.T.);
#136=ORIENTED_EDGE('',*,*,#177,.F.);
#137=ORIENTED_EDGE('',*,*,#206,.F.);
#138=ORIENTED_EDGE('',*,*,#207,.T.);
#139=ORIENTED_EDGE('',*,*,#198,.T.);
#140=ORIENTED_EDGE('',*,*,#202,.T.);
#141=ORIENTED_EDGE('',*,*,#204,.T.);
#142=ORIENTED_EDGE('',*,*,#197,.T.);
#143=ORIENTED_EDGE('',*,*,#203,.T.);
#144=ORIENTED_EDGE('',*,*,#196,.T.);
#145=ORIENTED_EDGE('',*,*,#199,.F.);
#146=ORIENTED_EDGE('',*,*,#207,.F.);
#147=ORIENTED_EDGE('',*,*,#205,.F.);
#148=ORIENTED_EDGE('',*,*,#194,.F.);
#149=ORIENTED_EDGE('',*,*,#208,.F.);
#150=ORIENTED_EDGE('',*,*,#174,.F.);
#151=ORIENTED_EDGE('',*,*,#209,.F.);
#152=ORIENTED_EDGE('',*,*,#184,.F.);
#153=ORIENTED_EDGE('',*,*,#209,.T.);
#154=ORIENTED_EDGE('',*,*,#173,.F.);
#155=ORIENTED_EDGE('',*,*,#210,.F.);
#156=ORIENTED_EDGE('',*,*,#180,.F.);
#157=ORIENTED_EDGE('',*,*,#208,.T.);
#158=ORIENTED_EDGE('',*,*,#187,.F.);
#159=ORIENTED_EDGE('',*,*,#211,.F.);
#160=ORIENTED_EDGE('',*,*,#171,.F.);
#161=ORIENTED_EDGE('',*,*,#210,.T.);
#162=ORIENTED_EDGE('',*,*,#172,.F.);
#163=ORIENTED_EDGE('',*,*,#211,.T.);
#164=ORIENTED_EDGE('',*,*,#189,.F.);
#165=ORIENTED_EDGE('',*,*,#170,.T.);
#166=ORIENTED_EDGE('',*,*,#192,.F.);
#167=ORIENTED_EDGE('',*,*,#169,.T.);
#168=ORIENTED_EDGE('',*,*,#191,.F.);
#169=EDGE_CURVE('',#212,#212,#242,.T.);
#170=EDGE_CURVE('',#213,#213,#243,.T.);
#171=EDGE_CURVE('',#214,#215,#17,.T.);
#172=EDGE_CURVE('',#215,#216,#18,.T.);
#173=EDGE_CURVE('',#216,#217,#19,.T.);
#174=EDGE_CURVE('',#217,#214,#20,.T.);
#175=EDGE_CURVE('',#218,#219,#21,.T.);
#176=EDGE_CURVE('',#218,#220,#22,.T.);
#177=EDGE_CURVE('',#220,#221,#23,.T.);
#178=EDGE_CURVE('',#219,#221,#24,.T.);
#179=EDGE_CURVE('',#222,#223,#25,.T.);
#180=EDGE_CURVE('',#222,#224,#26,.T.);
#181=EDGE_CURVE('',#224,#225,#27,.T.);
#182=EDGE_CURVE('',#223,#225,#28,.T.);
#183=EDGE_CURVE('',#226,#227,#29,.T.);
#184=EDGE_CURVE('',#226,#222,#30,.T.);
#185=EDGE_CURVE('',#223,#227,#31,.T.);
#186=EDGE_CURVE('',#228,#229,#32,.T.);
#187=EDGE_CURVE('',#228,#226,#33,.T.);
#188=EDGE_CURVE('',#227,#229,#34,.T.);
#189=EDGE_CURVE('',#224,#228,#35,.T.);
#190=EDGE_CURVE('',#225,#229,#36,.T.);
#191=EDGE_CURVE('',#230,#230,#244,.T.);
#192=EDGE_CURVE('',#231,#231,#245,.T.);
#193=EDGE_CURVE('',#232,#218,#37,.T.);
#194=EDGE_CURVE('',#232,#233,#38,.T.);
#195=EDGE_CURVE('',#233,#220,#39,.T.);
#196=EDGE_CURVE('',#234,#234,#246,.T.);
#197=EDGE_CURVE('',#235,#235,#247,.T.);
#198=EDGE_CURVE('',#236,#237,#40,.T.);
#199=EDGE_CURVE('',#236,#232,#248,.F.);
#200=EDGE_CURVE('',#237,#219,#41,.T.);
#201=EDGE_CURVE('',#238,#221,#42,.T.);
#202=EDGE_CURVE('',#237,#238,#43,.T.);
#203=EDGE_CURVE('',#239,#239,#249,.T.);
#204=EDGE_CURVE('',#240,#240,#250,.T.);
#205=EDGE_CURVE('',#233,#241,#251,.T.);
#206=EDGE_CURVE('',#241,#238,#44,.T.);
#207=EDGE_CURVE('',#241,#236,#45,.F.);
#208=EDGE_CURVE('',#214,#226,#46,.T.);
#209=EDGE_CURVE('',#222,#217,#47,.T.);
#210=EDGE_CURVE('',#224,#216,#48,.F.);
#211=EDGE_CURVE('',#215,#228,#49,.T.);
#212=VERTEX_POINT('',#494);
#213=VERTEX_POINT('',#496);
#214=VERTEX_POINT('',#498);
#215=VERTEX_POINT('',#499);
#216=VERTEX_POINT('',#501);
#217=VERTEX_POINT('',#503);
#218=VERTEX_POINT('',#506);
#219=VERTEX_POINT('',#507);
#220=VERTEX_POINT('',#509);
#221=VERTEX_POINT('',#511);
#222=VERTEX_POINT('',#515);
#223=VERTEX_POINT('',#516);
#224=VERTEX_POINT('',#518);
#225=VERTEX_POINT('',#520);
#226=VERTEX_POINT('',#524);
#227=VERTEX_POINT('',#525);
#228=VERTEX_POINT('',#530);
#229=VERTEX_POINT('',#531);
#230=VERTEX_POINT('',#539);
#231=VERTEX_POINT('',#541);
#232=VERTEX_POINT('',#544);
#233=VERTEX_POINT('',#546);
#234=VERTEX_POINT('',#550);
#235=VERTEX_POINT('',#552);
#236=VERTEX_POINT('',#554);
#237=VERTEX_POINT('',#555);
#238=VERTEX_POINT('',#560);
#239=VERTEX_POINT('',#564);
#240=VERTEX_POINT('',#566);
#241=VERTEX_POINT('',#568);
#242=CIRCLE('',#367,0.0009);
#243=CIRCLE('',#368,0.0008);
#244=CIRCLE('',#374,0.0009);
#245=CIRCLE('',#375,0.0008);
#246=CIRCLE('',#378,0.001);
#247=CIRCLE('',#379,0.0008);
#248=CIRCLE('',#380,0.00697707719525825);
#249=CIRCLE('',#383,0.001);
#250=CIRCLE('',#384,0.0008);
#251=CIRCLE('',#385,0.00697707719525825);
#252=EDGE_LOOP('',(#83));
#253=EDGE_LOOP('',(#84));
#254=EDGE_LOOP('',(#85,#86,#87,#88));
#255=EDGE_LOOP('',(#89,#90,#91,#92));
#256=EDGE_LOOP('',(#93,#94,#95,#96));
#257=EDGE_LOOP('',(#97,#98,#99,#100));
#258=EDGE_LOOP('',(#101,#102,#103,#104));
#259=EDGE_LOOP('',(#105,#106,#107,#108));
#260=EDGE_LOOP('',(#109));
#261=EDGE_LOOP('',(#110));
#262=EDGE_LOOP('',(#111,#112,#113,#114));
#263=EDGE_LOOP('',(#115,#116,#117,#118));
#264=EDGE_LOOP('',(#119));
#265=EDGE_LOOP('',(#120));
#266=EDGE_LOOP('',(#121,#122,#123,#124,#125));
#267=EDGE_LOOP('',(#126,#127,#128,#129));
#268=EDGE_LOOP('',(#130));
#269=EDGE_LOOP('',(#131));
#270=EDGE_LOOP('',(#132,#133,#134,#135,#136));
#271=EDGE_LOOP('',(#137,#138,#139,#140));
#272=EDGE_LOOP('',(#141));
#273=EDGE_LOOP('',(#142));
#274=EDGE_LOOP('',(#143));
#275=EDGE_LOOP('',(#144));
#276=EDGE_LOOP('',(#145,#146,#147,#148));
#277=EDGE_LOOP('',(#149,#150,#151,#152));
#278=EDGE_LOOP('',(#153,#154,#155,#156));
#279=EDGE_LOOP('',(#157,#158,#159,#160));
#280=EDGE_LOOP('',(#161,#162,#163,#164));
#281=EDGE_LOOP('',(#165));
#282=EDGE_LOOP('',(#166));
#283=EDGE_LOOP('',(#167));
#284=EDGE_LOOP('',(#168));
#285=FACE_BOUND('',#252,.T.);
#286=FACE_BOUND('',#253,.T.);
#287=FACE_BOUND('',#254,.T.);
#288=FACE_BOUND('',#255,.T.);
#289=FACE_BOUND('',#256,.T.);
#290=FACE_BOUND('',#257,.T.);
#291=FACE_BOUND('',#258,.T.);
#292=FACE_BOUND('',#259,.T.);
#293=FACE_BOUND('',#260,.T.);
#294=FACE_BOUND('',#261,.T.);
#295=FACE_BOUND('',#262,.T.);
#296=FACE_BOUND('',#263,.T.);
#297=FACE_BOUND('',#264,.T.);
#298=FACE_BOUND('',#265,.T.);
#299=FACE_BOUND('',#266,.T.);
#300=FACE_BOUND('',#267,.T.);
#301=FACE_BOUND('',#268,.T.);
#302=FACE_BOUND('',#269,.T.);
#303=FACE_BOUND('',#270,.T.);
#304=FACE_BOUND('',#271,.T.);
#305=FACE_BOUND('',#272,.T.);
#306=FACE_BOUND('',#273,.T.);
#307=FACE_BOUND('',#274,.T.);
#308=FACE_BOUND('',#275,.T.);
#309=FACE_BOUND('',#276,.T.);
#310=FACE_BOUND('',#277,.T.);
#311=FACE_BOUND('',#278,.T.);
#312=FACE_BOUND('',#279,.T.);
#313=FACE_BOUND('',#280,.T.);
#314=FACE_BOUND('',#281,.T.);
#315=FACE_BOUND('',#282,.T.);
#316=FACE_BOUND('',#283,.T.);
#317=FACE_BOUND('',#284,.T.);
#318=PLANE('',#366);
#319=PLANE('',#369);
#320=PLANE('',#370);
#321=PLANE('',#371);
#322=PLANE('',#372);
#323=PLANE('',#373);
#324=PLANE('',#376);
#325=PLANE('',#377);
#326=PLANE('',#381);
#327=PLANE('',#382);
#328=PLANE('',#386);
#329=PLANE('',#390);
#330=PLANE('',#391);
#331=PLANE('',#392);
#332=PLANE('',#393);
#333=ADVANCED_FACE('',(#285,#286,#287,#288),#318,.T.);
#334=ADVANCED_FACE('',(#289),#319,.T.);
#335=ADVANCED_FACE('',(#290),#320,.F.);
#336=ADVANCED_FACE('',(#291),#321,.F.);
#337=ADVANCED_FACE('',(#292),#322,.T.);
#338=ADVANCED_FACE('',(#293,#294,#295),#323,.F.);
#339=ADVANCED_FACE('',(#296),#324,.T.);
#340=ADVANCED_FACE('',(#297,#298,#299),#325,.F.);
#341=ADVANCED_FACE('',(#300),#326,.F.);
#342=ADVANCED_FACE('',(#301,#302,#303),#327,.T.);
#343=ADVANCED_FACE('',(#304),#328,.T.);
#344=ADVANCED_FACE('',(#305,#306),#12,.F.);
#345=ADVANCED_FACE('',(#307,#308),#13,.F.);
#346=ADVANCED_FACE('',(#309),#14,.T.);
#347=ADVANCED_FACE('',(#310),#329,.T.);
#348=ADVANCED_FACE('',(#311),#330,.F.);
#349=ADVANCED_FACE('',(#312),#331,.T.);
#350=ADVANCED_FACE('',(#313),#332,.F.);
#351=ADVANCED_FACE('',(#314,#315),#15,.F.);
#352=ADVANCED_FACE('',(#316,#317),#16,.F.);
#353=CLOSED_SHELL('',(#333,#334,#335,#336,#337,#338,#339,#340,#341,#342,
#343,#344,#345,#346,#347,#348,#349,#350,#351,#352));
#354=STYLED_ITEM('',(#355),#362);
#355=PRESENTATION_STYLE_ASSIGNMENT((#356));
#356=SURFACE_STYLE_USAGE(.BOTH.,#357);
#357=SURFACE_SIDE_STYLE('',(#358));
#358=SURFACE_STYLE_FILL_AREA(#359);
#359=FILL_AREA_STYLE('',(#360));
#360=FILL_AREA_STYLE_COLOUR('',#361);
#361=COLOUR_RGB('',0.615686274509804,0.811764705882353,0.929411764705882);
#362=MANIFOLD_SOLID_BREP('Part 1',#353);
#363=SHAPE_DEFINITION_REPRESENTATION(#591,#364);
#364=SHAPE_REPRESENTATION('Part 1',(#365),#586);
#365=AXIS2_PLACEMENT_3D('',#491,#396,#397);
#366=AXIS2_PLACEMENT_3D('',#492,#398,#399);
#367=AXIS2_PLACEMENT_3D('',#493,#400,#401);
#368=AXIS2_PLACEMENT_3D('',#495,#402,#403);
#369=AXIS2_PLACEMENT_3D('',#513,#412,#413);
#370=AXIS2_PLACEMENT_3D('',#522,#418,#419);
#371=AXIS2_PLACEMENT_3D('',#528,#423,#424);
#372=AXIS2_PLACEMENT_3D('',#534,#428,#429);
#373=AXIS2_PLACEMENT_3D('',#537,#432,#433);
#374=AXIS2_PLACEMENT_3D('',#538,#434,#435);
#375=AXIS2_PLACEMENT_3D('',#540,#436,#437);
#376=AXIS2_PLACEMENT_3D('',#542,#438,#439);
#377=AXIS2_PLACEMENT_3D('',#548,#443,#444);
#378=AXIS2_PLACEMENT_3D('',#549,#445,#446);
#379=AXIS2_PLACEMENT_3D('',#551,#447,#448);
#380=AXIS2_PLACEMENT_3D('',#556,#450,#451);
#381=AXIS2_PLACEMENT_3D('',#558,#453,#454);
#382=AXIS2_PLACEMENT_3D('',#562,#457,#458);
#383=AXIS2_PLACEMENT_3D('',#563,#459,#460);
#384=AXIS2_PLACEMENT_3D('',#565,#461,#462);
#385=AXIS2_PLACEMENT_3D('',#567,#463,#464);
#386=AXIS2_PLACEMENT_3D('',#570,#466,#467);
#387=AXIS2_PLACEMENT_3D('',#572,#469,#470);
#388=AXIS2_PLACEMENT_3D('',#573,#471,#472);
#389=AXIS2_PLACEMENT_3D('',#574,#473,#474);
#390=AXIS2_PLACEMENT_3D('',#575,#475,#476);
#391=AXIS2_PLACEMENT_3D('',#578,#479,#480);
#392=AXIS2_PLACEMENT_3D('',#580,#482,#483);
#393=AXIS2_PLACEMENT_3D('',#582,#485,#486);
#394=AXIS2_PLACEMENT_3D('',#583,#487,#488);
#395=AXIS2_PLACEMENT_3D('',#584,#489,#490);
#396=DIRECTION('',(0.,0.,1.));
#397=DIRECTION('',(1.,0.,0.));
#398=DIRECTION('',(0.,0.,1.));
#399=DIRECTION('',(1.,0.,0.));
#400=DIRECTION('',(0.,0.,1.));
#401=DIRECTION('',(1.,0.,0.));
#402=DIRECTION('',(0.,0.,1.));
#403=DIRECTION('',(1.,0.,0.));
#404=DIRECTION('',(-1.,0.,0.));
#405=DIRECTION('',(2.31296463463574E-16,-1.,0.));
#406=DIRECTION('',(1.,0.,0.));
#407=DIRECTION('',(0.,1.,0.));
#408=DIRECTION('',(-1.23908819712629E-16,-1.,0.));
#409=DIRECTION('',(1.,0.,0.));
#410=DIRECTION('',(-1.23908819712629E-16,-1.,0.));
#411=DIRECTION('',(1.,0.,0.));
#412=DIRECTION('',(0.,-1.,0.));
#413=DIRECTION('',(0.,0.,-1.));
#414=DIRECTION('',(0.,0.,-1.));
#415=DIRECTION('',(-1.,0.,0.));
#416=DIRECTION('',(0.,0.,-1.));
#417=DIRECTION('',(-1.,0.,0.));
#418=DIRECTION('',(-1.,0.,0.));
#419=DIRECTION('',(0.,0.,1.));
#420=DIRECTION('',(0.,0.,-1.));
#421=DIRECTION('',(0.,-1.,0.));
#422=DIRECTION('',(0.,1.,0.));
#423=DIRECTION('',(0.,-1.,0.));
#424=DIRECTION('',(0.,0.,-1.));
#425=DIRECTION('',(0.,0.,-1.));
#426=DIRECTION('',(1.,0.,0.));
#427=DIRECTION('',(-1.,0.,0.));
#428=DIRECTION('',(-1.,-2.31296463463574E-16,0.));
#429=DIRECTION('',(2.31296463463574E-16,-1.,0.));
#430=DIRECTION('',(-2.31296463463574E-16,1.,0.));
#431=DIRECTION('',(-2.31296463463574E-16,1.,0.));
#432=DIRECTION('',(0.,0.,1.));
#433=DIRECTION('',(1.,0.,0.));
#434=DIRECTION('',(0.,0.,1.));
#435=DIRECTION('',(1.,0.,0.));
#436=DIRECTION('',(0.,0.,1.));
#437=DIRECTION('',(1.,0.,0.));
#438=DIRECTION('',(0.,1.,0.));
#439=DIRECTION('',(0.,0.,1.));
#440=DIRECTION('',(0.,0.,-1.));
#441=DIRECTION('',(1.,0.,0.));
#442=DIRECTION('',(0.,0.,-1.));
#443=DIRECTION('',(1.,-1.23908819712629E-16,0.));
#444=DIRECTION('',(1.23908819712629E-16,1.,0.));
#445=DIRECTION('',(-1.,1.23908819712629E-16,0.));
#446=DIRECTION('',(-1.23908819712629E-16,-1.,0.));
#447=DIRECTION('',(-1.,1.23908819712629E-16,0.));
#448=DIRECTION('',(-1.23908819712629E-16,-1.,0.));
#449=DIRECTION('',(-1.23908819712629E-16,-1.,0.));
#450=DIRECTION('',(1.,-1.23908819712629E-16,0.));
#451=DIRECTION('',(1.23908819712629E-16,1.,0.));
#452=DIRECTION('',(0.,0.,-1.));
#453=DIRECTION('',(0.,1.,0.));
#454=DIRECTION('',(0.,0.,1.));
#455=DIRECTION('',(0.,0.,-1.));
#456=DIRECTION('',(1.,0.,0.));
#457=DIRECTION('',(1.,-1.23908819712629E-16,0.));
#458=DIRECTION('',(1.23908819712629E-16,1.,0.));
#459=DIRECTION('',(1.,-1.23908819712629E-16,0.));
#460=DIRECTION('',(1.23908819712629E-16,1.,0.));
#461=DIRECTION('',(1.,-1.23908819712629E-16,0.));
#462=DIRECTION('',(1.23908819712629E-16,1.,0.));
#463=DIRECTION('',(1.,-1.23908819712629E-16,0.));
#464=DIRECTION('',(1.23908819712629E-16,1.,0.));
#465=DIRECTION('',(-1.23908819712629E-16,-1.,0.));
#466=DIRECTION('',(0.,0.,1.));
#467=DIRECTION('',(1.,0.,0.));
#468=DIRECTION('',(1.,0.,0.));
#469=DIRECTION('',(-1.,1.23908819712629E-16,0.));
#470=DIRECTION('',(-1.23908819712629E-16,-1.,0.));
#471=DIRECTION('',(-1.,1.23908819712629E-16,0.));
#472=DIRECTION('',(-1.23908819712629E-16,-1.,0.));
#473=DIRECTION('',(1.,0.,0.));
#474=DIRECTION('',(0.,0.,-1.));
#475=DIRECTION('',(0.707106781186547,0.,0.707106781186548));
#476=DIRECTION('',(0.,-1.,0.));
#477=DIRECTION('',(0.577350269189626,0.577350269189626,-0.577350269189626));
#478=DIRECTION('',(-0.577350269189626,0.577350269189626,0.577350269189626));
#479=DIRECTION('',(0.,0.707106781186547,-0.707106781186548));
#480=DIRECTION('',(-1.,0.,0.));
#481=DIRECTION('',(-0.577350269189626,-0.577350269189626,-0.577350269189626));
#482=DIRECTION('',(0.,0.707106781186547,0.707106781186548));
#483=DIRECTION('',(1.,0.,0.));
#484=DIRECTION('',(-0.577350269189626,0.577350269189626,-0.577350269189625));
#485=DIRECTION('',(0.707106781186547,1.6355129777956E-16,-0.707106781186548));
#486=DIRECTION('',(-2.31296463463574E-16,1.,0.));
#487=DIRECTION('',(0.,0.,1.));
#488=DIRECTION('',(1.,0.,0.));
#489=DIRECTION('',(0.,0.,1.));
#490=DIRECTION('',(1.,0.,0.));
#491=CARTESIAN_POINT('',(0.,0.,0.));
#492=CARTESIAN_POINT('',(-0.006,0.0075,0.002));
#493=CARTESIAN_POINT('',(-0.00606955384257481,0.0127609152482247,0.002));
#494=CARTESIAN_POINT('',(-0.00516955384257481,0.0127609152482247,0.002));
#495=CARTESIAN_POINT('',(-0.00629142596843984,0.00201175016111471,0.002));
#496=CARTESIAN_POINT('',(-0.00549142596843984,0.00201175016111471,0.002));
#497=CARTESIAN_POINT('',(-0.012,0.0145,0.002));
#498=CARTESIAN_POINT('',(-0.0005,0.0145,0.002));
#499=CARTESIAN_POINT('',(-0.0115,0.0145,0.002));
#500=CARTESIAN_POINT('',(-0.0115,0.0075,0.002));
#501=CARTESIAN_POINT('',(-0.0115,0.0005,0.002));
#502=CARTESIAN_POINT('',(-0.006,0.0005,0.002));
#503=CARTESIAN_POINT('',(-0.0005,0.0005,0.002));
#504=CARTESIAN_POINT('',(-0.0005,0.015,0.002));
#505=CARTESIAN_POINT('',(-0.007,0.0075,0.002));
#506=CARTESIAN_POINT('',(-0.007,0.011,0.002));
#507=CARTESIAN_POINT('',(-0.007,0.004,0.002));
#508=CARTESIAN_POINT('',(-0.006,0.011,0.002));
#509=CARTESIAN_POINT('',(-0.005,0.011,0.002));
#510=CARTESIAN_POINT('',(-0.005,0.0075,0.002));
#511=CARTESIAN_POINT('',(-0.005,0.004,0.002));
#512=CARTESIAN_POINT('',(-0.006,0.004,0.002));
#513=CARTESIAN_POINT('',(-0.006,0.,0.002));
#514=CARTESIAN_POINT('',(0.,0.,0.002));
#515=CARTESIAN_POINT('',(0.,0.,0.0015));
#516=CARTESIAN_POINT('',(0.,0.,0.));
#517=CARTESIAN_POINT('',(-0.006,0.,0.0015));
#518=CARTESIAN_POINT('',(-0.012,0.,0.0015));
#519=CARTESIAN_POINT('',(-0.012,0.,0.002));
#520=CARTESIAN_POINT('',(-0.012,0.,0.));
#521=CARTESIAN_POINT('',(-0.006,0.,0.));
#522=CARTESIAN_POINT('',(0.,0.0075,0.002));
#523=CARTESIAN_POINT('',(-2.60208521396521E-18,0.015,0.002));
#524=CARTESIAN_POINT('',(-2.60208521396521E-18,0.015,0.0015));
#525=CARTESIAN_POINT('',(-2.60208521396521E-18,0.015,0.));
#526=CARTESIAN_POINT('',(0.,0.,0.0015));
#527=CARTESIAN_POINT('',(0.,0.0075,0.));
#528=CARTESIAN_POINT('',(-0.006,0.015,0.002));
#529=CARTESIAN_POINT('',(-0.012,0.015,0.002));
#530=CARTESIAN_POINT('',(-0.012,0.015,0.0015));
#531=CARTESIAN_POINT('',(-0.012,0.015,0.));
#532=CARTESIAN_POINT('',(-2.60208521396521E-18,0.015,0.0015));
#533=CARTESIAN_POINT('',(-0.006,0.015,0.));
#534=CARTESIAN_POINT('',(-0.012,0.0075,0.002));
#535=CARTESIAN_POINT('',(-0.012,0.0075,0.0015));
#536=CARTESIAN_POINT('',(-0.012,0.0075,0.));
#537=CARTESIAN_POINT('',(-0.006,0.0075,0.));
#538=CARTESIAN_POINT('',(-0.00606955384257481,0.0127609152482247,0.));
#539=CARTESIAN_POINT('',(-0.00516955384257481,0.0127609152482247,0.));
#540=CARTESIAN_POINT('',(-0.00629142596843984,0.00201175016111471,0.));
#541=CARTESIAN_POINT('',(-0.00549142596843984,0.00201175016111471,0.));
#542=CARTESIAN_POINT('',(-0.006,0.011,0.018));
#543=CARTESIAN_POINT('',(-0.007,0.011,0.018));
#544=CARTESIAN_POINT('',(-0.007,0.011,0.0110229228047418));
#545=CARTESIAN_POINT('',(-0.006,0.011,0.0110229228047418));
#546=CARTESIAN_POINT('',(-0.005,0.011,0.0110229228047418));
#547=CARTESIAN_POINT('',(-0.005,0.011,0.018));
#548=CARTESIAN_POINT('',(-0.007,0.0075,0.018));
#549=CARTESIAN_POINT('',(-0.007,0.00529930538211351,0.012644670842834));
#550=CARTESIAN_POINT('',(-0.007,0.00429930538211351,0.012644670842834));
#551=CARTESIAN_POINT('',(-0.007,0.00527799812411159,0.0159446020543529));
#552=CARTESIAN_POINT('',(-0.007,0.00447799812411159,0.0159446020543529));
#553=CARTESIAN_POINT('',(-0.007,0.0075,0.018));
#554=CARTESIAN_POINT('',(-0.007,0.00402292280474175,0.018));
#555=CARTESIAN_POINT('',(-0.007,0.004,0.018));
#556=CARTESIAN_POINT('',(-0.007,0.00402292280474175,0.0110229228047418));
#557=CARTESIAN_POINT('',(-0.007,0.004,0.018));
#558=CARTESIAN_POINT('',(-0.006,0.004,0.018));
#559=CARTESIAN_POINT('',(-0.005,0.004,0.018));
#560=CARTESIAN_POINT('',(-0.005,0.004,0.018));
#561=CARTESIAN_POINT('',(-0.006,0.004,0.018));
#562=CARTESIAN_POINT('',(-0.005,0.0075,0.018));
#563=CARTESIAN_POINT('',(-0.005,0.00529930538211351,0.012644670842834));
#564=CARTESIAN_POINT('',(-0.005,0.00629930538211351,0.012644670842834));
#565=CARTESIAN_POINT('',(-0.005,0.00527799812411159,0.0159446020543529));
#566=CARTESIAN_POINT('',(-0.005,0.00607799812411159,0.0159446020543529));
#567=CARTESIAN_POINT('',(-0.005,0.00402292280474175,0.0110229228047418));
#568=CARTESIAN_POINT('',(-0.005,0.00402292280474175,0.018));
#569=CARTESIAN_POINT('',(-0.005,0.0075,0.018));
#570=CARTESIAN_POINT('',(-0.006,0.0075,0.018));
#571=CARTESIAN_POINT('',(-0.006,0.00402292280474175,0.018));
#572=CARTESIAN_POINT('',(0.018,0.00527799812411158,0.0159446020543529));
#573=CARTESIAN_POINT('',(0.018,0.00529930538211351,0.012644670842834));
#574=CARTESIAN_POINT('',(-0.006,0.00402292280474175,0.0110229228047418));
#575=CARTESIAN_POINT('',(-0.0005,0.0075,0.002));
#576=CARTESIAN_POINT('',(-0.00233333333333333,0.0126666666666667,0.00383333333333333));
#577=CARTESIAN_POINT('',(-0.00283333333333333,0.00283333333333333,0.00433333333333334));
#578=CARTESIAN_POINT('',(-0.006,0.,0.0015));
#579=CARTESIAN_POINT('',(-0.01,0.002,0.0035));
#580=CARTESIAN_POINT('',(-0.006,0.0145,0.002));
#581=CARTESIAN_POINT('',(-0.00966666666666667,0.0126666666666667,0.00383333333333333));
#582=CARTESIAN_POINT('',(-0.012,0.0075,0.0015));
#583=CARTESIAN_POINT('',(-0.00629142596843984,0.00201175016111471,-0.023));
#584=CARTESIAN_POINT('',(-0.00606955384257481,0.0127609152482247,-0.023));
#585=MECHANICAL_DESIGN_GEOMETRIC_PRESENTATION_REPRESENTATION('',(#354),
#586);
#586=(
GEOMETRIC_REPRESENTATION_CONTEXT(3)
GLOBAL_UNCERTAINTY_ASSIGNED_CONTEXT((#587))
GLOBAL_UNIT_ASSIGNED_CONTEXT((#590,#589,#588))
REPRESENTATION_CONTEXT('Part 1','TOP_LEVEL_ASSEMBLY_PART')
);
#587=UNCERTAINTY_MEASURE_WITH_UNIT(LENGTH_MEASURE(1.E-8),#590,
'DISTANCE_ACCURACY_VALUE','Maximum Tolerance applied to model');
#588=(
NAMED_UNIT(*)
SI_UNIT($,.STERADIAN.)
SOLID_ANGLE_UNIT()
);
#589=(
NAMED_UNIT(*)
PLANE_ANGLE_UNIT()
SI_UNIT($,.RADIAN.)
);
#590=(
LENGTH_UNIT()
NAMED_UNIT(*)
SI_UNIT($,.METRE.)
);
#591=PRODUCT_DEFINITION_SHAPE('','',#592);
#592=PRODUCT_DEFINITION('','',#594,#593);
#593=PRODUCT_DEFINITION_CONTEXT('',#600,'design');
#594=PRODUCT_DEFINITION_FORMATION_WITH_SPECIFIED_SOURCE('','',#596,
 .NOT_KNOWN.);
#595=PRODUCT_RELATED_PRODUCT_CATEGORY('','',(#596));
#596=PRODUCT('Part 1','Part 1','Part 1',(#598));
#597=PRODUCT_CATEGORY('','');
#598=PRODUCT_CONTEXT('',#600,'mechanical');
#599=APPLICATION_PROTOCOL_DEFINITION('international standard',
'ap242_managed_model_based_3d_engineering',2020,#600);
#600=APPLICATION_CONTEXT('managed model based 3d engineering');
ENDSEC;
END-ISO-10303-21;
