ISO-10303-21;
HEADER;
/* Generated by software containing ST-Developer
 * from STEP Tools, Inc. (www.steptools.com) 
 */
/* OPTION: using custom renumber hook */

FILE_DESCRIPTION(
/* description */ ('STEP AP242 Edition 2',
'CAx-IF Rec.Pracs.---Representation and Presentation of Product Manufa
cturing Information (PMI)---4.0---2014-10-13',
'CAx-IF Rec.Pracs.---3D Tessellated Geometry---0.4---2014-09-14','2;1',
'CAx-IF Rec.Pracs.---User Defined Attributes---1.5---2016-08-15'),
/* implementation_level */ '2;1');

FILE_NAME(
/* name */ 'Wing Rib',
/* time_stamp */ '2026-08-18T14:32:05Z',
/* author */ (''),
/* organization */ (''),
/* preprocessor_version */ 'ST-DEVELOPER v20',
/* originating_system */ 'ONSHAPE BY PTC INC, 1.219',
/* authorisation */ '  ');

FILE_SCHEMA (('AP242_MANAGED_MODEL_BASED_3D_ENGINEERING_MIM_LF { 1 0 10303 442 3 1 4 }'));
ENDSEC;

DATA;
#10=SHAPE_REPRESENTATION_RELATIONSHIP('','',#411,#11);
#11=ADVANCED_BREP_SHAPE_REPRESENTATION('',(#409),#1229);
#12=B_SPLINE_SURFACE_WITH_KNOTS('',3,1,((#870,#871),(#872,#873),(#874,#875),
(#876,#877),(#878,#879),(#880,#881),(#882,#883),(#884,#885),(#886,#887),
(#888,#889),(#890,#891),(#892,#893),(#894,#895),(#896,#897),(#898,#899),
(#900,#901),(#902,#903),(#904,#905),(#906,#907),(#908,#909),(#910,#911),
(#912,#913),(#914,#915),(#916,#917),(#918,#919),(#920,#921),(#922,#923),
(#924,#925),(#926,#927),(#928,#929),(#930,#931),(#932,#933),(#934,#935),
(#936,#937),(#938,#939),(#940,#941),(#942,#943),(#944,#945),(#946,#947),
(#948,#949),(#950,#951),(#952,#953),(#954,#955),(#956,#957),(#958,#959),
(#960,#961),(#962,#963),(#964,#965),(#966,#967),(#968,#969),(#970,#971),
(#972,#973),(#974,#975),(#976,#977),(#978,#979),(#980,#981),(#982,#983),
(#984,#985),(#986,#987),(#988,#989),(#990,#991),(#992,#993),(#994,#995),
(#996,#997),(#998,#999),(#1000,#1001),(#1002,#1003),(#1004,#1005),(#1006,
#1007),(#1008,#1009),(#1010,#1011),(#1012,#1013),(#1014,#1015),(#1016,#1017),
(#1018,#1019),(#1020,#1021),(#1022,#1023),(#1024,#1025),(#1026,#1027),(#1028,
#1029),(#1030,#1031),(#1032,#1033),(#1034,#1035),(#1036,#1037),(#1038,#1039),
(#1040,#1041),(#1042,#1043),(#1044,#1045),(#1046,#1047),(#1048,#1049),(#1050,
#1051),(#1052,#1053),(#1054,#1055),(#1056,#1057),(#1058,#1059),(#1060,#1061),
(#1062,#1063),(#1064,#1065),(#1066,#1067),(#1068,#1069),(#1070,#1071),(#1072,
#1073),(#1074,#1075),(#1076,#1077),(#1078,#1079),(#1080,#1081),(#1082,#1083),
(#1084,#1085),(#1086,#1087),(#1088,#1089),(#1090,#1091),(#1092,#1093),(#1094,
#1095),(#1096,#1097),(#1098,#1099),(#1100,#1101),(#1102,#1103),(#1104,#1105),
(#1106,#1107),(#1108,#1109),(#1110,#1111),(#1112,#1113),(#1114,#1115)),
 .SURF_OF_LINEAR_EXTRUSION.,.F.,.F.,.F.,(4,1,1,1,1,1,1,1,1,1,1,1,1,1,1,
1,1,1,1,1,1,1,1,1,1,1,1,1,1,1,1,1,1,1,1,1,1,1,1,1,1,1,1,1,1,1,1,1,1,1,1,
1,1,1,1,1,1,1,1,1,1,1,1,1,1,1,1,1,1,1,1,1,1,1,1,1,1,1,1,1,1,1,1,1,1,1,1,
1,1,1,1,1,1,1,1,1,1,1,1,1,1,1,1,1,1,1,1,1,1,1,1,1,1,1,1,1,1,1,1,1,4),(2,
2),(0.,0.00662008440621967,0.0132397830109718,0.0198586533094328,0.0264762806138721,
0.0358313082324122,0.0451808275209661,0.054525166383879,0.0638646539890935,
0.0731993297195704,0.0825291374168046,0.0918540423249184,0.101174034987534,
0.110489130244874,0.119799406998479,0.129104958344899,0.138405886822343,
0.147702315083509,0.156994319556387,0.166281735563295,0.175564371453166,
0.184842091235609,0.194114831184121,0.203382609834574,0.212645700454919,
0.221904444047859,0.231159200697285,0.240410323580501,0.249658147656235,
0.25890287816828,0.268144745707214,0.277384102495985,0.286621424917588,
0.295857338864118,0.305092609942755,0.314327898224617,0.323563704331657,
0.332800384691047,0.342038250063359,0.351278313157513,0.360522571790247,
0.369774171732381,0.379037773711399,0.388319559561657,0.397624596774911,
0.406956937230669,0.416323181598705,0.425735672593733,0.435210346744122,
0.444768142788087,0.451604192455954,0.458529627554409,0.46559839571582,
0.472925517417002,0.479767177434879,0.484716661914572,0.489882110533902,
0.493858127042893,0.496992493277148,0.499500838709983,0.502694568152991,
0.507169924252442,0.509583969174819,0.512590840123485,0.516376770517973,
0.521219355887842,0.525752500316359,0.53182724492937,0.538444645125689,
0.545034016860023,0.551601891034824,0.558151215554953,0.567396643285887,
0.576636722257102,0.58587390188088,0.595109552006113,0.604344760127165,
0.613580211065155,0.622816266364452,0.632053040282919,0.641290511208985,
0.650528558891384,0.659766983272747,0.669005537251204,0.678244001369802,
0.687482358074989,0.696720644451084,0.705958895541084,0.715197147468869,
0.724435427949849,0.733673737962802,0.742912065762611,0.752150403749127,
0.761388741735644,0.770627071232087,0.779865393097305,0.789103709880218,
0.798342024969951,0.807580339213266,0.816818655996179,0.826056974472734,
0.835295293796282,0.844533614814161,0.853771934984818,0.863010255155474,
0.872248574479022,0.881486893802569,0.890725213126117,0.899963532449665,
0.909201851773213,0.918440171096761,0.927678490420309,0.936916809743857,
0.946155129067405,0.955393448390952,0.9646317677145,0.973870087038048,0.980402564679581,
0.986935042321113,0.993467521160557,1.),(0.,1.),.UNSPECIFIED.);
#13=B_SPLINE_SURFACE_WITH_KNOTS('',3,1,((#1116,#1117),(#1118,#1119),(#1120,
#1121),(#1122,#1123),(#1124,#1125)),.SURF_OF_LINEAR_EXTRUSION.,.F.,.F.,
 .F.,(4,1,4),(2,2),(0.,0.501849418397174,1.),(0.,1.),.UNSPECIFIED.);
#14=B_SPLINE_SURFACE_WITH_KNOTS('',3,1,((#1132,#1133),(#1134,#1135),(#1136,
#1137),(#1138,#1139),(#1140,#1141)),.SURF_OF_LINEAR_EXTRUSION.,.F.,.F.,
 .F.,(4,1,4),(2,2),(0.,0.517242979394382,1.),(0.,1.),.UNSPECIFIED.);
#15=B_SPLINE_SURFACE_WITH_KNOTS('',3,1,((#1145,#1146),(#1147,#1148),(#1149,
#1150),(#1151,#1152),(#1153,#1154)),.SURF_OF_LINEAR_EXTRUSION.,.F.,.F.,
 .F.,(4,1,4),(2,2),(0.,0.498451813580902,1.),(0.,1.),.UNSPECIFIED.);
#16=B_SPLINE_SURFACE_WITH_KNOTS('',3,1,((#1158,#1159),(#1160,#1161),(#1162,
#1163),(#1164,#1165),(#1166,#1167)),.SURF_OF_LINEAR_EXTRUSION.,.F.,.F.,
 .F.,(4,1,4),(2,2),(0.,0.510649876062072,1.),(0.,1.),.UNSPECIFIED.);
#17=B_SPLINE_SURFACE_WITH_KNOTS('',3,1,((#1171,#1172),(#1173,#1174),(#1175,
#1176),(#1177,#1178),(#1179,#1180)),.SURF_OF_LINEAR_EXTRUSION.,.F.,.F.,
 .F.,(4,1,4),(2,2),(0.,0.495381981414997,1.),(0.,1.),.UNSPECIFIED.);
#18=B_SPLINE_SURFACE_WITH_KNOTS('',3,1,((#1181,#1182),(#1183,#1184),(#1185,
#1186),(#1187,#1188),(#1189,#1190)),.SURF_OF_LINEAR_EXTRUSION.,.F.,.F.,
 .F.,(4,1,4),(2,2),(0.,0.501461885135927,1.),(0.,1.),.UNSPECIFIED.);
#19=B_SPLINE_SURFACE_WITH_KNOTS('',3,1,((#1195,#1196),(#1197,#1198),(#1199,
#1200),(#1201,#1202),(#1203,#1204)),.SURF_OF_LINEAR_EXTRUSION.,.F.,.F.,
 .F.,(4,1,4),(2,2),(0.,0.505667938281739,1.),(0.,1.),.UNSPECIFIED.);
#20=B_SPLINE_SURFACE_WITH_KNOTS('',3,1,((#1210,#1211),(#1212,#1213),(#1214,
#1215),(#1216,#1217),(#1218,#1219),(#1220,#1221),(#1222,#1223),(#1224,#1225),
(#1226,#1227)),.SURF_OF_LINEAR_EXTRUSION.,.F.,.F.,.F.,(4,1,1,1,1,1,4),(2,
2),(0.,0.233243966646364,0.349865949969546,0.466487933292729,0.583109916615911,
0.699731899939093,0.932975866585457),(0.,1.),.UNSPECIFIED.);
#21=B_SPLINE_CURVE_WITH_KNOTS('',3,(#489,#490,#491,#492,#493),
 .UNSPECIFIED.,.F.,.F.,(4,1,4),(0.,0.495381981414997,1.),.UNSPECIFIED.);
#22=B_SPLINE_CURVE_WITH_KNOTS('',3,(#497,#498,#499,#500,#501),
 .UNSPECIFIED.,.F.,.F.,(4,1,4),(0.,0.510649876062072,1.),.UNSPECIFIED.);
#23=B_SPLINE_CURVE_WITH_KNOTS('',3,(#505,#506,#507,#508,#509),
 .UNSPECIFIED.,.F.,.F.,(4,1,4),(0.,0.498451813580902,1.),.UNSPECIFIED.);
#24=B_SPLINE_CURVE_WITH_KNOTS('',3,(#513,#514,#515,#516,#517),
 .UNSPECIFIED.,.F.,.F.,(4,1,4),(0.,0.517242979394382,1.),.UNSPECIFIED.);
#25=B_SPLINE_CURVE_WITH_KNOTS('',3,(#521,#522,#523,#524,#525,#526,#527,
#528,#529,#530,#531,#532,#533,#534,#535,#536,#537,#538,#539,#540,#541,#542,
#543,#544,#545,#546,#547,#548,#549,#550,#551,#552,#553,#554,#555,#556,#557,
#558,#559,#560,#561,#562,#563,#564,#565,#566,#567,#568,#569,#570,#571,#572,
#573,#574,#575,#576,#577,#578,#579,#580,#581,#582,#583,#584,#585,#586,#587,
#588,#589,#590,#591,#592,#593,#594,#595,#596,#597,#598,#599,#600,#601,#602,
#603,#604,#605,#606,#607,#608,#609,#610,#611,#612,#613,#614,#615,#616,#617,
#618,#619,#620,#621,#622,#623,#624,#625,#626,#627,#628,#629,#630,#631,#632,
#633,#634,#635,#636,#637,#638,#639,#640,#641,#642,#643),.UNSPECIFIED.,.F.,
 .F.,(4,1,1,1,1,1,1,1,1,1,1,1,1,1,1,1,1,1,1,1,1,1,1,1,1,1,1,1,1,1,1,1,1,
1,1,1,1,1,1,1,1,1,1,1,1,1,1,1,1,1,1,1,1,1,1,1,1,1,1,1,1,1,1,1,1,1,1,1,1,
1,1,1,1,1,1,1,1,1,1,1,1,1,1,1,1,1,1,1,1,1,1,1,1,1,1,1,1,1,1,1,1,1,1,1,1,
1,1,1,1,1,1,1,1,1,1,1,1,1,1,1,4),(0.,0.00662008440621967,0.0132397830109718,
0.0198586533094328,0.0264762806138721,0.0358313082324122,0.0451808275209661,
0.054525166383879,0.0638646539890935,0.0731993297195704,0.0825291374168046,
0.0918540423249184,0.101174034987534,0.110489130244874,0.119799406998479,
0.129104958344899,0.138405886822343,0.147702315083509,0.156994319556387,
0.166281735563295,0.175564371453166,0.184842091235609,0.194114831184121,
0.203382609834574,0.212645700454919,0.221904444047859,0.231159200697285,
0.240410323580501,0.249658147656235,0.25890287816828,0.268144745707214,
0.277384102495985,0.286621424917588,0.295857338864118,0.305092609942755,
0.314327898224617,0.323563704331657,0.332800384691047,0.342038250063359,
0.351278313157513,0.360522571790247,0.369774171732381,0.379037773711399,
0.388319559561657,0.397624596774911,0.406956937230669,0.416323181598705,
0.425735672593733,0.435210346744122,0.444768142788087,0.451604192455954,
0.458529627554409,0.46559839571582,0.472925517417002,0.479767177434879,
0.484716661914572,0.489882110533902,0.493858127042893,0.496992493277148,
0.499500838709983,0.502694568152991,0.507169924252442,0.509583969174819,
0.512590840123485,0.516376770517973,0.521219355887842,0.525752500316359,
0.53182724492937,0.538444645125689,0.545034016860023,0.551601891034824,
0.558151215554953,0.567396643285887,0.576636722257102,0.58587390188088,
0.595109552006113,0.604344760127165,0.613580211065155,0.622816266364452,
0.632053040282919,0.641290511208985,0.650528558891384,0.659766983272747,
0.669005537251204,0.678244001369802,0.687482358074989,0.696720644451084,
0.705958895541084,0.715197147468869,0.724435427949849,0.733673737962802,
0.742912065762611,0.752150403749127,0.761388741735644,0.770627071232087,
0.779865393097305,0.789103709880218,0.798342024969951,0.807580339213266,
0.816818655996179,0.826056974472734,0.835295293796282,0.844533614814161,
0.853771934984818,0.863010255155474,0.872248574479022,0.881486893802569,
0.890725213126117,0.899963532449665,0.909201851773213,0.918440171096761,
0.927678490420309,0.936916809743857,0.946155129067405,0.955393448390952,
0.9646317677145,0.973870087038048,0.980402564679581,0.986935042321113,0.993467521160557,
1.),.UNSPECIFIED.);
#26=B_SPLINE_CURVE_WITH_KNOTS('',3,(#647,#648,#649,#650,#651),
 .UNSPECIFIED.,.F.,.F.,(4,1,4),(0.,0.501849418397174,1.),.UNSPECIFIED.);
#27=B_SPLINE_CURVE_WITH_KNOTS('',3,(#655,#656,#657,#658,#659),
 .UNSPECIFIED.,.F.,.F.,(4,1,4),(0.,0.501461885135927,1.),.UNSPECIFIED.);
#28=B_SPLINE_CURVE_WITH_KNOTS('',3,(#663,#664,#665,#666,#667),
 .UNSPECIFIED.,.F.,.F.,(4,1,4),(0.,0.505667938281739,1.),.UNSPECIFIED.);
#29=B_SPLINE_CURVE_WITH_KNOTS('',3,(#668,#669,#670,#671,#672),
 .UNSPECIFIED.,.F.,.F.,(4,1,4),(0.,0.475309939160774,0.932975866585457),
 .UNSPECIFIED.);
#30=B_SPLINE_CURVE_WITH_KNOTS('',3,(#677,#678,#679,#680,#681),
 .UNSPECIFIED.,.F.,.F.,(4,1,4),(0.,0.501461885135927,1.),.UNSPECIFIED.);
#31=B_SPLINE_CURVE_WITH_KNOTS('',3,(#686,#687,#688,#689,#690),
 .UNSPECIFIED.,.F.,.F.,(4,1,4),(0.,0.505667938281739,1.),.UNSPECIFIED.);
#32=B_SPLINE_CURVE_WITH_KNOTS('',3,(#693,#694,#695,#696,#697),
 .UNSPECIFIED.,.F.,.F.,(4,1,4),(0.,0.495381981414997,1.),.UNSPECIFIED.);
#33=B_SPLINE_CURVE_WITH_KNOTS('',3,(#702,#703,#704,#705,#706),
 .UNSPECIFIED.,.F.,.F.,(4,1,4),(0.,0.510649876062072,1.),.UNSPECIFIED.);
#34=B_SPLINE_CURVE_WITH_KNOTS('',3,(#709,#710,#711,#712,#713),
 .UNSPECIFIED.,.F.,.F.,(4,1,4),(0.,0.498451813580902,1.),.UNSPECIFIED.);
#35=B_SPLINE_CURVE_WITH_KNOTS('',3,(#718,#719,#720,#721,#722),
 .UNSPECIFIED.,.F.,.F.,(4,1,4),(0.,0.517242979394382,1.),.UNSPECIFIED.);
#36=B_SPLINE_CURVE_WITH_KNOTS('',3,(#728,#729,#730,#731,#732,#733,#734,
#735,#736,#737,#738,#739,#740,#741,#742,#743,#744,#745,#746,#747,#748,#749,
#750,#751,#752,#753,#754,#755,#756,#757,#758,#759,#760,#761,#762,#763,#764,
#765,#766,#767,#768,#769,#770,#771,#772,#773,#774,#775,#776,#777,#778,#779,
#780,#781,#782,#783,#784,#785,#786,#787,#788,#789,#790,#791,#792,#793,#794,
#795,#796,#797,#798,#799,#800,#801,#802,#803,#804,#805,#806,#807,#808,#809,
#810,#811,#812,#813,#814,#815,#816,#817,#818,#819,#820,#821,#822,#823,#824,
#825,#826,#827,#828,#829,#830,#831,#832,#833,#834,#835,#836,#837,#838,#839,
#840,#841,#842,#843,#844,#845,#846,#847,#848,#849,#850),.UNSPECIFIED.,.F.,
 .F.,(4,1,1,1,1,1,1,1,1,1,1,1,1,1,1,1,1,1,1,1,1,1,1,1,1,1,1,1,1,1,1,1,1,
1,1,1,1,1,1,1,1,1,1,1,1,1,1,1,1,1,1,1,1,1,1,1,1,1,1,1,1,1,1,1,1,1,1,1,1,
1,1,1,1,1,1,1,1,1,1,1,1,1,1,1,1,1,1,1,1,1,1,1,1,1,1,1,1,1,1,1,1,1,1,1,1,
1,1,1,1,1,1,1,1,1,1,1,1,1,1,1,4),(0.,0.00662008440621967,0.0132397830109718,
0.0198586533094328,0.0264762806138721,0.0358313082324122,0.0451808275209661,
0.054525166383879,0.0638646539890935,0.0731993297195704,0.0825291374168046,
0.0918540423249184,0.101174034987534,0.110489130244874,0.119799406998479,
0.129104958344899,0.138405886822343,0.147702315083509,0.156994319556387,
0.166281735563295,0.175564371453166,0.184842091235609,0.194114831184121,
0.203382609834574,0.212645700454919,0.221904444047859,0.231159200697285,
0.240410323580501,0.249658147656235,0.25890287816828,0.268144745707214,
0.277384102495985,0.286621424917588,0.295857338864118,0.305092609942755,
0.314327898224617,0.323563704331657,0.332800384691047,0.342038250063359,
0.351278313157513,0.360522571790247,0.369774171732381,0.379037773711399,
0.388319559561657,0.397624596774911,0.406956937230669,0.416323181598705,
0.425735672593733,0.435210346744122,0.444768142788087,0.451604192455954,
0.458529627554409,0.46559839571582,0.472925517417002,0.479767177434879,
0.484716661914572,0.489882110533902,0.493858127042893,0.496992493277148,
0.499500838709983,0.502694568152991,0.507169924252442,0.509583969174819,
0.512590840123485,0.516376770517973,0.521219355887842,0.525752500316359,
0.53182724492937,0.538444645125689,0.545034016860023,0.551601891034824,
0.558151215554953,0.567396643285887,0.576636722257102,0.58587390188088,
0.595109552006113,0.604344760127165,0.613580211065155,0.622816266364452,
0.632053040282919,0.641290511208985,0.650528558891384,0.659766983272747,
0.669005537251204,0.678244001369802,0.687482358074989,0.696720644451084,
0.705958895541084,0.715197147468869,0.724435427949849,0.733673737962802,
0.742912065762611,0.752150403749127,0.761388741735644,0.770627071232087,
0.779865393097305,0.789103709880218,0.798342024969951,0.807580339213266,
0.816818655996179,0.826056974472734,0.835295293796282,0.844533614814161,
0.853771934984818,0.863010255155474,0.872248574479022,0.881486893802569,
0.890725213126117,0.899963532449665,0.909201851773213,0.918440171096761,
0.927678490420309,0.936916809743857,0.946155129067405,0.955393448390952,
0.9646317677145,0.973870087038048,0.980402564679581,0.986935042321113,0.993467521160557,
1.),.UNSPECIFIED.);
#37=B_SPLINE_CURVE_WITH_KNOTS('',3,(#851,#852,#853,#854,#855),
 .UNSPECIFIED.,.F.,.F.,(4,1,4),(0.,0.501849418397174,1.),.UNSPECIFIED.);
#38=B_SPLINE_CURVE_WITH_KNOTS('',3,(#862,#863,#864,#865,#866),
 .UNSPECIFIED.,.F.,.F.,(4,1,4),(0.,0.475309939160774,0.932975866585457),
 .UNSPECIFIED.);
#39=ORIENTED_EDGE('',*,*,#147,.F.);
#40=ORIENTED_EDGE('',*,*,#148,.T.);
#41=ORIENTED_EDGE('',*,*,#149,.T.);
#42=ORIENTED_EDGE('',*,*,#150,.F.);
#43=ORIENTED_EDGE('',*,*,#151,.F.);
#44=ORIENTED_EDGE('',*,*,#152,.T.);
#45=ORIENTED_EDGE('',*,*,#153,.T.);
#46=ORIENTED_EDGE('',*,*,#154,.F.);
#47=ORIENTED_EDGE('',*,*,#155,.F.);
#48=ORIENTED_EDGE('',*,*,#156,.T.);
#49=ORIENTED_EDGE('',*,*,#157,.T.);
#50=ORIENTED_EDGE('',*,*,#158,.T.);
#51=ORIENTED_EDGE('',*,*,#159,.T.);
#52=ORIENTED_EDGE('',*,*,#160,.T.);
#53=ORIENTED_EDGE('',*,*,#161,.F.);
#54=ORIENTED_EDGE('',*,*,#162,.F.);
#55=ORIENTED_EDGE('',*,*,#163,.F.);
#56=ORIENTED_EDGE('',*,*,#164,.T.);
#57=ORIENTED_EDGE('',*,*,#165,.F.);
#58=ORIENTED_EDGE('',*,*,#166,.F.);
#59=ORIENTED_EDGE('',*,*,#167,.T.);
#60=ORIENTED_EDGE('',*,*,#168,.T.);
#61=ORIENTED_EDGE('',*,*,#169,.F.);
#62=ORIENTED_EDGE('',*,*,#170,.T.);
#63=ORIENTED_EDGE('',*,*,#171,.T.);
#64=ORIENTED_EDGE('',*,*,#172,.F.);
#65=ORIENTED_EDGE('',*,*,#173,.F.);
#66=ORIENTED_EDGE('',*,*,#174,.T.);
#67=ORIENTED_EDGE('',*,*,#175,.T.);
#68=ORIENTED_EDGE('',*,*,#176,.F.);
#69=ORIENTED_EDGE('',*,*,#177,.T.);
#70=ORIENTED_EDGE('',*,*,#178,.F.);
#71=ORIENTED_EDGE('',*,*,#179,.F.);
#72=ORIENTED_EDGE('',*,*,#180,.F.);
#73=ORIENTED_EDGE('',*,*,#181,.F.);
#74=ORIENTED_EDGE('',*,*,#182,.T.);
#75=ORIENTED_EDGE('',*,*,#177,.F.);
#76=ORIENTED_EDGE('',*,*,#183,.F.);
#77=ORIENTED_EDGE('',*,*,#155,.T.);
#78=ORIENTED_EDGE('',*,*,#184,.T.);
#79=ORIENTED_EDGE('',*,*,#178,.T.);
#80=ORIENTED_EDGE('',*,*,#184,.F.);
#81=ORIENTED_EDGE('',*,*,#156,.F.);
#82=ORIENTED_EDGE('',*,*,#183,.T.);
#83=ORIENTED_EDGE('',*,*,#179,.T.);
#84=ORIENTED_EDGE('',*,*,#185,.T.);
#85=ORIENTED_EDGE('',*,*,#158,.F.);
#86=ORIENTED_EDGE('',*,*,#186,.F.);
#87=ORIENTED_EDGE('',*,*,#180,.T.);
#88=ORIENTED_EDGE('',*,*,#186,.T.);
#89=ORIENTED_EDGE('',*,*,#157,.F.);
#90=ORIENTED_EDGE('',*,*,#185,.F.);
#91=ORIENTED_EDGE('',*,*,#187,.T.);
#92=ORIENTED_EDGE('',*,*,#151,.T.);
#93=ORIENTED_EDGE('',*,*,#188,.F.);
#94=ORIENTED_EDGE('',*,*,#174,.F.);
#95=ORIENTED_EDGE('',*,*,#188,.T.);
#96=ORIENTED_EDGE('',*,*,#154,.T.);
#97=ORIENTED_EDGE('',*,*,#189,.F.);
#98=ORIENTED_EDGE('',*,*,#175,.F.);
#99=ORIENTED_EDGE('',*,*,#176,.T.);
#100=ORIENTED_EDGE('',*,*,#189,.T.);
#101=ORIENTED_EDGE('',*,*,#153,.F.);
#102=ORIENTED_EDGE('',*,*,#190,.F.);
#103=ORIENTED_EDGE('',*,*,#173,.T.);
#104=ORIENTED_EDGE('',*,*,#190,.T.);
#105=ORIENTED_EDGE('',*,*,#152,.F.);
#106=ORIENTED_EDGE('',*,*,#187,.F.);
#107=ORIENTED_EDGE('',*,*,#191,.T.);
#108=ORIENTED_EDGE('',*,*,#147,.T.);
#109=ORIENTED_EDGE('',*,*,#192,.F.);
#110=ORIENTED_EDGE('',*,*,#170,.F.);
#111=ORIENTED_EDGE('',*,*,#192,.T.);
#112=ORIENTED_EDGE('',*,*,#150,.T.);
#113=ORIENTED_EDGE('',*,*,#193,.F.);
#114=ORIENTED_EDGE('',*,*,#171,.F.);
#115=ORIENTED_EDGE('',*,*,#172,.T.);
#116=ORIENTED_EDGE('',*,*,#193,.T.);
#117=ORIENTED_EDGE('',*,*,#149,.F.);
#118=ORIENTED_EDGE('',*,*,#194,.F.);
#119=ORIENTED_EDGE('',*,*,#169,.T.);
#120=ORIENTED_EDGE('',*,*,#194,.T.);
#121=ORIENTED_EDGE('',*,*,#148,.F.);
#122=ORIENTED_EDGE('',*,*,#191,.F.);
#123=ORIENTED_EDGE('',*,*,#165,.T.);
#124=ORIENTED_EDGE('',*,*,#195,.T.);
#125=ORIENTED_EDGE('',*,*,#160,.F.);
#126=ORIENTED_EDGE('',*,*,#196,.F.);
#127=ORIENTED_EDGE('',*,*,#166,.T.);
#128=ORIENTED_EDGE('',*,*,#196,.T.);
#129=ORIENTED_EDGE('',*,*,#159,.F.);
#130=ORIENTED_EDGE('',*,*,#197,.F.);
#131=ORIENTED_EDGE('',*,*,#197,.T.);
#132=ORIENTED_EDGE('',*,*,#162,.T.);
#133=ORIENTED_EDGE('',*,*,#198,.F.);
#134=ORIENTED_EDGE('',*,*,#167,.F.);
#135=ORIENTED_EDGE('',*,*,#198,.T.);
#136=ORIENTED_EDGE('',*,*,#161,.T.);
#137=ORIENTED_EDGE('',*,*,#195,.F.);
#138=ORIENTED_EDGE('',*,*,#168,.F.);
#139=ORIENTED_EDGE('',*,*,#181,.T.);
#140=ORIENTED_EDGE('',*,*,#199,.T.);
#141=ORIENTED_EDGE('',*,*,#164,.F.);
#142=ORIENTED_EDGE('',*,*,#200,.F.);
#143=ORIENTED_EDGE('',*,*,#200,.T.);
#144=ORIENTED_EDGE('',*,*,#163,.T.);
#145=ORIENTED_EDGE('',*,*,#199,.F.);
#146=ORIENTED_EDGE('',*,*,#182,.F.);
#147=EDGE_CURVE('',#201,#202,#237,.T.);
#148=EDGE_CURVE('',#201,#203,#21,.T.);
#149=EDGE_CURVE('',#203,#204,#238,.T.);
#150=EDGE_CURVE('',#202,#204,#22,.T.);
#151=EDGE_CURVE('',#205,#206,#239,.T.);
#152=EDGE_CURVE('',#205,#207,#23,.T.);
#153=EDGE_CURVE('',#207,#208,#240,.T.);
#154=EDGE_CURVE('',#206,#208,#24,.T.);
#155=EDGE_CURVE('',#209,#210,#241,.T.);
#156=EDGE_CURVE('',#209,#210,#25,.T.);
#157=EDGE_CURVE('',#211,#212,#242,.T.);
#158=EDGE_CURVE('',#212,#211,#26,.T.);
#159=EDGE_CURVE('',#213,#214,#243,.T.);
#160=EDGE_CURVE('',#214,#215,#27,.T.);
#161=EDGE_CURVE('',#216,#215,#244,.T.);
#162=EDGE_CURVE('',#213,#216,#28,.T.);
#163=EDGE_CURVE('',#217,#218,#29,.T.);
#164=EDGE_CURVE('',#217,#218,#245,.T.);
#165=EDGE_CURVE('',#219,#220,#30,.T.);
#166=EDGE_CURVE('',#221,#219,#246,.T.);
#167=EDGE_CURVE('',#221,#222,#31,.T.);
#168=EDGE_CURVE('',#222,#220,#247,.T.);
#169=EDGE_CURVE('',#223,#224,#32,.T.);
#170=EDGE_CURVE('',#223,#225,#248,.T.);
#171=EDGE_CURVE('',#225,#226,#33,.T.);
#172=EDGE_CURVE('',#224,#226,#249,.T.);
#173=EDGE_CURVE('',#227,#228,#34,.T.);
#174=EDGE_CURVE('',#227,#229,#250,.T.);
#175=EDGE_CURVE('',#229,#230,#35,.T.);
#176=EDGE_CURVE('',#228,#230,#251,.T.);
#177=EDGE_CURVE('',#231,#232,#252,.T.);
#178=EDGE_CURVE('',#231,#232,#36,.T.);
#179=EDGE_CURVE('',#233,#234,#37,.T.);
#180=EDGE_CURVE('',#234,#233,#253,.T.);
#181=EDGE_CURVE('',#235,#236,#254,.T.);
#182=EDGE_CURVE('',#235,#236,#38,.T.);
#183=EDGE_CURVE('',#209,#231,#255,.T.);
#184=EDGE_CURVE('',#210,#232,#256,.T.);
#185=EDGE_CURVE('',#234,#211,#257,.T.);
#186=EDGE_CURVE('',#233,#212,#258,.T.);
#187=EDGE_CURVE('',#227,#205,#259,.T.);
#188=EDGE_CURVE('',#229,#206,#260,.T.);
#189=EDGE_CURVE('',#230,#208,#261,.T.);
#190=EDGE_CURVE('',#228,#207,#262,.T.);
#191=EDGE_CURVE('',#223,#201,#263,.T.);
#192=EDGE_CURVE('',#225,#202,#264,.T.);
#193=EDGE_CURVE('',#226,#204,#265,.T.);
#194=EDGE_CURVE('',#224,#203,#266,.T.);
#195=EDGE_CURVE('',#220,#215,#267,.T.);
#196=EDGE_CURVE('',#219,#214,#268,.T.);
#197=EDGE_CURVE('',#221,#213,#269,.T.);
#198=EDGE_CURVE('',#222,#216,#270,.T.);
#199=EDGE_CURVE('',#236,#218,#271,.T.);
#200=EDGE_CURVE('',#235,#217,#272,.T.);
#201=VERTEX_POINT('',#487);
#202=VERTEX_POINT('',#488);
#203=VERTEX_POINT('',#494);
#204=VERTEX_POINT('',#496);
#205=VERTEX_POINT('',#503);
#206=VERTEX_POINT('',#504);
#207=VERTEX_POINT('',#510);
#208=VERTEX_POINT('',#512);
#209=VERTEX_POINT('',#519);
#210=VERTEX_POINT('',#520);
#211=VERTEX_POINT('',#645);
#212=VERTEX_POINT('',#646);
#213=VERTEX_POINT('',#653);
#214=VERTEX_POINT('',#654);
#215=VERTEX_POINT('',#660);
#216=VERTEX_POINT('',#662);
#217=VERTEX_POINT('',#673);
#218=VERTEX_POINT('',#674);
#219=VERTEX_POINT('',#682);
#220=VERTEX_POINT('',#683);
#221=VERTEX_POINT('',#685);
#222=VERTEX_POINT('',#691);
#223=VERTEX_POINT('',#698);
#224=VERTEX_POINT('',#699);
#225=VERTEX_POINT('',#701);
#226=VERTEX_POINT('',#707);
#227=VERTEX_POINT('',#714);
#228=VERTEX_POINT('',#715);
#229=VERTEX_POINT('',#717);
#230=VERTEX_POINT('',#723);
#231=VERTEX_POINT('',#726);
#232=VERTEX_POINT('',#727);
#233=VERTEX_POINT('',#856);
#234=VERTEX_POINT('',#857);
#235=VERTEX_POINT('',#860);
#236=VERTEX_POINT('',#861);
#237=LINE('',#486,#273);
#238=LINE('',#495,#274);
#239=LINE('',#502,#275);
#240=LINE('',#511,#276);
#241=LINE('',#518,#277);
#242=LINE('',#644,#278);
#243=LINE('',#652,#279);
#244=LINE('',#661,#280);
#245=LINE('',#675,#281);
#246=LINE('',#684,#282);
#247=LINE('',#692,#283);
#248=LINE('',#700,#284);
#249=LINE('',#708,#285);
#250=LINE('',#716,#286);
#251=LINE('',#724,#287);
#252=LINE('',#725,#288);
#253=LINE('',#858,#289);
#254=LINE('',#859,#290);
#255=LINE('',#868,#291);
#256=LINE('',#869,#292);
#257=LINE('',#1126,#293);
#258=LINE('',#1127,#294);
#259=LINE('',#1130,#295);
#260=LINE('',#1131,#296);
#261=LINE('',#1142,#297);
#262=LINE('',#1144,#298);
#263=LINE('',#1156,#299);
#264=LINE('',#1157,#300);
#265=LINE('',#1168,#301);
#266=LINE('',#1170,#302);
#267=LINE('',#1191,#303);
#268=LINE('',#1192,#304);
#269=LINE('',#1194,#305);
#270=LINE('',#1205,#306);
#271=LINE('',#1208,#307);
#272=LINE('',#1209,#308);
#273=VECTOR('',#428,1.);
#274=VECTOR('',#429,1.);
#275=VECTOR('',#430,1.);
#276=VECTOR('',#431,1.);
#277=VECTOR('',#432,1.);
#278=VECTOR('',#433,1.);
#279=VECTOR('',#434,1.);
#280=VECTOR('',#435,1.);
#281=VECTOR('',#436,1.);
#282=VECTOR('',#439,1.);
#283=VECTOR('',#440,1.);
#284=VECTOR('',#441,1.);
#285=VECTOR('',#442,1.);
#286=VECTOR('',#443,1.);
#287=VECTOR('',#444,1.);
#288=VECTOR('',#445,1.);
#289=VECTOR('',#446,1.);
#290=VECTOR('',#447,1.);
#291=VECTOR('',#450,1.);
#292=VECTOR('',#451,1.);
#293=VECTOR('',#452,1.);
#294=VECTOR('',#453,1.);
#295=VECTOR('',#458,1.);
#296=VECTOR('',#459,1.);
#297=VECTOR('',#460,1.);
#298=VECTOR('',#463,1.);
#299=VECTOR('',#466,1.);
#300=VECTOR('',#467,1.);
#301=VECTOR('',#468,1.);
#302=VECTOR('',#471,1.);
#303=VECTOR('',#472,1.);
#304=VECTOR('',#473,1.);
#305=VECTOR('',#476,1.);
#306=VECTOR('',#477,1.);
#307=VECTOR('',#482,1.);
#308=VECTOR('',#483,1.);
#309=EDGE_LOOP('',(#39,#40,#41,#42));
#310=EDGE_LOOP('',(#43,#44,#45,#46));
#311=EDGE_LOOP('',(#47,#48));
#312=EDGE_LOOP('',(#49,#50));
#313=EDGE_LOOP('',(#51,#52,#53,#54));
#314=EDGE_LOOP('',(#55,#56));
#315=EDGE_LOOP('',(#57,#58,#59,#60));
#316=EDGE_LOOP('',(#61,#62,#63,#64));
#317=EDGE_LOOP('',(#65,#66,#67,#68));
#318=EDGE_LOOP('',(#69,#70));
#319=EDGE_LOOP('',(#71,#72));
#320=EDGE_LOOP('',(#73,#74));
#321=EDGE_LOOP('',(#75,#76,#77,#78));
#322=EDGE_LOOP('',(#79,#80,#81,#82));
#323=EDGE_LOOP('',(#83,#84,#85,#86));
#324=EDGE_LOOP('',(#87,#88,#89,#90));
#325=EDGE_LOOP('',(#91,#92,#93,#94));
#326=EDGE_LOOP('',(#95,#96,#97,#98));
#327=EDGE_LOOP('',(#99,#100,#101,#102));
#328=EDGE_LOOP('',(#103,#104,#105,#106));
#329=EDGE_LOOP('',(#107,#108,#109,#110));
#330=EDGE_LOOP('',(#111,#112,#113,#114));
#331=EDGE_LOOP('',(#115,#116,#117,#118));
#332=EDGE_LOOP('',(#119,#120,#121,#122));
#333=EDGE_LOOP('',(#123,#124,#125,#126));
#334=EDGE_LOOP('',(#127,#128,#129,#130));
#335=EDGE_LOOP('',(#131,#132,#133,#134));
#336=EDGE_LOOP('',(#135,#136,#137,#138));
#337=EDGE_LOOP('',(#139,#140,#141,#142));
#338=EDGE_LOOP('',(#143,#144,#145,#146));
#339=FACE_BOUND('',#309,.T.);
#340=FACE_BOUND('',#310,.T.);
#341=FACE_BOUND('',#311,.T.);
#342=FACE_BOUND('',#312,.T.);
#343=FACE_BOUND('',#313,.T.);
#344=FACE_BOUND('',#314,.T.);
#345=FACE_BOUND('',#315,.T.);
#346=FACE_BOUND('',#316,.T.);
#347=FACE_BOUND('',#317,.T.);
#348=FACE_BOUND('',#318,.T.);
#349=FACE_BOUND('',#319,.T.);
#350=FACE_BOUND('',#320,.T.);
#351=FACE_BOUND('',#321,.T.);
#352=FACE_BOUND('',#322,.T.);
#353=FACE_BOUND('',#323,.T.);
#354=FACE_BOUND('',#324,.T.);
#355=FACE_BOUND('',#325,.T.);
#356=FACE_BOUND('',#326,.T.);
#357=FACE_BOUND('',#327,.T.);
#358=FACE_BOUND('',#328,.T.);
#359=FACE_BOUND('',#329,.T.);
#360=FACE_BOUND('',#330,.T.);
#361=FACE_BOUND('',#331,.T.);
#362=FACE_BOUND('',#332,.T.);
#363=FACE_BOUND('',#333,.T.);
#364=FACE_BOUND('',#334,.T.);
#365=FACE_BOUND('',#335,.T.);
#366=FACE_BOUND('',#336,.T.);
#367=FACE_BOUND('',#337,.T.);
#368=FACE_BOUND('',#338,.T.);
#369=PLANE('',#413);
#370=PLANE('',#414);
#371=PLANE('',#415);
#372=PLANE('',#416);
#373=PLANE('',#417);
#374=PLANE('',#418);
#375=PLANE('',#419);
#376=PLANE('',#420);
#377=PLANE('',#421);
#378=PLANE('',#422);
#379=PLANE('',#423);
#380=ADVANCED_FACE('',(#339,#340,#341,#342,#343,#344),#369,.T.);
#381=ADVANCED_FACE('',(#345,#346,#347,#348,#349,#350),#370,.F.);
#382=ADVANCED_FACE('',(#351),#371,.T.);
#383=ADVANCED_FACE('',(#352),#12,.F.);
#384=ADVANCED_FACE('',(#353),#13,.T.);
#385=ADVANCED_FACE('',(#354),#372,.T.);
#386=ADVANCED_FACE('',(#355),#373,.F.);
#387=ADVANCED_FACE('',(#356),#14,.F.);
#388=ADVANCED_FACE('',(#357),#374,.T.);
#389=ADVANCED_FACE('',(#358),#15,.T.);
#390=ADVANCED_FACE('',(#359),#375,.F.);
#391=ADVANCED_FACE('',(#360),#16,.F.);
#392=ADVANCED_FACE('',(#361),#376,.T.);
#393=ADVANCED_FACE('',(#362),#17,.T.);
#394=ADVANCED_FACE('',(#363),#18,.T.);
#395=ADVANCED_FACE('',(#364),#377,.T.);
#396=ADVANCED_FACE('',(#365),#19,.F.);
#397=ADVANCED_FACE('',(#366),#378,.F.);
#398=ADVANCED_FACE('',(#367),#379,.T.);
#399=ADVANCED_FACE('',(#368),#20,.F.);
#400=CLOSED_SHELL('',(#380,#381,#382,#383,#384,#385,#386,#387,#388,#389,
#390,#391,#392,#393,#394,#395,#396,#397,#398,#399));
#401=STYLED_ITEM('',(#402),#409);
#402=PRESENTATION_STYLE_ASSIGNMENT((#403));
#403=SURFACE_STYLE_USAGE(.BOTH.,#404);
#404=SURFACE_SIDE_STYLE('',(#405));
#405=SURFACE_STYLE_FILL_AREA(#406);
#406=FILL_AREA_STYLE('',(#407));
#407=FILL_AREA_STYLE_COLOUR('',#408);
#408=COLOUR_RGB('',0.615686274509804,0.811764705882353,0.929411764705882);
#409=MANIFOLD_SOLID_BREP('Part 1',#400);
#410=SHAPE_DEFINITION_REPRESENTATION(#1234,#411);
#411=SHAPE_REPRESENTATION('Part 1',(#412),#1229);
#412=AXIS2_PLACEMENT_3D('',#484,#424,#425);
#413=AXIS2_PLACEMENT_3D('',#485,#426,#427);
#414=AXIS2_PLACEMENT_3D('',#676,#437,#438);
#415=AXIS2_PLACEMENT_3D('',#867,#448,#449);
#416=AXIS2_PLACEMENT_3D('',#1128,#454,#455);
#417=AXIS2_PLACEMENT_3D('',#1129,#456,#457);
#418=AXIS2_PLACEMENT_3D('',#1143,#461,#462);
#419=AXIS2_PLACEMENT_3D('',#1155,#464,#465);
#420=AXIS2_PLACEMENT_3D('',#1169,#469,#470);
#421=AXIS2_PLACEMENT_3D('',#1193,#474,#475);
#422=AXIS2_PLACEMENT_3D('',#1206,#478,#479);
#423=AXIS2_PLACEMENT_3D('',#1207,#480,#481);
#424=DIRECTION('',(0.,0.,1.));
#425=DIRECTION('',(1.,0.,0.));
#426=DIRECTION('',(0.,-1.,0.));
#427=DIRECTION('',(1.,0.,0.));
#428=DIRECTION('',(-1.,0.,0.));
#429=DIRECTION('',(-1.,0.,0.));
#430=DIRECTION('',(-1.,0.,0.));
#431=DIRECTION('',(-1.,0.,0.));
#432=DIRECTION('',(0.,0.,-1.));
#433=DIRECTION('',(0.0106375047819665,0.,0.999943420145367));
#434=DIRECTION('',(1.,0.,0.));
#435=DIRECTION('',(1.,0.,0.));
#436=DIRECTION('',(0.0100409626251336,0.,-0.999949588264109));
#437=DIRECTION('',(0.,-1.,0.));
#438=DIRECTION('',(1.,0.,0.));
#439=DIRECTION('',(1.,0.,0.));
#440=DIRECTION('',(1.,0.,0.));
#441=DIRECTION('',(-1.,0.,0.));
#442=DIRECTION('',(-1.,0.,0.));
#443=DIRECTION('',(-1.,0.,0.));
#444=DIRECTION('',(-1.,0.,0.));
#445=DIRECTION('',(0.,0.,-1.));
#446=DIRECTION('',(0.0106375047819665,0.,0.999943420145367));
#447=DIRECTION('',(0.0100409626251336,0.,-0.999949588264109));
#448=DIRECTION('',(1.,0.,0.));
#449=DIRECTION('',(0.,0.,-1.));
#450=DIRECTION('',(0.,1.,0.));
#451=DIRECTION('',(0.,1.,0.));
#452=DIRECTION('',(0.,-1.,0.));
#453=DIRECTION('',(0.,-1.,0.));
#454=DIRECTION('',(0.999943420145367,0.,-0.0106375047819665));
#455=DIRECTION('',(-0.0106375047819665,0.,-0.999943420145367));
#456=DIRECTION('',(0.,0.,1.));
#457=DIRECTION('',(1.,0.,0.));
#458=DIRECTION('',(0.,-1.,0.));
#459=DIRECTION('',(0.,-1.,0.));
#460=DIRECTION('',(0.,-1.,0.));
#461=DIRECTION('',(0.,0.,1.));
#462=DIRECTION('',(1.,0.,0.));
#463=DIRECTION('',(0.,-1.,0.));
#464=DIRECTION('',(0.,0.,1.));
#465=DIRECTION('',(1.,0.,0.));
#466=DIRECTION('',(0.,-1.,0.));
#467=DIRECTION('',(0.,-1.,0.));
#468=DIRECTION('',(0.,-1.,0.));
#469=DIRECTION('',(0.,0.,1.));
#470=DIRECTION('',(1.,0.,0.));
#471=DIRECTION('',(0.,-1.,0.));
#472=DIRECTION('',(0.,-1.,0.));
#473=DIRECTION('',(0.,-1.,0.));
#474=DIRECTION('',(0.,0.,-1.));
#475=DIRECTION('',(-1.,0.,0.));
#476=DIRECTION('',(0.,-1.,0.));
#477=DIRECTION('',(0.,-1.,0.));
#478=DIRECTION('',(0.,0.,-1.));
#479=DIRECTION('',(-1.,0.,0.));
#480=DIRECTION('',(-0.999949588264109,0.,-0.0100409626251336));
#481=DIRECTION('',(-0.0100409626251336,0.,0.999949588264109));
#482=DIRECTION('',(0.,-1.,0.));
#483=DIRECTION('',(0.,-1.,0.));
#484=CARTESIAN_POINT('',(0.,0.,0.));
#485=CARTESIAN_POINT('',(0.00791390818090216,-0.002,0.00306862525261701));
#486=CARTESIAN_POINT('',(-0.000546473544090986,-0.002,0.00693105347454548));
#487=CARTESIAN_POINT('',(0.0069426316767931,-0.002,0.00693105347454548));
#488=CARTESIAN_POINT('',(-0.00803557876497507,-0.002,0.00693105347454548));
#489=CARTESIAN_POINT('',(0.0069426316767931,-0.002,0.00693105347454548));
#490=CARTESIAN_POINT('',(0.00755569682959586,-0.002,0.00581361782590814));
#491=CARTESIAN_POINT('',(0.0087932572896102,-0.002,0.00355791275273305));
#492=CARTESIAN_POINT('',(0.00761950245372274,-0.002,0.00119325095233866));
#493=CARTESIAN_POINT('',(0.00702720461413264,-0.002,1.05088040045335E-18));
#494=CARTESIAN_POINT('',(0.00702720461413264,-0.002,1.05088040045335E-18));
#495=CARTESIAN_POINT('',(-0.000534088118001818,-0.002,0.));
#496=CARTESIAN_POINT('',(-0.00809538085013628,-0.002,0.));
#497=CARTESIAN_POINT('',(-0.00803557876497507,-0.002,0.00693105347454548));
#498=CARTESIAN_POINT('',(-0.00865971618815083,-0.002,0.00571002078530016));
#499=CARTESIAN_POINT('',(-0.00988195759549017,-0.002,0.00331888598534399));
#500=CARTESIAN_POINT('',(-0.00868238959825519,-0.002,0.00109047378595553));
#501=CARTESIAN_POINT('',(-0.00809538085013628,-0.002,-8.63277270126795E-19));
#502=CARTESIAN_POINT('',(0.0171108422800898,-0.002,0.00534913223236799));
#503=CARTESIAN_POINT('',(0.0214889086782932,-0.002,0.00534913223236799));
#504=CARTESIAN_POINT('',(0.0127327758818865,-0.002,0.00534913223236799));
#505=CARTESIAN_POINT('',(0.0214889086782932,-0.002,0.00534913223236799));
#506=CARTESIAN_POINT('',(0.0218673764126602,-0.002,0.00446002138731656));
#507=CARTESIAN_POINT('',(0.0226266629154979,-0.002,0.00267627655817446));
#508=CARTESIAN_POINT('',(0.0218215792674464,-0.002,0.000893931787370359));
#509=CARTESIAN_POINT('',(0.0214177910238505,-0.002,6.58571735659857E-19));
#510=CARTESIAN_POINT('',(0.0214177910238505,-0.002,6.58571735659857E-19));
#511=CARTESIAN_POINT('',(0.0170118538662791,-0.002,0.));
#512=CARTESIAN_POINT('',(0.0126059167087078,-0.002,0.));
#513=CARTESIAN_POINT('',(0.0127327758818865,-0.002,0.00534913223236799));
#514=CARTESIAN_POINT('',(0.0122033263123479,-0.002,0.00437880494082695));
#515=CARTESIAN_POINT('',(0.0111797269777402,-0.002,0.00250284464712288));
#516=CARTESIAN_POINT('',(0.0121415769040249,-0.002,0.000814877831022009));
#517=CARTESIAN_POINT('',(0.0126059167087078,-0.002,-2.77871575429565E-19));
#518=CARTESIAN_POINT('',(0.0579281583428383,-0.002,0.));
#519=CARTESIAN_POINT('',(0.0579281583428383,-0.002,5.993E-5));
#520=CARTESIAN_POINT('',(0.0579281583428383,-0.002,-5.993E-5));
#521=CARTESIAN_POINT('',(0.0579281583428383,-0.002,5.993E-5));
#522=CARTESIAN_POINT('',(0.0575942377706302,-0.002,0.000139082633970679));
#523=CARTESIAN_POINT('',(0.0569264160862447,-0.002,0.000297383289100407));
#524=CARTESIAN_POINT('',(0.0559353042101314,-0.002,0.000531894971445054));
#525=CARTESIAN_POINT('',(0.0549016966867542,-0.002,0.000775047311518716));
#526=CARTESIAN_POINT('',(0.0539067650601068,-0.002,0.00100812995086517));
#527=CARTESIAN_POINT('',(0.0518757379548652,-0.002,0.00147656718268993));
#528=CARTESIAN_POINT('',(0.0499429050699569,-0.002,0.00190984626527734));
#529=CARTESIAN_POINT('',(0.04792487528916,-0.002,0.00235267953378017));
#530=CARTESIAN_POINT('',(0.045929690789861,-0.002,0.00278025300578673));
#531=CARTESIAN_POINT('',(0.0439284078045286,-0.002,0.00319911268886441));
#532=CARTESIAN_POINT('',(0.0419287570703164,-0.002,0.00360704964369335));
#533=CARTESIAN_POINT('',(0.0399286657764616,-0.002,0.00400421432613538));
#534=CARTESIAN_POINT('',(0.0379286897555311,-0.002,0.00439017442016417));
#535=CARTESIAN_POINT('',(0.0359286743284258,-0.002,0.00476464931007302));
#536=CARTESIAN_POINT('',(0.0339286664545705,-0.002,0.00512751623129993));
#537=CARTESIAN_POINT('',(0.0319286552922804,-0.002,0.00547864213399143));
#538=CARTESIAN_POINT('',(0.0299286424514769,-0.002,0.00581790085119778));
#539=CARTESIAN_POINT('',(0.027928632054197,-0.002,0.00614520998013013));
#540=CARTESIAN_POINT('',(0.0259286525150919,-0.002,0.00646053765465658));
#541=CARTESIAN_POINT('',(0.0239286734526225,-0.002,0.0067627616445454));
#542=CARTESIAN_POINT('',(0.021928688651598,-0.002,0.00705072068383664));
#543=CARTESIAN_POINT('',(0.0199286952617564,-0.002,0.00732323104810503));
#544=CARTESIAN_POINT('',(0.0179286958198179,-0.002,0.00757923029056207));
#545=CARTESIAN_POINT('',(0.0159286643059657,-0.002,0.00781743323338267));
#546=CARTESIAN_POINT('',(0.0139286279654981,-0.002,0.00803774915152968));
#547=CARTESIAN_POINT('',(0.0119285888908668,-0.002,0.00824007251046552));
#548=CARTESIAN_POINT('',(0.00992855127064042,-0.002,0.00842443071595084));
#549=CARTESIAN_POINT('',(0.00792851369038927,-0.002,0.00859069774906474));
#550=CARTESIAN_POINT('',(0.00592849326647813,-0.002,0.0087389291337474));
#551=CARTESIAN_POINT('',(0.00392846891850305,-0.002,0.00886776664373077));
#552=CARTESIAN_POINT('',(0.00192843075677789,-0.002,0.00897551467386967));
#553=CARTESIAN_POINT('',(-7.16205930001643E-5,-0.002,0.00906059616701583));
#554=CARTESIAN_POINT('',(-0.00207168785775025,-0.002,0.00912147236099203));
#555=CARTESIAN_POINT('',(-0.00407177307012359,-0.002,0.00915621210469732));
#556=CARTESIAN_POINT('',(-0.0060718445384635,-0.002,0.00916639381282869));
#557=CARTESIAN_POINT('',(-0.00807189838526973,-0.002,0.0091541721748911));
#558=CARTESIAN_POINT('',(-0.0100719378677511,-0.002,0.00912165352744723));
#559=CARTESIAN_POINT('',(-0.0120719647179198,-0.002,0.00907062169899033));
#560=CARTESIAN_POINT('',(-0.0140720735830753,-0.002,0.0090040751925919));
#561=CARTESIAN_POINT('',(-0.0160722892447312,-0.002,0.0089139775812063));
#562=CARTESIAN_POINT('',(-0.0180726259720787,-0.002,0.00879026137144399));
#563=CARTESIAN_POINT('',(-0.0200731291403599,-0.002,0.00862309660944919));
#564=CARTESIAN_POINT('',(-0.0220737959380193,-0.002,0.00840255749092189));
#565=CARTESIAN_POINT('',(-0.0240744236595395,-0.002,0.00811730331317743));
#566=CARTESIAN_POINT('',(-0.0260744973387342,-0.002,0.00776706619562018));
#567=CARTESIAN_POINT('',(-0.0280764035807329,-0.002,0.007353449352422));
#568=CARTESIAN_POINT('',(-0.0300730864259923,-0.002,0.00687577845035662));
#569=CARTESIAN_POINT('',(-0.0320922170730787,-0.002,0.00630784721979557));
#570=CARTESIAN_POINT('',(-0.0340284275378221,-0.002,0.00567974756942828));
#571=CARTESIAN_POINT('',(-0.0360583998060493,-0.002,0.00489736863581171));
#572=CARTESIAN_POINT('',(-0.0370507656632086,-0.002,0.00444593943356648));
#573=CARTESIAN_POINT('',(-0.0380898244070479,-0.002,0.00391915517120693));
#574=CARTESIAN_POINT('',(-0.0390859856732314,-0.002,0.00331805205295446));
#575=CARTESIAN_POINT('',(-0.0400655465246879,-0.002,0.00257744560685602));
#576=CARTESIAN_POINT('',(-0.0408661417523482,-0.002,0.00179385539851684));
#577=CARTESIAN_POINT('',(-0.041262109229364,-0.002,0.00139576275004718));
#578=CARTESIAN_POINT('',(-0.0416771249494296,-0.002,0.000905920501029427));
#579=CARTESIAN_POINT('',(-0.0418691221317055,-0.002,0.000596130796454624));
#580=CARTESIAN_POINT('',(-0.0419743774551362,-0.002,0.000376579023169542));
#581=CARTESIAN_POINT('',(-0.0420234342532652,-0.002,0.000227769342989803));
#582=CARTESIAN_POINT('',(-0.0421003419810339,-0.002,6.46354805119603E-6));
#583=CARTESIAN_POINT('',(-0.0420338917470509,-0.002,-0.00047307393125797));
#584=CARTESIAN_POINT('',(-0.0419738962968933,-0.002,-0.000589339123458142));
#585=CARTESIAN_POINT('',(-0.0418697039774267,-0.002,-0.000798611812321311));
#586=CARTESIAN_POINT('',(-0.0416796436032932,-0.002,-0.00106506377212151));
#587=CARTESIAN_POINT('',(-0.0412660798111329,-0.002,-0.00144881971425453));
#588=CARTESIAN_POINT('',(-0.0408762516553339,-0.002,-0.00171879971961496));
#589=CARTESIAN_POINT('',(-0.0400565706911713,-0.002,-0.00206841415945571));
#590=CARTESIAN_POINT('',(-0.0390690667407945,-0.002,-0.00225968604704608));
#591=CARTESIAN_POINT('',(-0.0380814175248807,-0.002,-0.0024594037203994));
#592=CARTESIAN_POINT('',(-0.037046397136422,-0.002,-0.00261358240235408));
#593=CARTESIAN_POINT('',(-0.0360515263690366,-0.002,-0.00272592934953743));
#594=CARTESIAN_POINT('',(-0.0340193334108899,-0.002,-0.0028552551033992));
#595=CARTESIAN_POINT('',(-0.0320863618481524,-0.002,-0.002942513102697));
#596=CARTESIAN_POINT('',(-0.0300682000176095,-0.002,-0.00300177873848278));
#597=CARTESIAN_POINT('',(-0.0280729063339156,-0.002,-0.00302832874191525));
#598=CARTESIAN_POINT('',(-0.0260715403423772,-0.002,-0.00302914330759467));
#599=CARTESIAN_POINT('',(-0.0240718478218277,-0.002,-0.00300785692245902));
#600=CARTESIAN_POINT('',(-0.0220717435600557,-0.002,-0.002968823198731));
#601=CARTESIAN_POINT('',(-0.0200717708631845,-0.002,-0.00291619978793794));
#602=CARTESIAN_POINT('',(-0.0180717773082257,-0.002,-0.00285306478024695));
#603=CARTESIAN_POINT('',(-0.0160718009982127,-0.002,-0.00278238879559041));
#604=CARTESIAN_POINT('',(-0.0140718273808043,-0.002,-0.00270721127641045));
#605=CARTESIAN_POINT('',(-0.0120718532590637,-0.002,-0.00263052284015593));
#606=CARTESIAN_POINT('',(-0.0100718533162247,-0.002,-0.00255543901765009));
#607=CARTESIAN_POINT('',(-0.00807184923720685,-0.002,-0.00248162353975904));
#608=CARTESIAN_POINT('',(-0.00607184550177541,-0.002,-0.00240862850623401));
#609=CARTESIAN_POINT('',(-0.00407184153800925,-0.002,-0.00233606326698059));
#610=CARTESIAN_POINT('',(-0.00207183835182532,-0.002,-0.00226347842809506));
#611=CARTESIAN_POINT('',(-7.18383825555474E-5,-0.002,-0.00219048241571649));
#612=CARTESIAN_POINT('',(0.00192816020102042,-0.002,-0.00211711124087432));
#613=CARTESIAN_POINT('',(0.0039281594866256,-0.002,-0.00204355218552955));
#614=CARTESIAN_POINT('',(0.00592815833879096,-0.002,-0.0019698597803698));
#615=CARTESIAN_POINT('',(0.00792815733767452,-0.002,-0.0018961686884796));
#616=CARTESIAN_POINT('',(0.00992815752815907,-0.002,-0.00182260564384896));
#617=CARTESIAN_POINT('',(0.0119281577724406,-0.002,-0.00174912891383766));
#618=CARTESIAN_POINT('',(0.0139281581989419,-0.002,-0.00167571881979197));
#619=CARTESIAN_POINT('',(0.015928158205688,-0.002,-0.0016023158540902));
#620=CARTESIAN_POINT('',(0.0179281586688543,-0.002,-0.00152893777729729));
#621=CARTESIAN_POINT('',(0.0199281585199222,-0.002,-0.00145551298739282));
#622=CARTESIAN_POINT('',(0.0219281584084041,-0.002,-0.00138207023274642));
#623=CARTESIAN_POINT('',(0.0239281585758305,-0.002,-0.00130862605693202));
#624=CARTESIAN_POINT('',(0.025928158201166,-0.002,-0.00123514550808978));
#625=CARTESIAN_POINT('',(0.0279281583708352,-0.002,-0.00116169192193748));
#626=CARTESIAN_POINT('',(0.0299281582502545,-0.002,-0.00108822680865118));
#627=CARTESIAN_POINT('',(0.0319281582572662,-0.002,-0.00101478085917398));
#628=CARTESIAN_POINT('',(0.0339281587165805,-0.002,-0.000941329756897781));
#629=CARTESIAN_POINT('',(0.0359281569334415,-0.002,-0.0008678801132349));
#630=CARTESIAN_POINT('',(0.0379281636066831,-0.002,-0.000794429790162622));
#631=CARTESIAN_POINT('',(0.0399281386968559,-0.002,-0.000720980726114616));
#632=CARTESIAN_POINT('',(0.0419282316629229,-0.002,-0.00064752730537891));
#633=CARTESIAN_POINT('',(0.043927884708482,-0.002,-0.000574090052369743));
#634=CARTESIAN_POINT('',(0.0459291795601788,-0.002,-0.00050059248514212));
#635=CARTESIAN_POINT('',(0.0479243471078326,-0.002,-0.00042732000706178));
#636=CARTESIAN_POINT('',(0.0499423820655204,-0.002,-0.000353207486610764));
#637=CARTESIAN_POINT('',(0.0518750746871155,-0.002,-0.000282230046495165));
#638=CARTESIAN_POINT('',(0.0539064826545121,-0.002,-0.000207624243617701));
#639=CARTESIAN_POINT('',(0.0549016256249178,-0.002,-0.000171083974304268));
#640=CARTESIAN_POINT('',(0.0559352338457592,-0.002,-0.000133132936091612));
#641=CARTESIAN_POINT('',(0.0569263894822544,-0.002,-9.67242654207191E-5));
#642=CARTESIAN_POINT('',(0.0575942353893103,-0.002,-7.21947551402396E-5));
#643=CARTESIAN_POINT('',(0.0579281583428383,-0.002,-5.993E-5));
#644=CARTESIAN_POINT('',(0.0264507960528135,-0.002,0.00287458137609064));
#645=CARTESIAN_POINT('',(0.0264330171048641,-0.002,0.00120333023369312));
#646=CARTESIAN_POINT('',(0.0264685750007629,-0.002,0.00454583251848817));
#647=CARTESIAN_POINT('',(0.0264685750007629,-0.002,0.00454583251848817));
#648=CARTESIAN_POINT('',(0.0330661809546942,-0.002,0.00352638164766291));
#649=CARTESIAN_POINT('',(0.0462127657908448,-0.002,0.00149499367857606));
#650=CARTESIAN_POINT('',(0.0330099883605421,-0.002,0.00130031134926648));
#651=CARTESIAN_POINT('',(0.0264330171048641,-0.002,0.00120333023369312));
#652=CARTESIAN_POINT('',(-0.0169587074778974,-0.002,0.00670689065009356));
#653=CARTESIAN_POINT('',(-0.0200810339301825,-0.002,0.00670689065009356));
#654=CARTESIAN_POINT('',(-0.0138363810256124,-0.002,0.00670689065009356));
#655=CARTESIAN_POINT('',(-0.0138363810256124,-0.002,0.00670689065009356));
#656=CARTESIAN_POINT('',(-0.0133232478402812,-0.002,0.00556914823753448));
#657=CARTESIAN_POINT('',(-0.0122999732893308,-0.002,0.00330029701218029));
#658=CARTESIAN_POINT('',(-0.0134150349693241,-0.002,0.00109795262104036));
#659=CARTESIAN_POINT('',(-0.0139709357172251,-0.002,-2.4379445596531E-19));
#660=CARTESIAN_POINT('',(-0.0139709357172251,-0.002,0.));
#661=CARTESIAN_POINT('',(-0.0170576991513372,-0.002,0.));
#662=CARTESIAN_POINT('',(-0.0201444625854492,-0.002,0.));
#663=CARTESIAN_POINT('',(-0.0200810339301825,-0.002,0.00670689065009356));
#664=CARTESIAN_POINT('',(-0.020586882133186,-0.002,0.00555864880571301));
#665=CARTESIAN_POINT('',(-0.0215872386215217,-0.002,0.00328790597736152));
#666=CARTESIAN_POINT('',(-0.0206217396718348,-0.002,0.00108765473361793));
#667=CARTESIAN_POINT('',(-0.0201444625854492,-0.002,-2.44276959076427E-19));
#668=CARTESIAN_POINT('',(-0.0267244186252356,-0.002,0.00595551170408726));
#669=CARTESIAN_POINT('',(-0.0339220190191507,-0.002,0.00379921556820217));
#670=CARTESIAN_POINT('',(-0.0480500372059898,-0.002,-0.000433332691874869));
#671=CARTESIAN_POINT('',(-0.0270239972646669,-0.002,-1.81170129994864E-5));
#672=CARTESIAN_POINT('',(-0.0266646165400743,-0.002,6.43745039913268E-20));
#673=CARTESIAN_POINT('',(-0.0267244186252356,-0.002,0.00595551170408726));
#674=CARTESIAN_POINT('',(-0.0266646165400743,-0.002,0.));
#675=CARTESIAN_POINT('',(-0.0266945244089522,-0.002,0.00297843566267394));
#676=CARTESIAN_POINT('',(0.00791390818090216,0.,0.00306862525261701));
#677=CARTESIAN_POINT('',(-0.0138363810256124,0.,0.00670689065009356));
#678=CARTESIAN_POINT('',(-0.0133232478402812,0.,0.00556914823753448));
#679=CARTESIAN_POINT('',(-0.0122999732893308,0.,0.00330029701218029));
#680=CARTESIAN_POINT('',(-0.0134150349693241,0.,0.00109795262104036));
#681=CARTESIAN_POINT('',(-0.0139709357172251,0.,-2.4379445596531E-19));
#682=CARTESIAN_POINT('',(-0.0138363810256124,0.,0.00670689065009356));
#683=CARTESIAN_POINT('',(-0.0139709357172251,0.,0.));
#684=CARTESIAN_POINT('',(0.00791390818090216,0.,0.00670689065009356));
#685=CARTESIAN_POINT('',(-0.0200810339301825,0.,0.00670689065009356));
#686=CARTESIAN_POINT('',(-0.0200810339301825,0.,0.00670689065009356));
#687=CARTESIAN_POINT('',(-0.020586882133186,0.,0.00555864880571301));
#688=CARTESIAN_POINT('',(-0.0215872386215217,0.,0.00328790597736152));
#689=CARTESIAN_POINT('',(-0.0206217396718348,0.,0.00108765473361793));
#690=CARTESIAN_POINT('',(-0.0201444625854492,0.,-2.44276959076427E-19));
#691=CARTESIAN_POINT('',(-0.0201444625854492,0.,-2.44276959076427E-19));
#692=CARTESIAN_POINT('',(0.00791390818090216,0.,0.));
#693=CARTESIAN_POINT('',(0.0069426316767931,0.,0.00693105347454548));
#694=CARTESIAN_POINT('',(0.00755569682959586,0.,0.00581361782590814));
#695=CARTESIAN_POINT('',(0.0087932572896102,0.,0.00355791275273305));
#696=CARTESIAN_POINT('',(0.00761950245372274,0.,0.00119325095233866));
#697=CARTESIAN_POINT('',(0.00702720461413264,0.,1.05088040045335E-18));
#698=CARTESIAN_POINT('',(0.0069426316767931,0.,0.00693105347454548));
#699=CARTESIAN_POINT('',(0.00702720461413264,0.,1.05088040045335E-18));
#700=CARTESIAN_POINT('',(0.00791390818090216,0.,0.00693105347454548));
#701=CARTESIAN_POINT('',(-0.00803557876497507,0.,0.00693105347454548));
#702=CARTESIAN_POINT('',(-0.00803557876497507,0.,0.00693105347454548));
#703=CARTESIAN_POINT('',(-0.00865971618815083,0.,0.00571002078530016));
#704=CARTESIAN_POINT('',(-0.00988195759549017,0.,0.00331888598534399));
#705=CARTESIAN_POINT('',(-0.00868238959825519,0.,0.00109047378595553));
#706=CARTESIAN_POINT('',(-0.00809538085013628,0.,-8.63277270126795E-19));
#707=CARTESIAN_POINT('',(-0.00809538085013628,0.,0.));
#708=CARTESIAN_POINT('',(0.00791390818090216,0.,0.));
#709=CARTESIAN_POINT('',(0.0214889086782932,0.,0.00534913223236799));
#710=CARTESIAN_POINT('',(0.0218673764126602,0.,0.00446002138731656));
#711=CARTESIAN_POINT('',(0.0226266629154979,0.,0.00267627655817446));
#712=CARTESIAN_POINT('',(0.0218215792674464,0.,0.000893931787370359));
#713=CARTESIAN_POINT('',(0.0214177910238505,0.,6.58571735659857E-19));
#714=CARTESIAN_POINT('',(0.0214889086782932,0.,0.00534913223236799));
#715=CARTESIAN_POINT('',(0.0214177910238505,0.,6.58571735659857E-19));
#716=CARTESIAN_POINT('',(0.00791390818090216,0.,0.00534913223236799));
#717=CARTESIAN_POINT('',(0.0127327758818865,0.,0.00534913223236799));
#718=CARTESIAN_POINT('',(0.0127327758818865,0.,0.00534913223236799));
#719=CARTESIAN_POINT('',(0.0122033263123479,0.,0.00437880494082695));
#720=CARTESIAN_POINT('',(0.0111797269777402,0.,0.00250284464712288));
#721=CARTESIAN_POINT('',(0.0121415769040249,0.,0.000814877831022009));
#722=CARTESIAN_POINT('',(0.0126059167087078,0.,-2.77871575429565E-19));
#723=CARTESIAN_POINT('',(0.0126059167087078,0.,0.));
#724=CARTESIAN_POINT('',(0.00791390818090216,0.,0.));
#725=CARTESIAN_POINT('',(0.0579281583428383,0.,0.));
#726=CARTESIAN_POINT('',(0.0579281583428383,0.,5.993E-5));
#727=CARTESIAN_POINT('',(0.0579281583428383,0.,-5.993E-5));
#728=CARTESIAN_POINT('',(0.0579281583428383,0.,5.993E-5));
#729=CARTESIAN_POINT('',(0.0575942377706302,0.,0.000139082633970679));
#730=CARTESIAN_POINT('',(0.0569264160862447,0.,0.000297383289100407));
#731=CARTESIAN_POINT('',(0.0559353042101314,0.,0.000531894971445054));
#732=CARTESIAN_POINT('',(0.0549016966867542,0.,0.000775047311518716));
#733=CARTESIAN_POINT('',(0.0539067650601068,0.,0.00100812995086517));
#734=CARTESIAN_POINT('',(0.0518757379548652,0.,0.00147656718268993));
#735=CARTESIAN_POINT('',(0.0499429050699569,0.,0.00190984626527734));
#736=CARTESIAN_POINT('',(0.04792487528916,0.,0.00235267953378017));
#737=CARTESIAN_POINT('',(0.045929690789861,0.,0.00278025300578673));
#738=CARTESIAN_POINT('',(0.0439284078045286,0.,0.00319911268886441));
#739=CARTESIAN_POINT('',(0.0419287570703164,0.,0.00360704964369335));
#740=CARTESIAN_POINT('',(0.0399286657764616,0.,0.00400421432613538));
#741=CARTESIAN_POINT('',(0.0379286897555311,0.,0.00439017442016417));
#742=CARTESIAN_POINT('',(0.0359286743284258,0.,0.00476464931007302));
#743=CARTESIAN_POINT('',(0.0339286664545705,0.,0.00512751623129993));
#744=CARTESIAN_POINT('',(0.0319286552922804,0.,0.00547864213399143));
#745=CARTESIAN_POINT('',(0.0299286424514769,0.,0.00581790085119778));
#746=CARTESIAN_POINT('',(0.027928632054197,0.,0.00614520998013013));
#747=CARTESIAN_POINT('',(0.0259286525150919,0.,0.00646053765465658));
#748=CARTESIAN_POINT('',(0.0239286734526225,0.,0.0067627616445454));
#749=CARTESIAN_POINT('',(0.021928688651598,0.,0.00705072068383664));
#750=CARTESIAN_POINT('',(0.0199286952617564,0.,0.00732323104810503));
#751=CARTESIAN_POINT('',(0.0179286958198179,0.,0.00757923029056207));
#752=CARTESIAN_POINT('',(0.0159286643059657,0.,0.00781743323338267));
#753=CARTESIAN_POINT('',(0.0139286279654981,0.,0.00803774915152968));
#754=CARTESIAN_POINT('',(0.0119285888908668,0.,0.00824007251046552));
#755=CARTESIAN_POINT('',(0.00992855127064042,0.,0.00842443071595084));
#756=CARTESIAN_POINT('',(0.00792851369038927,0.,0.00859069774906474));
#757=CARTESIAN_POINT('',(0.00592849326647813,0.,0.0087389291337474));
#758=CARTESIAN_POINT('',(0.00392846891850305,0.,0.00886776664373077));
#759=CARTESIAN_POINT('',(0.00192843075677789,0.,0.00897551467386967));
#760=CARTESIAN_POINT('',(-7.16205930001643E-5,0.,0.00906059616701583));
#761=CARTESIAN_POINT('',(-0.00207168785775025,0.,0.00912147236099203));
#762=CARTESIAN_POINT('',(-0.00407177307012359,0.,0.00915621210469732));
#763=CARTESIAN_POINT('',(-0.0060718445384635,0.,0.00916639381282869));
#764=CARTESIAN_POINT('',(-0.00807189838526973,0.,0.0091541721748911));
#765=CARTESIAN_POINT('',(-0.0100719378677511,0.,0.00912165352744723));
#766=CARTESIAN_POINT('',(-0.0120719647179198,0.,0.00907062169899033));
#767=CARTESIAN_POINT('',(-0.0140720735830753,0.,0.0090040751925919));
#768=CARTESIAN_POINT('',(-0.0160722892447312,0.,0.0089139775812063));
#769=CARTESIAN_POINT('',(-0.0180726259720787,0.,0.00879026137144399));
#770=CARTESIAN_POINT('',(-0.0200731291403599,0.,0.00862309660944919));
#771=CARTESIAN_POINT('',(-0.0220737959380193,0.,0.00840255749092189));
#772=CARTESIAN_POINT('',(-0.0240744236595395,0.,0.00811730331317743));
#773=CARTESIAN_POINT('',(-0.0260744973387342,0.,0.00776706619562018));
#774=CARTESIAN_POINT('',(-0.0280764035807329,0.,0.007353449352422));
#775=CARTESIAN_POINT('',(-0.0300730864259923,0.,0.00687577845035662));
#776=CARTESIAN_POINT('',(-0.0320922170730787,0.,0.00630784721979557));
#777=CARTESIAN_POINT('',(-0.0340284275378221,0.,0.00567974756942828));
#778=CARTESIAN_POINT('',(-0.0360583998060493,0.,0.00489736863581171));
#779=CARTESIAN_POINT('',(-0.0370507656632086,0.,0.00444593943356648));
#780=CARTESIAN_POINT('',(-0.0380898244070479,0.,0.00391915517120693));
#781=CARTESIAN_POINT('',(-0.0390859856732314,0.,0.00331805205295446));
#782=CARTESIAN_POINT('',(-0.0400655465246879,0.,0.00257744560685602));
#783=CARTESIAN_POINT('',(-0.0408661417523482,0.,0.00179385539851684));
#784=CARTESIAN_POINT('',(-0.041262109229364,0.,0.00139576275004718));
#785=CARTESIAN_POINT('',(-0.0416771249494296,0.,0.000905920501029427));
#786=CARTESIAN_POINT('',(-0.0418691221317055,0.,0.000596130796454624));
#787=CARTESIAN_POINT('',(-0.0419743774551362,0.,0.000376579023169542));
#788=CARTESIAN_POINT('',(-0.0420234342532652,0.,0.000227769342989803));
#789=CARTESIAN_POINT('',(-0.0421003419810339,0.,6.46354805119603E-6));
#790=CARTESIAN_POINT('',(-0.0420338917470509,0.,-0.00047307393125797));
#791=CARTESIAN_POINT('',(-0.0419738962968933,0.,-0.000589339123458142));
#792=CARTESIAN_POINT('',(-0.0418697039774267,0.,-0.000798611812321311));
#793=CARTESIAN_POINT('',(-0.0416796436032932,0.,-0.00106506377212151));
#794=CARTESIAN_POINT('',(-0.0412660798111329,0.,-0.00144881971425453));
#795=CARTESIAN_POINT('',(-0.0408762516553339,0.,-0.00171879971961496));
#796=CARTESIAN_POINT('',(-0.0400565706911713,0.,-0.00206841415945571));
#797=CARTESIAN_POINT('',(-0.0390690667407945,0.,-0.00225968604704608));
#798=CARTESIAN_POINT('',(-0.0380814175248807,0.,-0.0024594037203994));
#799=CARTESIAN_POINT('',(-0.037046397136422,0.,-0.00261358240235408));
#800=CARTESIAN_POINT('',(-0.0360515263690366,0.,-0.00272592934953743));
#801=CARTESIAN_POINT('',(-0.0340193334108899,0.,-0.0028552551033992));
#802=CARTESIAN_POINT('',(-0.0320863618481524,0.,-0.002942513102697));
#803=CARTESIAN_POINT('',(-0.0300682000176095,0.,-0.00300177873848278));
#804=CARTESIAN_POINT('',(-0.0280729063339156,0.,-0.00302832874191525));
#805=CARTESIAN_POINT('',(-0.0260715403423772,0.,-0.00302914330759467));
#806=CARTESIAN_POINT('',(-0.0240718478218277,0.,-0.00300785692245902));
#807=CARTESIAN_POINT('',(-0.0220717435600557,0.,-0.002968823198731));
#808=CARTESIAN_POINT('',(-0.0200717708631845,0.,-0.00291619978793794));
#809=CARTESIAN_POINT('',(-0.0180717773082257,0.,-0.00285306478024695));
#810=CARTESIAN_POINT('',(-0.0160718009982127,0.,-0.00278238879559041));
#811=CARTESIAN_POINT('',(-0.0140718273808043,0.,-0.00270721127641045));
#812=CARTESIAN_POINT('',(-0.0120718532590637,0.,-0.00263052284015593));
#813=CARTESIAN_POINT('',(-0.0100718533162247,0.,-0.00255543901765009));
#814=CARTESIAN_POINT('',(-0.00807184923720685,0.,-0.00248162353975904));
#815=CARTESIAN_POINT('',(-0.00607184550177541,0.,-0.00240862850623401));
#816=CARTESIAN_POINT('',(-0.00407184153800925,0.,-0.00233606326698059));
#817=CARTESIAN_POINT('',(-0.00207183835182532,0.,-0.00226347842809506));
#818=CARTESIAN_POINT('',(-7.18383825555474E-5,0.,-0.00219048241571649));
#819=CARTESIAN_POINT('',(0.00192816020102042,0.,-0.00211711124087432));
#820=CARTESIAN_POINT('',(0.0039281594866256,0.,-0.00204355218552955));
#821=CARTESIAN_POINT('',(0.00592815833879096,0.,-0.0019698597803698));
#822=CARTESIAN_POINT('',(0.00792815733767452,0.,-0.0018961686884796));
#823=CARTESIAN_POINT('',(0.00992815752815907,0.,-0.00182260564384896));
#824=CARTESIAN_POINT('',(0.0119281577724406,0.,-0.00174912891383766));
#825=CARTESIAN_POINT('',(0.0139281581989419,0.,-0.00167571881979197));
#826=CARTESIAN_POINT('',(0.015928158205688,0.,-0.0016023158540902));
#827=CARTESIAN_POINT('',(0.0179281586688543,0.,-0.00152893777729729));
#828=CARTESIAN_POINT('',(0.0199281585199222,0.,-0.00145551298739282));
#829=CARTESIAN_POINT('',(0.0219281584084041,0.,-0.00138207023274642));
#830=CARTESIAN_POINT('',(0.0239281585758305,0.,-0.00130862605693202));
#831=CARTESIAN_POINT('',(0.025928158201166,0.,-0.00123514550808978));
#832=CARTESIAN_POINT('',(0.0279281583708352,0.,-0.00116169192193748));
#833=CARTESIAN_POINT('',(0.0299281582502545,0.,-0.00108822680865118));
#834=CARTESIAN_POINT('',(0.0319281582572662,0.,-0.00101478085917398));
#835=CARTESIAN_POINT('',(0.0339281587165805,0.,-0.000941329756897781));
#836=CARTESIAN_POINT('',(0.0359281569334415,0.,-0.0008678801132349));
#837=CARTESIAN_POINT('',(0.0379281636066831,0.,-0.000794429790162622));
#838=CARTESIAN_POINT('',(0.0399281386968559,0.,-0.000720980726114616));
#839=CARTESIAN_POINT('',(0.0419282316629229,0.,-0.00064752730537891));
#840=CARTESIAN_POINT('',(0.043927884708482,0.,-0.000574090052369743));
#841=CARTESIAN_POINT('',(0.0459291795601788,0.,-0.00050059248514212));
#842=CARTESIAN_POINT('',(0.0479243471078326,0.,-0.00042732000706178));
#843=CARTESIAN_POINT('',(0.0499423820655204,0.,-0.000353207486610764));
#844=CARTESIAN_POINT('',(0.0518750746871155,0.,-0.000282230046495165));
#845=CARTESIAN_POINT('',(0.0539064826545121,0.,-0.000207624243617701));
#846=CARTESIAN_POINT('',(0.0549016256249178,0.,-0.000171083974304268));
#847=CARTESIAN_POINT('',(0.0559352338457592,0.,-0.000133132936091612));
#848=CARTESIAN_POINT('',(0.0569263894822544,0.,-9.67242654207191E-5));
#849=CARTESIAN_POINT('',(0.0575942353893103,0.,-7.21947551402396E-5));
#850=CARTESIAN_POINT('',(0.0579281583428383,0.,-5.993E-5));
#851=CARTESIAN_POINT('',(0.0264685750007629,0.,0.00454583251848817));
#852=CARTESIAN_POINT('',(0.0330661809546942,0.,0.00352638164766291));
#853=CARTESIAN_POINT('',(0.0462127657908448,0.,0.00149499367857606));
#854=CARTESIAN_POINT('',(0.0330099883605421,0.,0.00130031134926648));
#855=CARTESIAN_POINT('',(0.0264330171048641,0.,0.00120333023369312));
#856=CARTESIAN_POINT('',(0.0264685750007629,0.,0.00454583251848817));
#857=CARTESIAN_POINT('',(0.0264330171048641,0.,0.00120333023369312));
#858=CARTESIAN_POINT('',(0.0264507625091886,0.,0.00287142821867773));
#859=CARTESIAN_POINT('',(-0.0266919406992268,0.,0.0027211316996474));
#860=CARTESIAN_POINT('',(-0.0267244186252356,0.,0.00595551170408726));
#861=CARTESIAN_POINT('',(-0.0266646165400743,0.,6.43745039913268E-20));
#862=CARTESIAN_POINT('',(-0.0267244186252356,0.,0.00595551170408726));
#863=CARTESIAN_POINT('',(-0.0339220190191507,0.,0.00379921556820217));
#864=CARTESIAN_POINT('',(-0.0480500372059898,0.,-0.000433332691874869));
#865=CARTESIAN_POINT('',(-0.0270239972646669,0.,-1.81170129994864E-5));
#866=CARTESIAN_POINT('',(-0.0266646165400743,0.,6.43745039913268E-20));
#867=CARTESIAN_POINT('',(0.0579281583428383,-0.002,0.));
#868=CARTESIAN_POINT('',(0.0579281583428383,-0.002,5.993E-5));
#869=CARTESIAN_POINT('',(0.0579281583428383,-0.002,-5.993E-5));
#870=CARTESIAN_POINT('',(0.0579281583428383,-0.002,5.993E-5));
#871=CARTESIAN_POINT('',(0.0579281583428383,0.,5.993E-5));
#872=CARTESIAN_POINT('',(0.0575942377706302,-0.002,0.000139082633970679));
#873=CARTESIAN_POINT('',(0.0575942377706302,0.,0.000139082633970679));
#874=CARTESIAN_POINT('',(0.0569264160862447,-0.002,0.000297383289100407));
#875=CARTESIAN_POINT('',(0.0569264160862447,0.,0.000297383289100407));
#876=CARTESIAN_POINT('',(0.0559353042101314,-0.002,0.000531894971445054));
#877=CARTESIAN_POINT('',(0.0559353042101314,0.,0.000531894971445054));
#878=CARTESIAN_POINT('',(0.0549016966867542,-0.002,0.000775047311518716));
#879=CARTESIAN_POINT('',(0.0549016966867542,0.,0.000775047311518716));
#880=CARTESIAN_POINT('',(0.0539067650601068,-0.002,0.00100812995086517));
#881=CARTESIAN_POINT('',(0.0539067650601068,0.,0.00100812995086517));
#882=CARTESIAN_POINT('',(0.0518757379548652,-0.002,0.00147656718268993));
#883=CARTESIAN_POINT('',(0.0518757379548652,0.,0.00147656718268993));
#884=CARTESIAN_POINT('',(0.0499429050699569,-0.002,0.00190984626527734));
#885=CARTESIAN_POINT('',(0.0499429050699569,0.,0.00190984626527734));
#886=CARTESIAN_POINT('',(0.04792487528916,-0.002,0.00235267953378017));
#887=CARTESIAN_POINT('',(0.04792487528916,0.,0.00235267953378017));
#888=CARTESIAN_POINT('',(0.045929690789861,-0.002,0.00278025300578673));
#889=CARTESIAN_POINT('',(0.045929690789861,0.,0.00278025300578673));
#890=CARTESIAN_POINT('',(0.0439284078045286,-0.002,0.00319911268886441));
#891=CARTESIAN_POINT('',(0.0439284078045286,0.,0.00319911268886441));
#892=CARTESIAN_POINT('',(0.0419287570703164,-0.002,0.00360704964369335));
#893=CARTESIAN_POINT('',(0.0419287570703164,0.,0.00360704964369335));
#894=CARTESIAN_POINT('',(0.0399286657764616,-0.002,0.00400421432613538));
#895=CARTESIAN_POINT('',(0.0399286657764616,0.,0.00400421432613538));
#896=CARTESIAN_POINT('',(0.0379286897555311,-0.002,0.00439017442016417));
#897=CARTESIAN_POINT('',(0.0379286897555311,0.,0.00439017442016417));
#898=CARTESIAN_POINT('',(0.0359286743284258,-0.002,0.00476464931007302));
#899=CARTESIAN_POINT('',(0.0359286743284258,0.,0.00476464931007302));
#900=CARTESIAN_POINT('',(0.0339286664545705,-0.002,0.00512751623129993));
#901=CARTESIAN_POINT('',(0.0339286664545705,0.,0.00512751623129993));
#902=CARTESIAN_POINT('',(0.0319286552922804,-0.002,0.00547864213399143));
#903=CARTESIAN_POINT('',(0.0319286552922804,0.,0.00547864213399143));
#904=CARTESIAN_POINT('',(0.0299286424514769,-0.002,0.00581790085119778));
#905=CARTESIAN_POINT('',(0.0299286424514769,0.,0.00581790085119778));
#906=CARTESIAN_POINT('',(0.027928632054197,-0.002,0.00614520998013013));
#907=CARTESIAN_POINT('',(0.027928632054197,0.,0.00614520998013013));
#908=CARTESIAN_POINT('',(0.0259286525150919,-0.002,0.00646053765465658));
#909=CARTESIAN_POINT('',(0.0259286525150919,0.,0.00646053765465658));
#910=CARTESIAN_POINT('',(0.0239286734526225,-0.002,0.0067627616445454));
#911=CARTESIAN_POINT('',(0.0239286734526225,0.,0.0067627616445454));
#912=CARTESIAN_POINT('',(0.021928688651598,-0.002,0.00705072068383664));
#913=CARTESIAN_POINT('',(0.021928688651598,0.,0.00705072068383664));
#914=CARTESIAN_POINT('',(0.0199286952617564,-0.002,0.00732323104810503));
#915=CARTESIAN_POINT('',(0.0199286952617564,0.,0.00732323104810503));
#916=CARTESIAN_POINT('',(0.0179286958198179,-0.002,0.00757923029056207));
#917=CARTESIAN_POINT('',(0.0179286958198179,0.,0.00757923029056207));
#918=CARTESIAN_POINT('',(0.0159286643059657,-0.002,0.00781743323338267));
#919=CARTESIAN_POINT('',(0.0159286643059657,0.,0.00781743323338267));
#920=CARTESIAN_POINT('',(0.0139286279654981,-0.002,0.00803774915152968));
#921=CARTESIAN_POINT('',(0.0139286279654981,0.,0.00803774915152968));
#922=CARTESIAN_POINT('',(0.0119285888908668,-0.002,0.00824007251046552));
#923=CARTESIAN_POINT('',(0.0119285888908668,0.,0.00824007251046552));
#924=CARTESIAN_POINT('',(0.00992855127064042,-0.002,0.00842443071595084));
#925=CARTESIAN_POINT('',(0.00992855127064042,0.,0.00842443071595084));
#926=CARTESIAN_POINT('',(0.00792851369038927,-0.002,0.00859069774906474));
#927=CARTESIAN_POINT('',(0.00792851369038927,0.,0.00859069774906474));
#928=CARTESIAN_POINT('',(0.00592849326647813,-0.002,0.0087389291337474));
#929=CARTESIAN_POINT('',(0.00592849326647813,0.,0.0087389291337474));
#930=CARTESIAN_POINT('',(0.00392846891850305,-0.002,0.00886776664373077));
#931=CARTESIAN_POINT('',(0.00392846891850305,0.,0.00886776664373077));
#932=CARTESIAN_POINT('',(0.00192843075677789,-0.002,0.00897551467386967));
#933=CARTESIAN_POINT('',(0.00192843075677789,0.,0.00897551467386967));
#934=CARTESIAN_POINT('',(-7.16205930001643E-5,-0.002,0.00906059616701583));
#935=CARTESIAN_POINT('',(-7.16205930001643E-5,0.,0.00906059616701583));
#936=CARTESIAN_POINT('',(-0.00207168785775025,-0.002,0.00912147236099203));
#937=CARTESIAN_POINT('',(-0.00207168785775025,0.,0.00912147236099203));
#938=CARTESIAN_POINT('',(-0.00407177307012359,-0.002,0.00915621210469732));
#939=CARTESIAN_POINT('',(-0.00407177307012359,0.,0.00915621210469732));
#940=CARTESIAN_POINT('',(-0.0060718445384635,-0.002,0.00916639381282869));
#941=CARTESIAN_POINT('',(-0.0060718445384635,0.,0.00916639381282869));
#942=CARTESIAN_POINT('',(-0.00807189838526973,-0.002,0.0091541721748911));
#943=CARTESIAN_POINT('',(-0.00807189838526973,0.,0.0091541721748911));
#944=CARTESIAN_POINT('',(-0.0100719378677511,-0.002,0.00912165352744723));
#945=CARTESIAN_POINT('',(-0.0100719378677511,0.,0.00912165352744723));
#946=CARTESIAN_POINT('',(-0.0120719647179198,-0.002,0.00907062169899033));
#947=CARTESIAN_POINT('',(-0.0120719647179198,0.,0.00907062169899033));
#948=CARTESIAN_POINT('',(-0.0140720735830753,-0.002,0.0090040751925919));
#949=CARTESIAN_POINT('',(-0.0140720735830753,0.,0.0090040751925919));
#950=CARTESIAN_POINT('',(-0.0160722892447312,-0.002,0.0089139775812063));
#951=CARTESIAN_POINT('',(-0.0160722892447312,0.,0.0089139775812063));
#952=CARTESIAN_POINT('',(-0.0180726259720787,-0.002,0.00879026137144399));
#953=CARTESIAN_POINT('',(-0.0180726259720787,0.,0.00879026137144399));
#954=CARTESIAN_POINT('',(-0.0200731291403599,-0.002,0.00862309660944919));
#955=CARTESIAN_POINT('',(-0.0200731291403599,0.,0.00862309660944919));
#956=CARTESIAN_POINT('',(-0.0220737959380193,-0.002,0.00840255749092189));
#957=CARTESIAN_POINT('',(-0.0220737959380193,0.,0.00840255749092189));
#958=CARTESIAN_POINT('',(-0.0240744236595395,-0.002,0.00811730331317743));
#959=CARTESIAN_POINT('',(-0.0240744236595395,0.,0.00811730331317743));
#960=CARTESIAN_POINT('',(-0.0260744973387342,-0.002,0.00776706619562018));
#961=CARTESIAN_POINT('',(-0.0260744973387342,0.,0.00776706619562018));
#962=CARTESIAN_POINT('',(-0.0280764035807329,-0.002,0.007353449352422));
#963=CARTESIAN_POINT('',(-0.0280764035807329,0.,0.007353449352422));
#964=CARTESIAN_POINT('',(-0.0300730864259923,-0.002,0.00687577845035662));
#965=CARTESIAN_POINT('',(-0.0300730864259923,0.,0.00687577845035662));
#966=CARTESIAN_POINT('',(-0.0320922170730787,-0.002,0.00630784721979557));
#967=CARTESIAN_POINT('',(-0.0320922170730787,0.,0.00630784721979557));
#968=CARTESIAN_POINT('',(-0.0340284275378221,-0.002,0.00567974756942828));
#969=CARTESIAN_POINT('',(-0.0340284275378221,0.,0.00567974756942828));
#970=CARTESIAN_POINT('',(-0.0360583998060493,-0.002,0.00489736863581171));
#971=CARTESIAN_POINT('',(-0.0360583998060493,0.,0.00489736863581171));
#972=CARTESIAN_POINT('',(-0.0370507656632086,-0.002,0.00444593943356648));
#973=CARTESIAN_POINT('',(-0.0370507656632086,0.,0.00444593943356648));
#974=CARTESIAN_POINT('',(-0.0380898244070479,-0.002,0.00391915517120693));
#975=CARTESIAN_POINT('',(-0.0380898244070479,0.,0.00391915517120693));
#976=CARTESIAN_POINT('',(-0.0390859856732314,-0.002,0.00331805205295446));
#977=CARTESIAN_POINT('',(-0.0390859856732314,0.,0.00331805205295446));
#978=CARTESIAN_POINT('',(-0.0400655465246879,-0.002,0.00257744560685602));
#979=CARTESIAN_POINT('',(-0.0400655465246879,0.,0.00257744560685602));
#980=CARTESIAN_POINT('',(-0.0408661417523482,-0.002,0.00179385539851684));
#981=CARTESIAN_POINT('',(-0.0408661417523482,0.,0.00179385539851684));
#982=CARTESIAN_POINT('',(-0.041262109229364,-0.002,0.00139576275004718));
#983=CARTESIAN_POINT('',(-0.041262109229364,0.,0.00139576275004718));
#984=CARTESIAN_POINT('',(-0.0416771249494296,-0.002,0.000905920501029427));
#985=CARTESIAN_POINT('',(-0.0416771249494296,0.,0.000905920501029427));
#986=CARTESIAN_POINT('',(-0.0418691221317055,-0.002,0.000596130796454624));
#987=CARTESIAN_POINT('',(-0.0418691221317055,0.,0.000596130796454624));
#988=CARTESIAN_POINT('',(-0.0419743774551362,-0.002,0.000376579023169542));
#989=CARTESIAN_POINT('',(-0.0419743774551362,0.,0.000376579023169542));
#990=CARTESIAN_POINT('',(-0.0420234342532652,-0.002,0.000227769342989803));
#991=CARTESIAN_POINT('',(-0.0420234342532652,0.,0.000227769342989803));
#992=CARTESIAN_POINT('',(-0.0421003419810339,-0.002,6.46354805119603E-6));
#993=CARTESIAN_POINT('',(-0.0421003419810339,0.,6.46354805119603E-6));
#994=CARTESIAN_POINT('',(-0.0420338917470509,-0.002,-0.00047307393125797));
#995=CARTESIAN_POINT('',(-0.0420338917470509,0.,-0.00047307393125797));
#996=CARTESIAN_POINT('',(-0.0419738962968933,-0.002,-0.000589339123458142));
#997=CARTESIAN_POINT('',(-0.0419738962968933,0.,-0.000589339123458142));
#998=CARTESIAN_POINT('',(-0.0418697039774267,-0.002,-0.000798611812321311));
#999=CARTESIAN_POINT('',(-0.0418697039774267,0.,-0.000798611812321311));
#1000=CARTESIAN_POINT('',(-0.0416796436032932,-0.002,-0.00106506377212151));
#1001=CARTESIAN_POINT('',(-0.0416796436032932,0.,-0.00106506377212151));
#1002=CARTESIAN_POINT('',(-0.0412660798111329,-0.002,-0.00144881971425453));
#1003=CARTESIAN_POINT('',(-0.0412660798111329,0.,-0.00144881971425453));
#1004=CARTESIAN_POINT('',(-0.0408762516553339,-0.002,-0.00171879971961496));
#1005=CARTESIAN_POINT('',(-0.0408762516553339,0.,-0.00171879971961496));
#1006=CARTESIAN_POINT('',(-0.0400565706911713,-0.002,-0.00206841415945571));
#1007=CARTESIAN_POINT('',(-0.0400565706911713,0.,-0.00206841415945571));
#1008=CARTESIAN_POINT('',(-0.0390690667407945,-0.002,-0.00225968604704608));
#1009=CARTESIAN_POINT('',(-0.0390690667407945,0.,-0.00225968604704608));
#1010=CARTESIAN_POINT('',(-0.0380814175248807,-0.002,-0.0024594037203994));
#1011=CARTESIAN_POINT('',(-0.0380814175248807,0.,-0.0024594037203994));
#1012=CARTESIAN_POINT('',(-0.037046397136422,-0.002,-0.00261358240235408));
#1013=CARTESIAN_POINT('',(-0.037046397136422,0.,-0.00261358240235408));
#1014=CARTESIAN_POINT('',(-0.0360515263690366,-0.002,-0.00272592934953743));
#1015=CARTESIAN_POINT('',(-0.0360515263690366,0.,-0.00272592934953743));
#1016=CARTESIAN_POINT('',(-0.0340193334108899,-0.002,-0.0028552551033992));
#1017=CARTESIAN_POINT('',(-0.0340193334108899,0.,-0.0028552551033992));
#1018=CARTESIAN_POINT('',(-0.0320863618481524,-0.002,-0.002942513102697));
#1019=CARTESIAN_POINT('',(-0.0320863618481524,0.,-0.002942513102697));
#1020=CARTESIAN_POINT('',(-0.0300682000176095,-0.002,-0.00300177873848278));
#1021=CARTESIAN_POINT('',(-0.0300682000176095,0.,-0.00300177873848278));
#1022=CARTESIAN_POINT('',(-0.0280729063339156,-0.002,-0.00302832874191525));
#1023=CARTESIAN_POINT('',(-0.0280729063339156,0.,-0.00302832874191525));
#1024=CARTESIAN_POINT('',(-0.0260715403423772,-0.002,-0.00302914330759467));
#1025=CARTESIAN_POINT('',(-0.0260715403423772,0.,-0.00302914330759467));
#1026=CARTESIAN_POINT('',(-0.0240718478218277,-0.002,-0.00300785692245902));
#1027=CARTESIAN_POINT('',(-0.0240718478218277,0.,-0.00300785692245902));
#1028=CARTESIAN_POINT('',(-0.0220717435600557,-0.002,-0.002968823198731));
#1029=CARTESIAN_POINT('',(-0.0220717435600557,0.,-0.002968823198731));
#1030=CARTESIAN_POINT('',(-0.0200717708631845,-0.002,-0.00291619978793794));
#1031=CARTESIAN_POINT('',(-0.0200717708631845,0.,-0.00291619978793794));
#1032=CARTESIAN_POINT('',(-0.0180717773082257,-0.002,-0.00285306478024695));
#1033=CARTESIAN_POINT('',(-0.0180717773082257,0.,-0.00285306478024695));
#1034=CARTESIAN_POINT('',(-0.0160718009982127,-0.002,-0.00278238879559041));
#1035=CARTESIAN_POINT('',(-0.0160718009982127,0.,-0.00278238879559041));
#1036=CARTESIAN_POINT('',(-0.0140718273808043,-0.002,-0.00270721127641045));
#1037=CARTESIAN_POINT('',(-0.0140718273808043,0.,-0.00270721127641045));
#1038=CARTESIAN_POINT('',(-0.0120718532590637,-0.002,-0.00263052284015593));
#1039=CARTESIAN_POINT('',(-0.0120718532590637,0.,-0.00263052284015593));
#1040=CARTESIAN_POINT('',(-0.0100718533162247,-0.002,-0.00255543901765009));
#1041=CARTESIAN_POINT('',(-0.0100718533162247,0.,-0.00255543901765009));
#1042=CARTESIAN_POINT('',(-0.00807184923720685,-0.002,-0.00248162353975904));
#1043=CARTESIAN_POINT('',(-0.00807184923720685,0.,-0.00248162353975904));
#1044=CARTESIAN_POINT('',(-0.00607184550177541,-0.002,-0.00240862850623401));
#1045=CARTESIAN_POINT('',(-0.00607184550177541,0.,-0.00240862850623401));
#1046=CARTESIAN_POINT('',(-0.00407184153800925,-0.002,-0.00233606326698059));
#1047=CARTESIAN_POINT('',(-0.00407184153800925,0.,-0.00233606326698059));
#1048=CARTESIAN_POINT('',(-0.00207183835182532,-0.002,-0.00226347842809506));
#1049=CARTESIAN_POINT('',(-0.00207183835182532,0.,-0.00226347842809506));
#1050=CARTESIAN_POINT('',(-7.18383825555474E-5,-0.002,-0.00219048241571649));
#1051=CARTESIAN_POINT('',(-7.18383825555474E-5,0.,-0.00219048241571649));
#1052=CARTESIAN_POINT('',(0.00192816020102042,-0.002,-0.00211711124087432));
#1053=CARTESIAN_POINT('',(0.00192816020102042,0.,-0.00211711124087432));
#1054=CARTESIAN_POINT('',(0.0039281594866256,-0.002,-0.00204355218552955));
#1055=CARTESIAN_POINT('',(0.0039281594866256,0.,-0.00204355218552955));
#1056=CARTESIAN_POINT('',(0.00592815833879096,-0.002,-0.0019698597803698));
#1057=CARTESIAN_POINT('',(0.00592815833879096,0.,-0.0019698597803698));
#1058=CARTESIAN_POINT('',(0.00792815733767452,-0.002,-0.0018961686884796));
#1059=CARTESIAN_POINT('',(0.00792815733767452,0.,-0.0018961686884796));
#1060=CARTESIAN_POINT('',(0.00992815752815907,-0.002,-0.00182260564384896));
#1061=CARTESIAN_POINT('',(0.00992815752815907,0.,-0.00182260564384896));
#1062=CARTESIAN_POINT('',(0.0119281577724406,-0.002,-0.00174912891383766));
#1063=CARTESIAN_POINT('',(0.0119281577724406,0.,-0.00174912891383766));
#1064=CARTESIAN_POINT('',(0.0139281581989419,-0.002,-0.00167571881979197));
#1065=CARTESIAN_POINT('',(0.0139281581989419,0.,-0.00167571881979197));
#1066=CARTESIAN_POINT('',(0.015928158205688,-0.002,-0.0016023158540902));
#1067=CARTESIAN_POINT('',(0.015928158205688,0.,-0.0016023158540902));
#1068=CARTESIAN_POINT('',(0.0179281586688543,-0.002,-0.00152893777729729));
#1069=CARTESIAN_POINT('',(0.0179281586688543,0.,-0.00152893777729729));
#1070=CARTESIAN_POINT('',(0.0199281585199222,-0.002,-0.00145551298739282));
#1071=CARTESIAN_POINT('',(0.0199281585199222,0.,-0.00145551298739282));
#1072=CARTESIAN_POINT('',(0.0219281584084041,-0.002,-0.00138207023274642));
#1073=CARTESIAN_POINT('',(0.0219281584084041,0.,-0.00138207023274642));
#1074=CARTESIAN_POINT('',(0.0239281585758305,-0.002,-0.00130862605693202));
#1075=CARTESIAN_POINT('',(0.0239281585758305,0.,-0.00130862605693202));
#1076=CARTESIAN_POINT('',(0.025928158201166,-0.002,-0.00123514550808978));
#1077=CARTESIAN_POINT('',(0.025928158201166,0.,-0.00123514550808978));
#1078=CARTESIAN_POINT('',(0.0279281583708352,-0.002,-0.00116169192193748));
#1079=CARTESIAN_POINT('',(0.0279281583708352,0.,-0.00116169192193748));
#1080=CARTESIAN_POINT('',(0.0299281582502545,-0.002,-0.00108822680865118));
#1081=CARTESIAN_POINT('',(0.0299281582502545,0.,-0.00108822680865118));
#1082=CARTESIAN_POINT('',(0.0319281582572662,-0.002,-0.00101478085917398));
#1083=CARTESIAN_POINT('',(0.0319281582572662,0.,-0.00101478085917398));
#1084=CARTESIAN_POINT('',(0.0339281587165805,-0.002,-0.000941329756897781));
#1085=CARTESIAN_POINT('',(0.0339281587165805,0.,-0.000941329756897781));
#1086=CARTESIAN_POINT('',(0.0359281569334415,-0.002,-0.0008678801132349));
#1087=CARTESIAN_POINT('',(0.0359281569334415,0.,-0.0008678801132349));
#1088=CARTESIAN_POINT('',(0.0379281636066831,-0.002,-0.000794429790162622));
#1089=CARTESIAN_POINT('',(0.0379281636066831,0.,-0.000794429790162622));
#1090=CARTESIAN_POINT('',(0.0399281386968559,-0.002,-0.000720980726114616));
#1091=CARTESIAN_POINT('',(0.0399281386968559,0.,-0.000720980726114616));
#1092=CARTESIAN_POINT('',(0.0419282316629229,-0.002,-0.00064752730537891));
#1093=CARTESIAN_POINT('',(0.0419282316629229,0.,-0.00064752730537891));
#1094=CARTESIAN_POINT('',(0.043927884708482,-0.002,-0.000574090052369743));
#1095=CARTESIAN_POINT('',(0.043927884708482,0.,-0.000574090052369743));
#1096=CARTESIAN_POINT('',(0.0459291795601788,-0.002,-0.00050059248514212));
#1097=CARTESIAN_POINT('',(0.0459291795601788,0.,-0.00050059248514212));
#1098=CARTESIAN_POINT('',(0.0479243471078326,-0.002,-0.00042732000706178));
#1099=CARTESIAN_POINT('',(0.0479243471078326,0.,-0.00042732000706178));
#1100=CARTESIAN_POINT('',(0.0499423820655204,-0.002,-0.000353207486610764));
#1101=CARTESIAN_POINT('',(0.0499423820655204,0.,-0.000353207486610764));
#1102=CARTESIAN_POINT('',(0.0518750746871155,-0.002,-0.000282230046495165));
#1103=CARTESIAN_POINT('',(0.0518750746871155,0.,-0.000282230046495165));
#1104=CARTESIAN_POINT('',(0.0539064826545121,-0.002,-0.000207624243617701));
#1105=CARTESIAN_POINT('',(0.0539064826545121,0.,-0.000207624243617701));
#1106=CARTESIAN_POINT('',(0.0549016256249178,-0.002,-0.000171083974304268));
#1107=CARTESIAN_POINT('',(0.0549016256249178,0.,-0.000171083974304268));
#1108=CARTESIAN_POINT('',(0.0559352338457592,-0.002,-0.000133132936091612));
#1109=CARTESIAN_POINT('',(0.0559352338457592,0.,-0.000133132936091612));
#1110=CARTESIAN_POINT('',(0.0569263894822544,-0.002,-9.67242654207191E-5));
#1111=CARTESIAN_POINT('',(0.0569263894822544,0.,-9.67242654207191E-5));
#1112=CARTESIAN_POINT('',(0.0575942353893103,-0.002,-7.21947551402396E-5));
#1113=CARTESIAN_POINT('',(0.0575942353893103,0.,-7.21947551402396E-5));
#1114=CARTESIAN_POINT('',(0.0579281583428383,-0.002,-5.993E-5));
#1115=CARTESIAN_POINT('',(0.0579281583428383,0.,-5.993E-5));
#1116=CARTESIAN_POINT('',(0.0264685750007629,0.,0.00454583251848817));
#1117=CARTESIAN_POINT('',(0.0264685750007629,-0.002,0.00454583251848817));
#1118=CARTESIAN_POINT('',(0.0330661809546942,0.,0.00352638164766291));
#1119=CARTESIAN_POINT('',(0.0330661809546942,-0.002,0.00352638164766291));
#1120=CARTESIAN_POINT('',(0.0462127657908448,0.,0.00149499367857606));
#1121=CARTESIAN_POINT('',(0.0462127657908448,-0.002,0.00149499367857606));
#1122=CARTESIAN_POINT('',(0.0330099883605421,0.,0.00130031134926648));
#1123=CARTESIAN_POINT('',(0.0330099883605421,-0.002,0.00130031134926648));
#1124=CARTESIAN_POINT('',(0.0264330171048641,0.,0.00120333023369312));
#1125=CARTESIAN_POINT('',(0.0264330171048641,-0.002,0.00120333023369312));
#1126=CARTESIAN_POINT('',(0.0264330171048641,0.023,0.00120333023369312));
#1127=CARTESIAN_POINT('',(0.0264685750007629,0.023,0.00454583251848817));
#1128=CARTESIAN_POINT('',(0.0264507960528135,0.023,0.00287458137609064));
#1129=CARTESIAN_POINT('',(0.0171108422800898,0.023,0.00534913223236799));
#1130=CARTESIAN_POINT('',(0.0214889086782932,0.023,0.00534913223236799));
#1131=CARTESIAN_POINT('',(0.0127327758818865,0.023,0.00534913223236799));
#1132=CARTESIAN_POINT('',(0.0127327758818865,0.,0.00534913223236799));
#1133=CARTESIAN_POINT('',(0.0127327758818865,-0.002,0.00534913223236799));
#1134=CARTESIAN_POINT('',(0.0122033263123479,0.,0.00437880494082695));
#1135=CARTESIAN_POINT('',(0.0122033263123479,-0.002,0.00437880494082695));
#1136=CARTESIAN_POINT('',(0.0111797269777402,0.,0.00250284464712288));
#1137=CARTESIAN_POINT('',(0.0111797269777402,-0.002,0.00250284464712288));
#1138=CARTESIAN_POINT('',(0.0121415769040249,0.,0.000814877831022009));
#1139=CARTESIAN_POINT('',(0.0121415769040249,-0.002,0.000814877831022009));
#1140=CARTESIAN_POINT('',(0.0126059167087078,0.,-2.77871575429565E-19));
#1141=CARTESIAN_POINT('',(0.0126059167087078,-0.002,-2.77871575429565E-19));
#1142=CARTESIAN_POINT('',(0.0126059167087078,0.023,0.));
#1143=CARTESIAN_POINT('',(0.0170118538662791,0.023,0.));
#1144=CARTESIAN_POINT('',(0.0214177910238505,0.023,6.58571735659857E-19));
#1145=CARTESIAN_POINT('',(0.0214889086782932,0.,0.00534913223236799));
#1146=CARTESIAN_POINT('',(0.0214889086782932,-0.002,0.00534913223236799));
#1147=CARTESIAN_POINT('',(0.0218673764126602,0.,0.00446002138731656));
#1148=CARTESIAN_POINT('',(0.0218673764126602,-0.002,0.00446002138731656));
#1149=CARTESIAN_POINT('',(0.0226266629154979,0.,0.00267627655817446));
#1150=CARTESIAN_POINT('',(0.0226266629154979,-0.002,0.00267627655817446));
#1151=CARTESIAN_POINT('',(0.0218215792674464,0.,0.000893931787370359));
#1152=CARTESIAN_POINT('',(0.0218215792674464,-0.002,0.000893931787370359));
#1153=CARTESIAN_POINT('',(0.0214177910238505,0.,6.58571735659857E-19));
#1154=CARTESIAN_POINT('',(0.0214177910238505,-0.002,6.58571735659857E-19));
#1155=CARTESIAN_POINT('',(-0.000546473544090986,0.023,0.00693105347454548));
#1156=CARTESIAN_POINT('',(0.0069426316767931,0.023,0.00693105347454548));
#1157=CARTESIAN_POINT('',(-0.00803557876497507,0.023,0.00693105347454548));
#1158=CARTESIAN_POINT('',(-0.00803557876497507,0.,0.00693105347454548));
#1159=CARTESIAN_POINT('',(-0.00803557876497507,-0.002,0.00693105347454548));
#1160=CARTESIAN_POINT('',(-0.00865971618815083,0.,0.00571002078530016));
#1161=CARTESIAN_POINT('',(-0.00865971618815083,-0.002,0.00571002078530016));
#1162=CARTESIAN_POINT('',(-0.00988195759549017,0.,0.00331888598534399));
#1163=CARTESIAN_POINT('',(-0.00988195759549017,-0.002,0.00331888598534399));
#1164=CARTESIAN_POINT('',(-0.00868238959825519,0.,0.00109047378595553));
#1165=CARTESIAN_POINT('',(-0.00868238959825519,-0.002,0.00109047378595553));
#1166=CARTESIAN_POINT('',(-0.00809538085013628,0.,-8.63277270126795E-19));
#1167=CARTESIAN_POINT('',(-0.00809538085013628,-0.002,-8.63277270126795E-19));
#1168=CARTESIAN_POINT('',(-0.00809538085013628,0.023,0.));
#1169=CARTESIAN_POINT('',(-0.000534088118001818,0.023,0.));
#1170=CARTESIAN_POINT('',(0.00702720461413264,0.023,1.05088040045335E-18));
#1171=CARTESIAN_POINT('',(0.0069426316767931,0.,0.00693105347454548));
#1172=CARTESIAN_POINT('',(0.0069426316767931,-0.002,0.00693105347454548));
#1173=CARTESIAN_POINT('',(0.00755569682959586,0.,0.00581361782590814));
#1174=CARTESIAN_POINT('',(0.00755569682959586,-0.002,0.00581361782590814));
#1175=CARTESIAN_POINT('',(0.0087932572896102,0.,0.00355791275273305));
#1176=CARTESIAN_POINT('',(0.0087932572896102,-0.002,0.00355791275273305));
#1177=CARTESIAN_POINT('',(0.00761950245372274,0.,0.00119325095233866));
#1178=CARTESIAN_POINT('',(0.00761950245372274,-0.002,0.00119325095233866));
#1179=CARTESIAN_POINT('',(0.00702720461413264,0.,1.05088040045335E-18));
#1180=CARTESIAN_POINT('',(0.00702720461413264,-0.002,1.05088040045335E-18));
#1181=CARTESIAN_POINT('',(-0.0138363810256124,0.,0.00670689065009356));
#1182=CARTESIAN_POINT('',(-0.0138363810256124,-0.002,0.00670689065009356));
#1183=CARTESIAN_POINT('',(-0.0133232478402812,0.,0.00556914823753448));
#1184=CARTESIAN_POINT('',(-0.0133232478402812,-0.002,0.00556914823753448));
#1185=CARTESIAN_POINT('',(-0.0122999732893308,0.,0.00330029701218029));
#1186=CARTESIAN_POINT('',(-0.0122999732893308,-0.002,0.00330029701218029));
#1187=CARTESIAN_POINT('',(-0.0134150349693241,0.,0.00109795262104036));
#1188=CARTESIAN_POINT('',(-0.0134150349693241,-0.002,0.00109795262104036));
#1189=CARTESIAN_POINT('',(-0.0139709357172251,0.,-2.4379445596531E-19));
#1190=CARTESIAN_POINT('',(-0.0139709357172251,-0.002,-2.4379445596531E-19));
#1191=CARTESIAN_POINT('',(-0.0139709357172251,0.023,0.));
#1192=CARTESIAN_POINT('',(-0.0138363810256124,0.023,0.00670689065009356));
#1193=CARTESIAN_POINT('',(-0.0169587074778974,0.023,0.00670689065009356));
#1194=CARTESIAN_POINT('',(-0.0200810339301825,0.023,0.00670689065009356));
#1195=CARTESIAN_POINT('',(-0.0200810339301825,0.,0.00670689065009356));
#1196=CARTESIAN_POINT('',(-0.0200810339301825,-0.002,0.00670689065009356));
#1197=CARTESIAN_POINT('',(-0.020586882133186,0.,0.00555864880571301));
#1198=CARTESIAN_POINT('',(-0.020586882133186,-0.002,0.00555864880571301));
#1199=CARTESIAN_POINT('',(-0.0215872386215217,0.,0.00328790597736152));
#1200=CARTESIAN_POINT('',(-0.0215872386215217,-0.002,0.00328790597736152));
#1201=CARTESIAN_POINT('',(-0.0206217396718348,0.,0.00108765473361793));
#1202=CARTESIAN_POINT('',(-0.0206217396718348,-0.002,0.00108765473361793));
#1203=CARTESIAN_POINT('',(-0.0201444625854492,0.,-2.44276959076427E-19));
#1204=CARTESIAN_POINT('',(-0.0201444625854492,-0.002,-2.44276959076427E-19));
#1205=CARTESIAN_POINT('',(-0.0201444625854492,0.023,-2.44276959076427E-19));
#1206=CARTESIAN_POINT('',(-0.0170576991513372,0.023,0.));
#1207=CARTESIAN_POINT('',(-0.0266945244089522,0.023,0.00297843566267394));
#1208=CARTESIAN_POINT('',(-0.0266646165400743,0.023,0.));
#1209=CARTESIAN_POINT('',(-0.0267244186252356,0.023,0.00595551170408726));
#1210=CARTESIAN_POINT('',(-0.0267244186252356,0.,0.00595551170408726));
#1211=CARTESIAN_POINT('',(-0.0267244186252356,-0.002,0.00595551170408726));
#1212=CARTESIAN_POINT('',(-0.0302564231719453,0.,0.004897374639068));
#1213=CARTESIAN_POINT('',(-0.0302564231719453,-0.002,0.004897374639068));
#1214=CARTESIAN_POINT('',(-0.0355567224414501,0.,0.00330996353869934));
#1215=CARTESIAN_POINT('',(-0.0355567224414501,-0.002,0.00330996353869934));
#1216=CARTESIAN_POINT('',(-0.0393800952049902,0.,0.00162187794396131));
#1217=CARTESIAN_POINT('',(-0.0393800952049902,-0.002,0.00162187794396131));
#1218=CARTESIAN_POINT('',(-0.0398446569235172,0.,0.000674489115305969));
#1219=CARTESIAN_POINT('',(-0.0398446569235172,-0.002,0.000674489115305969));
#1220=CARTESIAN_POINT('',(-0.0369875824319469,0.,0.000162549922289514));
#1221=CARTESIAN_POINT('',(-0.0369875824319469,-0.002,0.000162549922289514));
#1222=CARTESIAN_POINT('',(-0.0309979381050709,0.,-9.51157819716631E-5));
#1223=CARTESIAN_POINT('',(-0.0309979381050709,-0.002,-9.51157819716631E-5));
#1224=CARTESIAN_POINT('',(-0.0268477706284984,0.,-9.23311901229388E-6));
#1225=CARTESIAN_POINT('',(-0.0268477706284984,-0.002,-9.23311901229388E-6));
#1226=CARTESIAN_POINT('',(-0.0266646165400743,0.,6.43745039913268E-20));
#1227=CARTESIAN_POINT('',(-0.0266646165400743,-0.002,6.43745039913268E-20));
#1228=MECHANICAL_DESIGN_GEOMETRIC_PRESENTATION_REPRESENTATION('',(#401),
#1229);
#1229=(
GEOMETRIC_REPRESENTATION_CONTEXT(3)
GLOBAL_UNCERTAINTY_ASSIGNED_CONTEXT((#1230))
GLOBAL_UNIT_ASSIGNED_CONTEXT((#1233,#1232,#1231))
REPRESENTATION_CONTEXT('Part 1','TOP_LEVEL_ASSEMBLY_PART')
);
#1230=UNCERTAINTY_MEASURE_WITH_UNIT(LENGTH_MEASURE(2.E-5),#1233,
'DISTANCE_ACCURACY_VALUE','Maximum Tolerance applied to model');
#1231=(
NAMED_UNIT(*)
SI_UNIT($,.STERADIAN.)
SOLID_ANGLE_UNIT()
);
#1232=(
NAMED_UNIT(*)
PLANE_ANGLE_UNIT()
SI_UNIT($,.RADIAN.)
);
#1233=(
LENGTH_UNIT()
NAMED_UNIT(*)
SI_UNIT($,.METRE.)
);
#1234=PRODUCT_DEFINITION_SHAPE('','',#1235);
#1235=PRODUCT_DEFINITION('','',#1237,#1236);
#1236=PRODUCT_DEFINITION_CONTEXT('',#1243,'design');
#1237=PRODUCT_DEFINITION_FORMATION_WITH_SPECIFIED_SOURCE('','',#1239,
 .NOT_KNOWN.);
#1238=PRODUCT_RELATED_PRODUCT_CATEGORY('','',(#1239));
#1239=PRODUCT('Part 1','Part 1','Part 1',(#1241));
#1240=PRODUCT_CATEGORY('','');
#1241=PRODUCT_CONTEXT('',#1243,'mechanical');
#1242=APPLICATION_PROTOCOL_DEFINITION('international standard',
'ap242_managed_model_based_3d_engineering',2020,#1243);
#1243=APPLICATION_CONTEXT('managed model based 3d engineering');
ENDSEC;
END-ISO-10303-21;
