ISO-10303-21;
HEADER;
/* Generated by software containing ST-Developer
 * from STEP Tools, Inc. (www.steptools.com) 
 */
/* OPTION: using custom renumber hook */

FILE_DESCRIPTION(
/* description */ ('STEP AP242 Edition 2',
'CAx-IF Rec.Pracs.---Representation and Presentation of Product Manufa
cturing Information (PMI)---4.0---2014-10-13',
'CAx-IF Rec.Pracs.---3D Tessellated Geometry---0.4---2014-09-14','2;1',
'CAx-IF Rec.Pracs.---User Defined Attributes---1.5---2016-08-15'),
/* implementation_level */ '2;1');

FILE_NAME(
/* name */ 'Bulkhead',
/* time_stamp */ '2026-08-18T14:31:55Z',
/* author */ (''),
/* organization */ (''),
/* preprocessor_version */ 'ST-DEVELOPER v20',
/* originating_system */ 'ONSHAPE BY PTC INC, 1.219',
/* authorisation */ '  ');

FILE_SCHEMA (('AP242_MANAGED_MODEL_BASED_3D_ENGINEERING_MIM_LF { 1 0 10303 442 3 1 4 }'));
ENDSEC;

DATA;
#10=SHAPE_REPRESENTATION_RELATIONSHIP('','',#803,#11);
#11=ADVANCED_BREP_SHAPE_REPRESENTATION('',(#801),#1345);
#12=B_SPLINE_SURFACE_WITH_KNOTS('',3,1,((#1228,#1229),(#1230,#1231),(#1232,
#1233),(#1234,#1235),(#1236,#1237)),.SURF_OF_LINEAR_EXTRUSION.,.F.,.F.,
 .F.,(4,1,4),(2,2),(0.,0.547462516636205,1.),(0.,1.),.UNSPECIFIED.);
#13=B_SPLINE_SURFACE_WITH_KNOTS('',3,1,((#1239,#1240),(#1241,#1242),(#1243,
#1244),(#1245,#1246),(#1247,#1248)),.SURF_OF_LINEAR_EXTRUSION.,.F.,.F.,
 .F.,(4,1,4),(2,2),(0.,0.545925045527899,1.),(0.,1.),.UNSPECIFIED.);
#14=B_SPLINE_SURFACE_WITH_KNOTS('',3,1,((#1253,#1254),(#1255,#1256),(#1257,
#1258),(#1259,#1260),(#1261,#1262)),.SURF_OF_LINEAR_EXTRUSION.,.F.,.F.,
 .F.,(4,1,4),(2,2),(0.,0.501398440158397,1.),(0.,1.),.UNSPECIFIED.);
#15=B_SPLINE_SURFACE_WITH_KNOTS('',3,1,((#1263,#1264),(#1265,#1266),(#1267,
#1268),(#1269,#1270),(#1271,#1272)),.SURF_OF_LINEAR_EXTRUSION.,.F.,.F.,
 .F.,(4,1,4),(2,2),(0.,0.497882506187851,1.),(0.,1.),.UNSPECIFIED.);
#16=B_SPLINE_SURFACE_WITH_KNOTS('',3,1,((#1276,#1277),(#1278,#1279),(#1280,
#1281),(#1282,#1283),(#1284,#1285)),.SURF_OF_LINEAR_EXTRUSION.,.F.,.F.,
 .F.,(4,1,4),(2,2),(0.,0.544069836844793,1.),(0.,1.),.UNSPECIFIED.);
#17=B_SPLINE_SURFACE_WITH_KNOTS('',3,1,((#1290,#1291),(#1292,#1293),(#1294,
#1295),(#1296,#1297),(#1298,#1299)),.SURF_OF_LINEAR_EXTRUSION.,.F.,.F.,
 .F.,(4,1,4),(2,2),(0.,0.453279869949492,1.),(0.,1.),.UNSPECIFIED.);
#18=B_SPLINE_SURFACE_WITH_KNOTS('',3,1,((#1313,#1314),(#1315,#1316),(#1317,
#1318),(#1319,#1320),(#1321,#1322)),.SURF_OF_LINEAR_EXTRUSION.,.F.,.F.,
 .F.,(4,1,4),(2,2),(0.,0.472391849501878,1.),(0.,1.),.UNSPECIFIED.);
#19=B_SPLINE_SURFACE_WITH_KNOTS('',3,1,((#1326,#1327),(#1328,#1329),(#1330,
#1331),(#1332,#1333),(#1334,#1335)),.SURF_OF_LINEAR_EXTRUSION.,.F.,.F.,
 .F.,(4,1,4),(2,2),(0.,0.523591490440058,1.),(0.,1.),.UNSPECIFIED.);
#20=B_SPLINE_CURVE_WITH_KNOTS('',3,(#1002,#1003,#1004,#1005,#1006),
 .UNSPECIFIED.,.F.,.F.,(4,1,4),(0.,0.523591490440058,1.),.UNSPECIFIED.);
#21=B_SPLINE_CURVE_WITH_KNOTS('',3,(#1010,#1011,#1012,#1013,#1014),
 .UNSPECIFIED.,.F.,.F.,(4,1,4),(0.,0.472391849501878,1.),.UNSPECIFIED.);
#22=B_SPLINE_CURVE_WITH_KNOTS('',3,(#1018,#1019,#1020,#1021,#1022),
 .UNSPECIFIED.,.F.,.F.,(4,1,4),(0.,0.501398440158397,1.),.UNSPECIFIED.);
#23=B_SPLINE_CURVE_WITH_KNOTS('',3,(#1034,#1035,#1036,#1037,#1038),
 .UNSPECIFIED.,.F.,.F.,(4,1,4),(0.,0.547462516636205,1.),.UNSPECIFIED.);
#24=B_SPLINE_CURVE_WITH_KNOTS('',3,(#1039,#1040,#1041,#1042,#1043),
 .UNSPECIFIED.,.F.,.F.,(4,1,4),(0.,0.545925045527899,1.),.UNSPECIFIED.);
#25=B_SPLINE_CURVE_WITH_KNOTS('',3,(#1066,#1067,#1068,#1069,#1070),
 .UNSPECIFIED.,.F.,.F.,(4,1,4),(0.,0.497882506187851,1.),.UNSPECIFIED.);
#26=B_SPLINE_CURVE_WITH_KNOTS('',3,(#1074,#1075,#1076,#1077,#1078),
 .UNSPECIFIED.,.F.,.F.,(4,1,4),(0.,0.544069836844793,1.),.UNSPECIFIED.);
#27=B_SPLINE_CURVE_WITH_KNOTS('',3,(#1082,#1083,#1084,#1085,#1086),
 .UNSPECIFIED.,.F.,.F.,(4,1,4),(0.,0.453279869949492,1.),.UNSPECIFIED.);
#28=B_SPLINE_CURVE_WITH_KNOTS('',3,(#1104,#1105,#1106,#1107,#1108),
 .UNSPECIFIED.,.F.,.F.,(4,1,4),(0.,0.523591490440058,1.),.UNSPECIFIED.);
#29=B_SPLINE_CURVE_WITH_KNOTS('',3,(#1113,#1114,#1115,#1116,#1117),
 .UNSPECIFIED.,.F.,.F.,(4,1,4),(0.,0.472391849501878,1.),.UNSPECIFIED.);
#30=B_SPLINE_CURVE_WITH_KNOTS('',3,(#1120,#1121,#1122,#1123,#1124),
 .UNSPECIFIED.,.F.,.F.,(4,1,4),(0.,0.544069836844793,1.),.UNSPECIFIED.);
#31=B_SPLINE_CURVE_WITH_KNOTS('',3,(#1129,#1130,#1131,#1132,#1133),
 .UNSPECIFIED.,.F.,.F.,(4,1,4),(0.,0.453279869949492,1.),.UNSPECIFIED.);
#32=B_SPLINE_CURVE_WITH_KNOTS('',3,(#1136,#1137,#1138,#1139,#1140),
 .UNSPECIFIED.,.F.,.F.,(4,1,4),(0.,0.501398440158397,1.),.UNSPECIFIED.);
#33=B_SPLINE_CURVE_WITH_KNOTS('',3,(#1153,#1154,#1155,#1156,#1157),
 .UNSPECIFIED.,.F.,.F.,(4,1,4),(0.,0.547462516636205,1.),.UNSPECIFIED.);
#34=B_SPLINE_CURVE_WITH_KNOTS('',3,(#1163,#1164,#1165,#1166,#1167),
 .UNSPECIFIED.,.F.,.F.,(4,1,4),(0.,0.545925045527899,1.),.UNSPECIFIED.);
#35=B_SPLINE_CURVE_WITH_KNOTS('',3,(#1183,#1184,#1185,#1186,#1187),
 .UNSPECIFIED.,.F.,.F.,(4,1,4),(0.,0.497882506187851,1.),.UNSPECIFIED.);
#36=ORIENTED_EDGE('',*,*,#252,.F.);
#37=ORIENTED_EDGE('',*,*,#253,.F.);
#38=ORIENTED_EDGE('',*,*,#254,.F.);
#39=ORIENTED_EDGE('',*,*,#255,.F.);
#40=ORIENTED_EDGE('',*,*,#256,.F.);
#41=ORIENTED_EDGE('',*,*,#257,.F.);
#42=ORIENTED_EDGE('',*,*,#258,.F.);
#43=ORIENTED_EDGE('',*,*,#259,.F.);
#44=ORIENTED_EDGE('',*,*,#260,.F.);
#45=ORIENTED_EDGE('',*,*,#261,.F.);
#46=ORIENTED_EDGE('',*,*,#262,.F.);
#47=ORIENTED_EDGE('',*,*,#263,.F.);
#48=ORIENTED_EDGE('',*,*,#264,.T.);
#49=ORIENTED_EDGE('',*,*,#265,.T.);
#50=ORIENTED_EDGE('',*,*,#266,.T.);
#51=ORIENTED_EDGE('',*,*,#267,.T.);
#52=ORIENTED_EDGE('',*,*,#268,.F.);
#53=ORIENTED_EDGE('',*,*,#269,.T.);
#54=ORIENTED_EDGE('',*,*,#270,.F.);
#55=ORIENTED_EDGE('',*,*,#271,.F.);
#56=ORIENTED_EDGE('',*,*,#272,.F.);
#57=ORIENTED_EDGE('',*,*,#273,.T.);
#58=ORIENTED_EDGE('',*,*,#274,.T.);
#59=ORIENTED_EDGE('',*,*,#275,.F.);
#60=ORIENTED_EDGE('',*,*,#276,.F.);
#61=ORIENTED_EDGE('',*,*,#277,.T.);
#62=ORIENTED_EDGE('',*,*,#278,.T.);
#63=ORIENTED_EDGE('',*,*,#279,.T.);
#64=ORIENTED_EDGE('',*,*,#280,.T.);
#65=ORIENTED_EDGE('',*,*,#281,.T.);
#66=ORIENTED_EDGE('',*,*,#282,.T.);
#67=ORIENTED_EDGE('',*,*,#283,.T.);
#68=ORIENTED_EDGE('',*,*,#284,.F.);
#69=ORIENTED_EDGE('',*,*,#285,.T.);
#70=ORIENTED_EDGE('',*,*,#286,.T.);
#71=ORIENTED_EDGE('',*,*,#287,.F.);
#72=ORIENTED_EDGE('',*,*,#288,.T.);
#73=ORIENTED_EDGE('',*,*,#289,.T.);
#74=ORIENTED_EDGE('',*,*,#290,.T.);
#75=ORIENTED_EDGE('',*,*,#291,.T.);
#76=ORIENTED_EDGE('',*,*,#292,.T.);
#77=ORIENTED_EDGE('',*,*,#293,.T.);
#78=ORIENTED_EDGE('',*,*,#294,.T.);
#79=ORIENTED_EDGE('',*,*,#295,.T.);
#80=ORIENTED_EDGE('',*,*,#296,.F.);
#81=ORIENTED_EDGE('',*,*,#297,.F.);
#82=ORIENTED_EDGE('',*,*,#298,.F.);
#83=ORIENTED_EDGE('',*,*,#299,.F.);
#84=ORIENTED_EDGE('',*,*,#300,.T.);
#85=ORIENTED_EDGE('',*,*,#301,.T.);
#86=ORIENTED_EDGE('',*,*,#302,.T.);
#87=ORIENTED_EDGE('',*,*,#303,.T.);
#88=ORIENTED_EDGE('',*,*,#304,.F.);
#89=ORIENTED_EDGE('',*,*,#305,.F.);
#90=ORIENTED_EDGE('',*,*,#306,.F.);
#91=ORIENTED_EDGE('',*,*,#307,.F.);
#92=ORIENTED_EDGE('',*,*,#308,.F.);
#93=ORIENTED_EDGE('',*,*,#309,.T.);
#94=ORIENTED_EDGE('',*,*,#310,.T.);
#95=ORIENTED_EDGE('',*,*,#311,.T.);
#96=ORIENTED_EDGE('',*,*,#312,.T.);
#97=ORIENTED_EDGE('',*,*,#313,.T.);
#98=ORIENTED_EDGE('',*,*,#314,.F.);
#99=ORIENTED_EDGE('',*,*,#315,.F.);
#100=ORIENTED_EDGE('',*,*,#316,.T.);
#101=ORIENTED_EDGE('',*,*,#317,.F.);
#102=ORIENTED_EDGE('',*,*,#318,.F.);
#103=ORIENTED_EDGE('',*,*,#319,.F.);
#104=ORIENTED_EDGE('',*,*,#320,.F.);
#105=ORIENTED_EDGE('',*,*,#321,.T.);
#106=ORIENTED_EDGE('',*,*,#322,.T.);
#107=ORIENTED_EDGE('',*,*,#323,.F.);
#108=ORIENTED_EDGE('',*,*,#276,.T.);
#109=ORIENTED_EDGE('',*,*,#324,.T.);
#110=ORIENTED_EDGE('',*,*,#316,.F.);
#111=ORIENTED_EDGE('',*,*,#325,.F.);
#112=ORIENTED_EDGE('',*,*,#326,.F.);
#113=ORIENTED_EDGE('',*,*,#277,.F.);
#114=ORIENTED_EDGE('',*,*,#325,.T.);
#115=ORIENTED_EDGE('',*,*,#319,.T.);
#116=ORIENTED_EDGE('',*,*,#327,.F.);
#117=ORIENTED_EDGE('',*,*,#266,.F.);
#118=ORIENTED_EDGE('',*,*,#328,.T.);
#119=ORIENTED_EDGE('',*,*,#307,.T.);
#120=ORIENTED_EDGE('',*,*,#263,.T.);
#121=ORIENTED_EDGE('',*,*,#329,.T.);
#122=ORIENTED_EDGE('',*,*,#302,.F.);
#123=ORIENTED_EDGE('',*,*,#330,.F.);
#124=ORIENTED_EDGE('',*,*,#331,.F.);
#125=ORIENTED_EDGE('',*,*,#260,.T.);
#126=ORIENTED_EDGE('',*,*,#330,.T.);
#127=ORIENTED_EDGE('',*,*,#301,.F.);
#128=ORIENTED_EDGE('',*,*,#265,.F.);
#129=ORIENTED_EDGE('',*,*,#332,.T.);
#130=ORIENTED_EDGE('',*,*,#304,.T.);
#131=ORIENTED_EDGE('',*,*,#328,.F.);
#132=ORIENTED_EDGE('',*,*,#269,.F.);
#133=ORIENTED_EDGE('',*,*,#333,.T.);
#134=ORIENTED_EDGE('',*,*,#308,.T.);
#135=ORIENTED_EDGE('',*,*,#334,.F.);
#136=ORIENTED_EDGE('',*,*,#312,.F.);
#137=ORIENTED_EDGE('',*,*,#335,.F.);
#138=ORIENTED_EDGE('',*,*,#272,.T.);
#139=ORIENTED_EDGE('',*,*,#336,.T.);
#140=ORIENTED_EDGE('',*,*,#315,.T.);
#141=ORIENTED_EDGE('',*,*,#337,.F.);
#142=ORIENTED_EDGE('',*,*,#273,.F.);
#143=ORIENTED_EDGE('',*,*,#335,.T.);
#144=ORIENTED_EDGE('',*,*,#314,.T.);
#145=ORIENTED_EDGE('',*,*,#338,.F.);
#146=ORIENTED_EDGE('',*,*,#274,.F.);
#147=ORIENTED_EDGE('',*,*,#337,.T.);
#148=ORIENTED_EDGE('',*,*,#313,.F.);
#149=ORIENTED_EDGE('',*,*,#336,.F.);
#150=ORIENTED_EDGE('',*,*,#275,.T.);
#151=ORIENTED_EDGE('',*,*,#338,.T.);
#152=ORIENTED_EDGE('',*,*,#339,.F.);
#153=ORIENTED_EDGE('',*,*,#270,.T.);
#154=ORIENTED_EDGE('',*,*,#334,.T.);
#155=ORIENTED_EDGE('',*,*,#311,.F.);
#156=ORIENTED_EDGE('',*,*,#306,.T.);
#157=ORIENTED_EDGE('',*,*,#340,.F.);
#158=ORIENTED_EDGE('',*,*,#267,.F.);
#159=ORIENTED_EDGE('',*,*,#327,.T.);
#160=ORIENTED_EDGE('',*,*,#309,.F.);
#161=ORIENTED_EDGE('',*,*,#333,.F.);
#162=ORIENTED_EDGE('',*,*,#268,.T.);
#163=ORIENTED_EDGE('',*,*,#341,.T.);
#164=ORIENTED_EDGE('',*,*,#310,.F.);
#165=ORIENTED_EDGE('',*,*,#341,.F.);
#166=ORIENTED_EDGE('',*,*,#271,.T.);
#167=ORIENTED_EDGE('',*,*,#339,.T.);
#168=ORIENTED_EDGE('',*,*,#303,.F.);
#169=ORIENTED_EDGE('',*,*,#329,.F.);
#170=ORIENTED_EDGE('',*,*,#262,.T.);
#171=ORIENTED_EDGE('',*,*,#342,.T.);
#172=ORIENTED_EDGE('',*,*,#300,.F.);
#173=ORIENTED_EDGE('',*,*,#342,.F.);
#174=ORIENTED_EDGE('',*,*,#261,.T.);
#175=ORIENTED_EDGE('',*,*,#331,.T.);
#176=ORIENTED_EDGE('',*,*,#317,.T.);
#177=ORIENTED_EDGE('',*,*,#324,.F.);
#178=ORIENTED_EDGE('',*,*,#279,.F.);
#179=ORIENTED_EDGE('',*,*,#343,.T.);
#180=ORIENTED_EDGE('',*,*,#318,.T.);
#181=ORIENTED_EDGE('',*,*,#343,.F.);
#182=ORIENTED_EDGE('',*,*,#278,.F.);
#183=ORIENTED_EDGE('',*,*,#326,.T.);
#184=ORIENTED_EDGE('',*,*,#305,.T.);
#185=ORIENTED_EDGE('',*,*,#332,.F.);
#186=ORIENTED_EDGE('',*,*,#264,.F.);
#187=ORIENTED_EDGE('',*,*,#340,.T.);
#188=ORIENTED_EDGE('',*,*,#296,.T.);
#189=ORIENTED_EDGE('',*,*,#344,.T.);
#190=ORIENTED_EDGE('',*,*,#281,.F.);
#191=ORIENTED_EDGE('',*,*,#345,.F.);
#192=ORIENTED_EDGE('',*,*,#297,.T.);
#193=ORIENTED_EDGE('',*,*,#345,.T.);
#194=ORIENTED_EDGE('',*,*,#280,.F.);
#195=ORIENTED_EDGE('',*,*,#346,.F.);
#196=ORIENTED_EDGE('',*,*,#298,.T.);
#197=ORIENTED_EDGE('',*,*,#346,.T.);
#198=ORIENTED_EDGE('',*,*,#283,.F.);
#199=ORIENTED_EDGE('',*,*,#347,.F.);
#200=ORIENTED_EDGE('',*,*,#299,.T.);
#201=ORIENTED_EDGE('',*,*,#347,.T.);
#202=ORIENTED_EDGE('',*,*,#282,.F.);
#203=ORIENTED_EDGE('',*,*,#344,.F.);
#204=ORIENTED_EDGE('',*,*,#320,.T.);
#205=ORIENTED_EDGE('',*,*,#348,.T.);
#206=ORIENTED_EDGE('',*,*,#285,.F.);
#207=ORIENTED_EDGE('',*,*,#349,.F.);
#208=ORIENTED_EDGE('',*,*,#349,.T.);
#209=ORIENTED_EDGE('',*,*,#284,.T.);
#210=ORIENTED_EDGE('',*,*,#350,.F.);
#211=ORIENTED_EDGE('',*,*,#321,.F.);
#212=ORIENTED_EDGE('',*,*,#350,.T.);
#213=ORIENTED_EDGE('',*,*,#287,.T.);
#214=ORIENTED_EDGE('',*,*,#351,.F.);
#215=ORIENTED_EDGE('',*,*,#322,.F.);
#216=ORIENTED_EDGE('',*,*,#323,.T.);
#217=ORIENTED_EDGE('',*,*,#351,.T.);
#218=ORIENTED_EDGE('',*,*,#286,.F.);
#219=ORIENTED_EDGE('',*,*,#348,.F.);
#220=ORIENTED_EDGE('',*,*,#352,.T.);
#221=ORIENTED_EDGE('',*,*,#256,.T.);
#222=ORIENTED_EDGE('',*,*,#353,.F.);
#223=ORIENTED_EDGE('',*,*,#293,.F.);
#224=ORIENTED_EDGE('',*,*,#353,.T.);
#225=ORIENTED_EDGE('',*,*,#259,.T.);
#226=ORIENTED_EDGE('',*,*,#354,.F.);
#227=ORIENTED_EDGE('',*,*,#294,.F.);
#228=ORIENTED_EDGE('',*,*,#354,.T.);
#229=ORIENTED_EDGE('',*,*,#258,.T.);
#230=ORIENTED_EDGE('',*,*,#355,.F.);
#231=ORIENTED_EDGE('',*,*,#295,.F.);
#232=ORIENTED_EDGE('',*,*,#355,.T.);
#233=ORIENTED_EDGE('',*,*,#257,.T.);
#234=ORIENTED_EDGE('',*,*,#352,.F.);
#235=ORIENTED_EDGE('',*,*,#292,.F.);
#236=ORIENTED_EDGE('',*,*,#356,.T.);
#237=ORIENTED_EDGE('',*,*,#252,.T.);
#238=ORIENTED_EDGE('',*,*,#357,.F.);
#239=ORIENTED_EDGE('',*,*,#289,.F.);
#240=ORIENTED_EDGE('',*,*,#357,.T.);
#241=ORIENTED_EDGE('',*,*,#255,.T.);
#242=ORIENTED_EDGE('',*,*,#358,.F.);
#243=ORIENTED_EDGE('',*,*,#290,.F.);
#244=ORIENTED_EDGE('',*,*,#358,.T.);
#245=ORIENTED_EDGE('',*,*,#254,.T.);
#246=ORIENTED_EDGE('',*,*,#359,.F.);
#247=ORIENTED_EDGE('',*,*,#291,.F.);
#248=ORIENTED_EDGE('',*,*,#359,.T.);
#249=ORIENTED_EDGE('',*,*,#253,.T.);
#250=ORIENTED_EDGE('',*,*,#356,.F.);
#251=ORIENTED_EDGE('',*,*,#288,.F.);
#252=EDGE_CURVE('',#360,#361,#432,.T.);
#253=EDGE_CURVE('',#362,#360,#433,.T.);
#254=EDGE_CURVE('',#363,#362,#434,.T.);
#255=EDGE_CURVE('',#361,#363,#435,.T.);
#256=EDGE_CURVE('',#364,#365,#436,.T.);
#257=EDGE_CURVE('',#366,#364,#20,.T.);
#258=EDGE_CURVE('',#367,#366,#437,.T.);
#259=EDGE_CURVE('',#365,#367,#21,.T.);
#260=EDGE_CURVE('',#368,#369,#438,.T.);
#261=EDGE_CURVE('',#370,#368,#22,.T.);
#262=EDGE_CURVE('',#371,#370,#439,.T.);
#263=EDGE_CURVE('',#369,#371,#440,.T.);
#264=EDGE_CURVE('',#372,#373,#441,.T.);
#265=EDGE_CURVE('',#373,#374,#442,.T.);
#266=EDGE_CURVE('',#374,#375,#443,.T.);
#267=EDGE_CURVE('',#375,#372,#23,.T.);
#268=EDGE_CURVE('',#376,#377,#24,.T.);
#269=EDGE_CURVE('',#376,#378,#444,.T.);
#270=EDGE_CURVE('',#379,#378,#445,.T.);
#271=EDGE_CURVE('',#377,#379,#446,.T.);
#272=EDGE_CURVE('',#380,#381,#447,.T.);
#273=EDGE_CURVE('',#380,#382,#448,.T.);
#274=EDGE_CURVE('',#382,#383,#449,.T.);
#275=EDGE_CURVE('',#381,#383,#450,.T.);
#276=EDGE_CURVE('',#384,#385,#451,.T.);
#277=EDGE_CURVE('',#384,#386,#452,.T.);
#278=EDGE_CURVE('',#386,#387,#453,.T.);
#279=EDGE_CURVE('',#387,#385,#25,.T.);
#280=EDGE_CURVE('',#388,#389,#454,.T.);
#281=EDGE_CURVE('',#389,#390,#26,.T.);
#282=EDGE_CURVE('',#390,#391,#455,.T.);
#283=EDGE_CURVE('',#391,#388,#27,.T.);
#284=EDGE_CURVE('',#392,#393,#456,.T.);
#285=EDGE_CURVE('',#392,#394,#457,.T.);
#286=EDGE_CURVE('',#394,#395,#458,.T.);
#287=EDGE_CURVE('',#393,#395,#459,.T.);
#288=EDGE_CURVE('',#396,#397,#460,.T.);
#289=EDGE_CURVE('',#397,#398,#461,.T.);
#290=EDGE_CURVE('',#398,#399,#462,.T.);
#291=EDGE_CURVE('',#399,#396,#463,.T.);
#292=EDGE_CURVE('',#400,#401,#28,.T.);
#293=EDGE_CURVE('',#401,#402,#464,.T.);
#294=EDGE_CURVE('',#402,#403,#29,.T.);
#295=EDGE_CURVE('',#403,#400,#465,.T.);
#296=EDGE_CURVE('',#404,#405,#30,.T.);
#297=EDGE_CURVE('',#406,#404,#466,.T.);
#298=EDGE_CURVE('',#407,#406,#31,.T.);
#299=EDGE_CURVE('',#405,#407,#467,.T.);
#300=EDGE_CURVE('',#408,#409,#32,.T.);
#301=EDGE_CURVE('',#409,#410,#468,.T.);
#302=EDGE_CURVE('',#410,#411,#469,.T.);
#303=EDGE_CURVE('',#411,#408,#470,.T.);
#304=EDGE_CURVE('',#412,#413,#471,.T.);
#305=EDGE_CURVE('',#414,#412,#472,.T.);
#306=EDGE_CURVE('',#415,#414,#33,.T.);
#307=EDGE_CURVE('',#413,#415,#473,.T.);
#308=EDGE_CURVE('',#416,#417,#474,.T.);
#309=EDGE_CURVE('',#416,#418,#34,.T.);
#310=EDGE_CURVE('',#418,#419,#475,.T.);
#311=EDGE_CURVE('',#419,#417,#476,.T.);
#312=EDGE_CURVE('',#420,#421,#477,.T.);
#313=EDGE_CURVE('',#421,#422,#478,.T.);
#314=EDGE_CURVE('',#423,#422,#479,.T.);
#315=EDGE_CURVE('',#420,#423,#480,.T.);
#316=EDGE_CURVE('',#424,#425,#481,.T.);
#317=EDGE_CURVE('',#426,#425,#35,.T.);
#318=EDGE_CURVE('',#427,#426,#482,.T.);
#319=EDGE_CURVE('',#424,#427,#483,.T.);
#320=EDGE_CURVE('',#428,#429,#484,.T.);
#321=EDGE_CURVE('',#428,#430,#485,.T.);
#322=EDGE_CURVE('',#430,#431,#486,.T.);
#323=EDGE_CURVE('',#429,#431,#487,.T.);
#324=EDGE_CURVE('',#385,#425,#488,.T.);
#325=EDGE_CURVE('',#384,#424,#489,.T.);
#326=EDGE_CURVE('',#386,#427,#490,.T.);
#327=EDGE_CURVE('',#375,#415,#491,.T.);
#328=EDGE_CURVE('',#374,#413,#492,.T.);
#329=EDGE_CURVE('',#371,#411,#493,.T.);
#330=EDGE_CURVE('',#369,#410,#494,.T.);
#331=EDGE_CURVE('',#368,#409,#495,.T.);
#332=EDGE_CURVE('',#373,#412,#496,.T.);
#333=EDGE_CURVE('',#376,#416,#497,.T.);
#334=EDGE_CURVE('',#378,#417,#498,.T.);
#335=EDGE_CURVE('',#380,#420,#499,.T.);
#336=EDGE_CURVE('',#381,#421,#500,.T.);
#337=EDGE_CURVE('',#382,#423,#501,.T.);
#338=EDGE_CURVE('',#383,#422,#502,.T.);
#339=EDGE_CURVE('',#379,#419,#503,.T.);
#340=EDGE_CURVE('',#372,#414,#504,.T.);
#341=EDGE_CURVE('',#377,#418,#505,.T.);
#342=EDGE_CURVE('',#370,#408,#506,.T.);
#343=EDGE_CURVE('',#387,#426,#507,.T.);
#344=EDGE_CURVE('',#405,#390,#508,.T.);
#345=EDGE_CURVE('',#404,#389,#509,.T.);
#346=EDGE_CURVE('',#406,#388,#510,.T.);
#347=EDGE_CURVE('',#407,#391,#511,.T.);
#348=EDGE_CURVE('',#429,#394,#512,.T.);
#349=EDGE_CURVE('',#428,#392,#513,.T.);
#350=EDGE_CURVE('',#430,#393,#514,.T.);
#351=EDGE_CURVE('',#431,#395,#515,.T.);
#352=EDGE_CURVE('',#401,#364,#516,.T.);
#353=EDGE_CURVE('',#402,#365,#517,.T.);
#354=EDGE_CURVE('',#403,#367,#518,.T.);
#355=EDGE_CURVE('',#400,#366,#519,.T.);
#356=EDGE_CURVE('',#397,#360,#520,.T.);
#357=EDGE_CURVE('',#398,#361,#521,.T.);
#358=EDGE_CURVE('',#399,#363,#522,.T.);
#359=EDGE_CURVE('',#396,#362,#523,.T.);
#360=VERTEX_POINT('',#992);
#361=VERTEX_POINT('',#993);
#362=VERTEX_POINT('',#995);
#363=VERTEX_POINT('',#997);
#364=VERTEX_POINT('',#1000);
#365=VERTEX_POINT('',#1001);
#366=VERTEX_POINT('',#1007);
#367=VERTEX_POINT('',#1009);
#368=VERTEX_POINT('',#1016);
#369=VERTEX_POINT('',#1017);
#370=VERTEX_POINT('',#1023);
#371=VERTEX_POINT('',#1025);
#372=VERTEX_POINT('',#1028);
#373=VERTEX_POINT('',#1029);
#374=VERTEX_POINT('',#1031);
#375=VERTEX_POINT('',#1033);
#376=VERTEX_POINT('',#1044);
#377=VERTEX_POINT('',#1045);
#378=VERTEX_POINT('',#1047);
#379=VERTEX_POINT('',#1049);
#380=VERTEX_POINT('',#1052);
#381=VERTEX_POINT('',#1053);
#382=VERTEX_POINT('',#1055);
#383=VERTEX_POINT('',#1057);
#384=VERTEX_POINT('',#1060);
#385=VERTEX_POINT('',#1061);
#386=VERTEX_POINT('',#1063);
#387=VERTEX_POINT('',#1065);
#388=VERTEX_POINT('',#1072);
#389=VERTEX_POINT('',#1073);
#390=VERTEX_POINT('',#1079);
#391=VERTEX_POINT('',#1081);
#392=VERTEX_POINT('',#1088);
#393=VERTEX_POINT('',#1089);
#394=VERTEX_POINT('',#1091);
#395=VERTEX_POINT('',#1093);
#396=VERTEX_POINT('',#1097);
#397=VERTEX_POINT('',#1098);
#398=VERTEX_POINT('',#1100);
#399=VERTEX_POINT('',#1102);
#400=VERTEX_POINT('',#1109);
#401=VERTEX_POINT('',#1110);
#402=VERTEX_POINT('',#1112);
#403=VERTEX_POINT('',#1118);
#404=VERTEX_POINT('',#1125);
#405=VERTEX_POINT('',#1126);
#406=VERTEX_POINT('',#1128);
#407=VERTEX_POINT('',#1134);
#408=VERTEX_POINT('',#1141);
#409=VERTEX_POINT('',#1142);
#410=VERTEX_POINT('',#1144);
#411=VERTEX_POINT('',#1146);
#412=VERTEX_POINT('',#1149);
#413=VERTEX_POINT('',#1150);
#414=VERTEX_POINT('',#1152);
#415=VERTEX_POINT('',#1158);
#416=VERTEX_POINT('',#1161);
#417=VERTEX_POINT('',#1162);
#418=VERTEX_POINT('',#1168);
#419=VERTEX_POINT('',#1170);
#420=VERTEX_POINT('',#1173);
#421=VERTEX_POINT('',#1174);
#422=VERTEX_POINT('',#1176);
#423=VERTEX_POINT('',#1178);
#424=VERTEX_POINT('',#1181);
#425=VERTEX_POINT('',#1182);
#426=VERTEX_POINT('',#1188);
#427=VERTEX_POINT('',#1190);
#428=VERTEX_POINT('',#1193);
#429=VERTEX_POINT('',#1194);
#430=VERTEX_POINT('',#1196);
#431=VERTEX_POINT('',#1198);
#432=LINE('',#991,#524);
#433=LINE('',#994,#525);
#434=LINE('',#996,#526);
#435=LINE('',#998,#527);
#436=LINE('',#999,#528);
#437=LINE('',#1008,#529);
#438=LINE('',#1015,#530);
#439=LINE('',#1024,#531);
#440=LINE('',#1026,#532);
#441=LINE('',#1027,#533);
#442=LINE('',#1030,#534);
#443=LINE('',#1032,#535);
#444=LINE('',#1046,#536);
#445=LINE('',#1048,#537);
#446=LINE('',#1050,#538);
#447=LINE('',#1051,#539);
#448=LINE('',#1054,#540);
#449=LINE('',#1056,#541);
#450=LINE('',#1058,#542);
#451=LINE('',#1059,#543);
#452=LINE('',#1062,#544);
#453=LINE('',#1064,#545);
#454=LINE('',#1071,#546);
#455=LINE('',#1080,#547);
#456=LINE('',#1087,#548);
#457=LINE('',#1090,#549);
#458=LINE('',#1092,#550);
#459=LINE('',#1094,#551);
#460=LINE('',#1096,#552);
#461=LINE('',#1099,#553);
#462=LINE('',#1101,#554);
#463=LINE('',#1103,#555);
#464=LINE('',#1111,#556);
#465=LINE('',#1119,#557);
#466=LINE('',#1127,#558);
#467=LINE('',#1135,#559);
#468=LINE('',#1143,#560);
#469=LINE('',#1145,#561);
#470=LINE('',#1147,#562);
#471=LINE('',#1148,#563);
#472=LINE('',#1151,#564);
#473=LINE('',#1159,#565);
#474=LINE('',#1160,#566);
#475=LINE('',#1169,#567);
#476=LINE('',#1171,#568);
#477=LINE('',#1172,#569);
#478=LINE('',#1175,#570);
#479=LINE('',#1177,#571);
#480=LINE('',#1179,#572);
#481=LINE('',#1180,#573);
#482=LINE('',#1189,#574);
#483=LINE('',#1191,#575);
#484=LINE('',#1192,#576);
#485=LINE('',#1195,#577);
#486=LINE('',#1197,#578);
#487=LINE('',#1199,#579);
#488=LINE('',#1201,#580);
#489=LINE('',#1202,#581);
#490=LINE('',#1204,#582);
#491=LINE('',#1206,#583);
#492=LINE('',#1207,#584);
#493=LINE('',#1209,#585);
#494=LINE('',#1210,#586);
#495=LINE('',#1212,#587);
#496=LINE('',#1214,#588);
#497=LINE('',#1216,#589);
#498=LINE('',#1217,#590);
#499=LINE('',#1219,#591);
#500=LINE('',#1220,#592);
#501=LINE('',#1222,#593);
#502=LINE('',#1224,#594);
#503=LINE('',#1227,#595);
#504=LINE('',#1238,#596);
#505=LINE('',#1249,#597);
#506=LINE('',#1252,#598);
#507=LINE('',#1273,#599);
#508=LINE('',#1286,#600);
#509=LINE('',#1287,#601);
#510=LINE('',#1289,#602);
#511=LINE('',#1300,#603);
#512=LINE('',#1303,#604);
#513=LINE('',#1304,#605);
#514=LINE('',#1306,#606);
#515=LINE('',#1308,#607);
#516=LINE('',#1311,#608);
#517=LINE('',#1312,#609);
#518=LINE('',#1323,#610);
#519=LINE('',#1325,#611);
#520=LINE('',#1337,#612);
#521=LINE('',#1338,#613);
#522=LINE('',#1340,#614);
#523=LINE('',#1342,#615);
#524=VECTOR('',#839,1.);
#525=VECTOR('',#840,1.);
#526=VECTOR('',#841,1.);
#527=VECTOR('',#842,1.);
#528=VECTOR('',#843,1.);
#529=VECTOR('',#844,1.);
#530=VECTOR('',#845,1.);
#531=VECTOR('',#846,1.);
#532=VECTOR('',#847,1.);
#533=VECTOR('',#848,1.);
#534=VECTOR('',#849,1.);
#535=VECTOR('',#850,1.);
#536=VECTOR('',#851,1.);
#537=VECTOR('',#852,1.);
#538=VECTOR('',#853,1.);
#539=VECTOR('',#854,1.);
#540=VECTOR('',#855,1.);
#541=VECTOR('',#856,1.);
#542=VECTOR('',#857,1.);
#543=VECTOR('',#858,1.);
#544=VECTOR('',#859,1.);
#545=VECTOR('',#860,1.);
#546=VECTOR('',#861,1.);
#547=VECTOR('',#862,1.);
#548=VECTOR('',#863,1.);
#549=VECTOR('',#864,1.);
#550=VECTOR('',#865,1.);
#551=VECTOR('',#866,1.);
#552=VECTOR('',#869,1.);
#553=VECTOR('',#870,1.);
#554=VECTOR('',#871,1.);
#555=VECTOR('',#872,1.);
#556=VECTOR('',#873,1.);
#557=VECTOR('',#874,1.);
#558=VECTOR('',#875,1.);
#559=VECTOR('',#876,1.);
#560=VECTOR('',#877,1.);
#561=VECTOR('',#878,1.);
#562=VECTOR('',#879,1.);
#563=VECTOR('',#880,1.);
#564=VECTOR('',#881,1.);
#565=VECTOR('',#882,1.);
#566=VECTOR('',#883,1.);
#567=VECTOR('',#884,1.);
#568=VECTOR('',#885,1.);
#569=VECTOR('',#886,1.);
#570=VECTOR('',#887,1.);
#571=VECTOR('',#888,1.);
#572=VECTOR('',#889,1.);
#573=VECTOR('',#890,1.);
#574=VECTOR('',#891,1.);
#575=VECTOR('',#892,1.);
#576=VECTOR('',#893,1.);
#577=VECTOR('',#894,1.);
#578=VECTOR('',#895,1.);
#579=VECTOR('',#896,1.);
#580=VECTOR('',#899,1.);
#581=VECTOR('',#900,1.);
#582=VECTOR('',#903,1.);
#583=VECTOR('',#906,1.);
#584=VECTOR('',#907,1.);
#585=VECTOR('',#910,1.);
#586=VECTOR('',#911,1.);
#587=VECTOR('',#914,1.);
#588=VECTOR('',#917,1.);
#589=VECTOR('',#920,1.);
#590=VECTOR('',#921,1.);
#591=VECTOR('',#924,1.);
#592=VECTOR('',#925,1.);
#593=VECTOR('',#928,1.);
#594=VECTOR('',#931,1.);
#595=VECTOR('',#936,1.);
#596=VECTOR('',#937,1.);
#597=VECTOR('',#938,1.);
#598=VECTOR('',#943,1.);
#599=VECTOR('',#944,1.);
#600=VECTOR('',#949,1.);
#601=VECTOR('',#950,1.);
#602=VECTOR('',#953,1.);
#603=VECTOR('',#954,1.);
#604=VECTOR('',#959,1.);
#605=VECTOR('',#960,1.);
#606=VECTOR('',#963,1.);
#607=VECTOR('',#966,1.);
#608=VECTOR('',#971,1.);
#609=VECTOR('',#972,1.);
#610=VECTOR('',#973,1.);
#611=VECTOR('',#976,1.);
#612=VECTOR('',#979,1.);
#613=VECTOR('',#980,1.);
#614=VECTOR('',#983,1.);
#615=VECTOR('',#986,1.);
#616=EDGE_LOOP('',(#36,#37,#38,#39));
#617=EDGE_LOOP('',(#40,#41,#42,#43));
#618=EDGE_LOOP('',(#44,#45,#46,#47));
#619=EDGE_LOOP('',(#48,#49,#50,#51));
#620=EDGE_LOOP('',(#52,#53,#54,#55));
#621=EDGE_LOOP('',(#56,#57,#58,#59));
#622=EDGE_LOOP('',(#60,#61,#62,#63));
#623=EDGE_LOOP('',(#64,#65,#66,#67));
#624=EDGE_LOOP('',(#68,#69,#70,#71));
#625=EDGE_LOOP('',(#72,#73,#74,#75));
#626=EDGE_LOOP('',(#76,#77,#78,#79));
#627=EDGE_LOOP('',(#80,#81,#82,#83));
#628=EDGE_LOOP('',(#84,#85,#86,#87));
#629=EDGE_LOOP('',(#88,#89,#90,#91));
#630=EDGE_LOOP('',(#92,#93,#94,#95));
#631=EDGE_LOOP('',(#96,#97,#98,#99));
#632=EDGE_LOOP('',(#100,#101,#102,#103));
#633=EDGE_LOOP('',(#104,#105,#106,#107));
#634=EDGE_LOOP('',(#108,#109,#110,#111));
#635=EDGE_LOOP('',(#112,#113,#114,#115));
#636=EDGE_LOOP('',(#116,#117,#118,#119));
#637=EDGE_LOOP('',(#120,#121,#122,#123));
#638=EDGE_LOOP('',(#124,#125,#126,#127));
#639=EDGE_LOOP('',(#128,#129,#130,#131));
#640=EDGE_LOOP('',(#132,#133,#134,#135));
#641=EDGE_LOOP('',(#136,#137,#138,#139));
#642=EDGE_LOOP('',(#140,#141,#142,#143));
#643=EDGE_LOOP('',(#144,#145,#146,#147));
#644=EDGE_LOOP('',(#148,#149,#150,#151));
#645=EDGE_LOOP('',(#152,#153,#154,#155));
#646=EDGE_LOOP('',(#156,#157,#158,#159));
#647=EDGE_LOOP('',(#160,#161,#162,#163));
#648=EDGE_LOOP('',(#164,#165,#166,#167));
#649=EDGE_LOOP('',(#168,#169,#170,#171));
#650=EDGE_LOOP('',(#172,#173,#174,#175));
#651=EDGE_LOOP('',(#176,#177,#178,#179));
#652=EDGE_LOOP('',(#180,#181,#182,#183));
#653=EDGE_LOOP('',(#184,#185,#186,#187));
#654=EDGE_LOOP('',(#188,#189,#190,#191));
#655=EDGE_LOOP('',(#192,#193,#194,#195));
#656=EDGE_LOOP('',(#196,#197,#198,#199));
#657=EDGE_LOOP('',(#200,#201,#202,#203));
#658=EDGE_LOOP('',(#204,#205,#206,#207));
#659=EDGE_LOOP('',(#208,#209,#210,#211));
#660=EDGE_LOOP('',(#212,#213,#214,#215));
#661=EDGE_LOOP('',(#216,#217,#218,#219));
#662=EDGE_LOOP('',(#220,#221,#222,#223));
#663=EDGE_LOOP('',(#224,#225,#226,#227));
#664=EDGE_LOOP('',(#228,#229,#230,#231));
#665=EDGE_LOOP('',(#232,#233,#234,#235));
#666=EDGE_LOOP('',(#236,#237,#238,#239));
#667=EDGE_LOOP('',(#240,#241,#242,#243));
#668=EDGE_LOOP('',(#244,#245,#246,#247));
#669=EDGE_LOOP('',(#248,#249,#250,#251));
#670=FACE_BOUND('',#616,.T.);
#671=FACE_BOUND('',#617,.T.);
#672=FACE_BOUND('',#618,.T.);
#673=FACE_BOUND('',#619,.T.);
#674=FACE_BOUND('',#620,.T.);
#675=FACE_BOUND('',#621,.T.);
#676=FACE_BOUND('',#622,.T.);
#677=FACE_BOUND('',#623,.T.);
#678=FACE_BOUND('',#624,.T.);
#679=FACE_BOUND('',#625,.T.);
#680=FACE_BOUND('',#626,.T.);
#681=FACE_BOUND('',#627,.T.);
#682=FACE_BOUND('',#628,.T.);
#683=FACE_BOUND('',#629,.T.);
#684=FACE_BOUND('',#630,.T.);
#685=FACE_BOUND('',#631,.T.);
#686=FACE_BOUND('',#632,.T.);
#687=FACE_BOUND('',#633,.T.);
#688=FACE_BOUND('',#634,.T.);
#689=FACE_BOUND('',#635,.T.);
#690=FACE_BOUND('',#636,.T.);
#691=FACE_BOUND('',#637,.T.);
#692=FACE_BOUND('',#638,.T.);
#693=FACE_BOUND('',#639,.T.);
#694=FACE_BOUND('',#640,.T.);
#695=FACE_BOUND('',#641,.T.);
#696=FACE_BOUND('',#642,.T.);
#697=FACE_BOUND('',#643,.T.);
#698=FACE_BOUND('',#644,.T.);
#699=FACE_BOUND('',#645,.T.);
#700=FACE_BOUND('',#646,.T.);
#701=FACE_BOUND('',#647,.T.);
#702=FACE_BOUND('',#648,.T.);
#703=FACE_BOUND('',#649,.T.);
#704=FACE_BOUND('',#650,.T.);
#705=FACE_BOUND('',#651,.T.);
#706=FACE_BOUND('',#652,.T.);
#707=FACE_BOUND('',#653,.T.);
#708=FACE_BOUND('',#654,.T.);
#709=FACE_BOUND('',#655,.T.);
#710=FACE_BOUND('',#656,.T.);
#711=FACE_BOUND('',#657,.T.);
#712=FACE_BOUND('',#658,.T.);
#713=FACE_BOUND('',#659,.T.);
#714=FACE_BOUND('',#660,.T.);
#715=FACE_BOUND('',#661,.T.);
#716=FACE_BOUND('',#662,.T.);
#717=FACE_BOUND('',#663,.T.);
#718=FACE_BOUND('',#664,.T.);
#719=FACE_BOUND('',#665,.T.);
#720=FACE_BOUND('',#666,.T.);
#721=FACE_BOUND('',#667,.T.);
#722=FACE_BOUND('',#668,.T.);
#723=FACE_BOUND('',#669,.T.);
#724=PLANE('',#805);
#725=PLANE('',#806);
#726=PLANE('',#807);
#727=PLANE('',#808);
#728=PLANE('',#809);
#729=PLANE('',#810);
#730=PLANE('',#811);
#731=PLANE('',#812);
#732=PLANE('',#813);
#733=PLANE('',#814);
#734=PLANE('',#815);
#735=PLANE('',#816);
#736=PLANE('',#817);
#737=PLANE('',#818);
#738=PLANE('',#819);
#739=PLANE('',#820);
#740=PLANE('',#821);
#741=PLANE('',#822);
#742=PLANE('',#823);
#743=PLANE('',#824);
#744=PLANE('',#825);
#745=PLANE('',#826);
#746=PLANE('',#827);
#747=PLANE('',#828);
#748=PLANE('',#829);
#749=PLANE('',#830);
#750=PLANE('',#831);
#751=PLANE('',#832);
#752=PLANE('',#833);
#753=PLANE('',#834);
#754=ADVANCED_FACE('',(#670,#671,#672,#673,#674,#675,#676,#677,#678),#724,
 .T.);
#755=ADVANCED_FACE('',(#679,#680,#681,#682,#683,#684,#685,#686,#687),#725,
 .F.);
#756=ADVANCED_FACE('',(#688),#726,.T.);
#757=ADVANCED_FACE('',(#689),#727,.F.);
#758=ADVANCED_FACE('',(#690),#728,.F.);
#759=ADVANCED_FACE('',(#691),#729,.T.);
#760=ADVANCED_FACE('',(#692),#730,.T.);
#761=ADVANCED_FACE('',(#693),#731,.F.);
#762=ADVANCED_FACE('',(#694),#732,.F.);
#763=ADVANCED_FACE('',(#695),#733,.T.);
#764=ADVANCED_FACE('',(#696),#734,.F.);
#765=ADVANCED_FACE('',(#697),#735,.F.);
#766=ADVANCED_FACE('',(#698),#736,.T.);
#767=ADVANCED_FACE('',(#699),#737,.T.);
#768=ADVANCED_FACE('',(#700),#12,.F.);
#769=ADVANCED_FACE('',(#701),#13,.T.);
#770=ADVANCED_FACE('',(#702),#738,.T.);
#771=ADVANCED_FACE('',(#703),#739,.T.);
#772=ADVANCED_FACE('',(#704),#14,.T.);
#773=ADVANCED_FACE('',(#705),#15,.F.);
#774=ADVANCED_FACE('',(#706),#740,.F.);
#775=ADVANCED_FACE('',(#707),#741,.F.);
#776=ADVANCED_FACE('',(#708),#16,.T.);
#777=ADVANCED_FACE('',(#709),#742,.T.);
#778=ADVANCED_FACE('',(#710),#17,.T.);
#779=ADVANCED_FACE('',(#711),#743,.T.);
#780=ADVANCED_FACE('',(#712),#744,.T.);
#781=ADVANCED_FACE('',(#713),#745,.F.);
#782=ADVANCED_FACE('',(#714),#746,.F.);
#783=ADVANCED_FACE('',(#715),#747,.T.);
#784=ADVANCED_FACE('',(#716),#748,.F.);
#785=ADVANCED_FACE('',(#717),#18,.F.);
#786=ADVANCED_FACE('',(#718),#749,.F.);
#787=ADVANCED_FACE('',(#719),#19,.F.);
#788=ADVANCED_FACE('',(#720),#750,.F.);
#789=ADVANCED_FACE('',(#721),#751,.F.);
#790=ADVANCED_FACE('',(#722),#752,.F.);
#791=ADVANCED_FACE('',(#723),#753,.F.);
#792=CLOSED_SHELL('',(#754,#755,#756,#757,#758,#759,#760,#761,#762,#763,
#764,#765,#766,#767,#768,#769,#770,#771,#772,#773,#774,#775,#776,#777,#778,
#779,#780,#781,#782,#783,#784,#785,#786,#787,#788,#789,#790,#791));
#793=STYLED_ITEM('',(#794),#801);
#794=PRESENTATION_STYLE_ASSIGNMENT((#795));
#795=SURFACE_STYLE_USAGE(.BOTH.,#796);
#796=SURFACE_SIDE_STYLE('',(#797));
#797=SURFACE_STYLE_FILL_AREA(#798);
#798=FILL_AREA_STYLE('',(#799));
#799=FILL_AREA_STYLE_COLOUR('',#800);
#800=COLOUR_RGB('',0.615686274509804,0.811764705882353,0.929411764705882);
#801=MANIFOLD_SOLID_BREP('Part 1',#792);
#802=SHAPE_DEFINITION_REPRESENTATION(#1350,#803);
#803=SHAPE_REPRESENTATION('Part 1',(#804),#1345);
#804=AXIS2_PLACEMENT_3D('',#989,#835,#836);
#805=AXIS2_PLACEMENT_3D('',#990,#837,#838);
#806=AXIS2_PLACEMENT_3D('',#1095,#867,#868);
#807=AXIS2_PLACEMENT_3D('',#1200,#897,#898);
#808=AXIS2_PLACEMENT_3D('',#1203,#901,#902);
#809=AXIS2_PLACEMENT_3D('',#1205,#904,#905);
#810=AXIS2_PLACEMENT_3D('',#1208,#908,#909);
#811=AXIS2_PLACEMENT_3D('',#1211,#912,#913);
#812=AXIS2_PLACEMENT_3D('',#1213,#915,#916);
#813=AXIS2_PLACEMENT_3D('',#1215,#918,#919);
#814=AXIS2_PLACEMENT_3D('',#1218,#922,#923);
#815=AXIS2_PLACEMENT_3D('',#1221,#926,#927);
#816=AXIS2_PLACEMENT_3D('',#1223,#929,#930);
#817=AXIS2_PLACEMENT_3D('',#1225,#932,#933);
#818=AXIS2_PLACEMENT_3D('',#1226,#934,#935);
#819=AXIS2_PLACEMENT_3D('',#1250,#939,#940);
#820=AXIS2_PLACEMENT_3D('',#1251,#941,#942);
#821=AXIS2_PLACEMENT_3D('',#1274,#945,#946);
#822=AXIS2_PLACEMENT_3D('',#1275,#947,#948);
#823=AXIS2_PLACEMENT_3D('',#1288,#951,#952);
#824=AXIS2_PLACEMENT_3D('',#1301,#955,#956);
#825=AXIS2_PLACEMENT_3D('',#1302,#957,#958);
#826=AXIS2_PLACEMENT_3D('',#1305,#961,#962);
#827=AXIS2_PLACEMENT_3D('',#1307,#964,#965);
#828=AXIS2_PLACEMENT_3D('',#1309,#967,#968);
#829=AXIS2_PLACEMENT_3D('',#1310,#969,#970);
#830=AXIS2_PLACEMENT_3D('',#1324,#974,#975);
#831=AXIS2_PLACEMENT_3D('',#1336,#977,#978);
#832=AXIS2_PLACEMENT_3D('',#1339,#981,#982);
#833=AXIS2_PLACEMENT_3D('',#1341,#984,#985);
#834=AXIS2_PLACEMENT_3D('',#1343,#987,#988);
#835=DIRECTION('',(0.,0.,1.));
#836=DIRECTION('',(1.,0.,0.));
#837=DIRECTION('',(0.,-1.,0.));
#838=DIRECTION('',(1.,0.,0.));
#839=DIRECTION('',(-0.92220913515963,0.,-0.386691493348544));
#840=DIRECTION('',(-0.916362028895462,0.,0.400350636315957));
#841=DIRECTION('',(0.926444094472332,0.,0.376432384124082));
#842=DIRECTION('',(0.931664491074864,0.,-0.363319798621291));
#843=DIRECTION('',(-1.,0.,0.));
#844=DIRECTION('',(1.,0.,0.));
#845=DIRECTION('',(-1.,0.,1.98254111540206E-16));
#846=DIRECTION('',(1.,0.,0.));
#847=DIRECTION('',(-1.54197642309049E-16,0.,-1.));
#848=DIRECTION('',(1.,0.,0.));
#849=DIRECTION('',(-1.54197642309049E-16,0.,-1.));
#850=DIRECTION('',(-1.,0.,1.98254111540206E-16));
#851=DIRECTION('',(-1.,0.,1.98254111540206E-16));
#852=DIRECTION('',(-1.54197642309049E-16,0.,-1.));
#853=DIRECTION('',(-1.,0.,1.22058792273975E-16));
#854=DIRECTION('',(0.,0.,-1.));
#855=DIRECTION('',(-1.,0.,0.));
#856=DIRECTION('',(0.,0.,-1.));
#857=DIRECTION('',(-1.,0.,0.));
#858=DIRECTION('',(-1.,0.,1.98254111540206E-16));
#859=DIRECTION('',(-1.54197642309049E-16,0.,-1.));
#860=DIRECTION('',(-0.999997620560306,0.,-0.0021814842941702));
#861=DIRECTION('',(-1.,0.,0.));
#862=DIRECTION('',(1.,0.,0.));
#863=DIRECTION('',(0.945156371698545,0.,-0.326618176220554));
#864=DIRECTION('',(0.91407321661251,0.,0.405549201295798));
#865=DIRECTION('',(0.906290747940627,0.,-0.422654800277033));
#866=DIRECTION('',(0.939913341865342,0.,0.341413107222797));
#867=DIRECTION('',(0.,-1.,0.));
#868=DIRECTION('',(1.,0.,0.));
#869=DIRECTION('',(-0.916362028895463,0.,0.400350636315957));
#870=DIRECTION('',(-0.92220913515963,0.,-0.386691493348544));
#871=DIRECTION('',(0.931664491074864,0.,-0.363319798621291));
#872=DIRECTION('',(0.926444094472332,0.,0.376432384124082));
#873=DIRECTION('',(-1.,0.,0.));
#874=DIRECTION('',(1.,0.,0.));
#875=DIRECTION('',(-1.,0.,0.));
#876=DIRECTION('',(1.,0.,0.));
#877=DIRECTION('',(-1.,0.,1.98254111540206E-16));
#878=DIRECTION('',(-1.54197642309049E-16,0.,-1.));
#879=DIRECTION('',(1.,0.,0.));
#880=DIRECTION('',(-1.54197642309049E-16,0.,-1.));
#881=DIRECTION('',(1.,0.,0.));
#882=DIRECTION('',(-1.,0.,1.98254111540206E-16));
#883=DIRECTION('',(-1.,0.,1.98254111540206E-16));
#884=DIRECTION('',(-1.,0.,1.22058792273975E-16));
#885=DIRECTION('',(-1.54197642309049E-16,0.,-1.));
#886=DIRECTION('',(0.,0.,-1.));
#887=DIRECTION('',(-1.,0.,0.));
#888=DIRECTION('',(0.,0.,-1.));
#889=DIRECTION('',(-1.,0.,0.));
#890=DIRECTION('',(-1.,0.,1.98254111540206E-16));
#891=DIRECTION('',(-0.999997620560306,0.,-0.0021814842941702));
#892=DIRECTION('',(-1.54197642309049E-16,0.,-1.));
#893=DIRECTION('',(0.91407321661251,0.,0.405549201295798));
#894=DIRECTION('',(0.945156371698546,0.,-0.326618176220554));
#895=DIRECTION('',(0.939913341865342,0.,0.341413107222797));
#896=DIRECTION('',(0.906290747940627,0.,-0.422654800277033));
#897=DIRECTION('',(-1.98254111540206E-16,0.,-1.));
#898=DIRECTION('',(-1.,0.,1.98254111540206E-16));
#899=DIRECTION('',(0.,1.,0.));
#900=DIRECTION('',(0.,1.,0.));
#901=DIRECTION('',(1.,0.,-1.54197642309049E-16));
#902=DIRECTION('',(-1.54197642309049E-16,0.,-1.));
#903=DIRECTION('',(0.,1.,0.));
#904=DIRECTION('',(-1.98254111540206E-16,0.,-1.));
#905=DIRECTION('',(-1.,0.,1.98254111540206E-16));
#906=DIRECTION('',(0.,1.,0.));
#907=DIRECTION('',(0.,1.,0.));
#908=DIRECTION('',(1.,0.,-1.54197642309049E-16));
#909=DIRECTION('',(-1.54197642309049E-16,0.,-1.));
#910=DIRECTION('',(0.,1.,0.));
#911=DIRECTION('',(0.,1.,0.));
#912=DIRECTION('',(-1.98254111540206E-16,0.,-1.));
#913=DIRECTION('',(-1.,0.,1.98254111540206E-16));
#914=DIRECTION('',(0.,1.,0.));
#915=DIRECTION('',(1.,0.,-1.54197642309049E-16));
#916=DIRECTION('',(-1.54197642309049E-16,0.,-1.));
#917=DIRECTION('',(0.,1.,0.));
#918=DIRECTION('',(-1.98254111540206E-16,0.,-1.));
#919=DIRECTION('',(-1.,0.,1.98254111540206E-16));
#920=DIRECTION('',(0.,1.,0.));
#921=DIRECTION('',(0.,1.,0.));
#922=DIRECTION('',(1.,0.,0.));
#923=DIRECTION('',(0.,0.,-1.));
#924=DIRECTION('',(0.,1.,0.));
#925=DIRECTION('',(0.,1.,0.));
#926=DIRECTION('',(0.,0.,-1.));
#927=DIRECTION('',(-1.,0.,0.));
#928=DIRECTION('',(0.,1.,0.));
#929=DIRECTION('',(1.,0.,0.));
#930=DIRECTION('',(0.,0.,-1.));
#931=DIRECTION('',(0.,1.,0.));
#932=DIRECTION('',(0.,0.,-1.));
#933=DIRECTION('',(-1.,0.,0.));
#934=DIRECTION('',(1.,0.,-1.54197642309049E-16));
#935=DIRECTION('',(-1.54197642309049E-16,0.,-1.));
#936=DIRECTION('',(0.,1.,0.));
#937=DIRECTION('',(0.,1.,0.));
#938=DIRECTION('',(0.,1.,0.));
#939=DIRECTION('',(-1.22058792273975E-16,0.,-1.));
#940=DIRECTION('',(-1.,0.,1.22058792273975E-16));
#941=DIRECTION('',(0.,0.,1.));
#942=DIRECTION('',(1.,0.,0.));
#943=DIRECTION('',(0.,1.,0.));
#944=DIRECTION('',(0.,1.,0.));
#945=DIRECTION('',(0.0021814842941702,0.,-0.999997620560306));
#946=DIRECTION('',(-0.999997620560306,0.,-0.0021814842941702));
#947=DIRECTION('',(0.,0.,1.));
#948=DIRECTION('',(1.,0.,0.));
#949=DIRECTION('',(0.,-1.,0.));
#950=DIRECTION('',(0.,-1.,0.));
#951=DIRECTION('',(0.,0.,1.));
#952=DIRECTION('',(1.,0.,0.));
#953=DIRECTION('',(0.,-1.,0.));
#954=DIRECTION('',(0.,-1.,0.));
#955=DIRECTION('',(0.,0.,-1.));
#956=DIRECTION('',(-1.,0.,0.));
#957=DIRECTION('',(0.405549201295798,0.,-0.91407321661251));
#958=DIRECTION('',(-0.91407321661251,0.,-0.405549201295798));
#959=DIRECTION('',(0.,-1.,0.));
#960=DIRECTION('',(0.,-1.,0.));
#961=DIRECTION('',(-0.326618176220554,0.,-0.945156371698546));
#962=DIRECTION('',(-0.945156371698546,0.,0.326618176220554));
#963=DIRECTION('',(0.,-1.,0.));
#964=DIRECTION('',(0.341413107222797,0.,-0.939913341865342));
#965=DIRECTION('',(-0.939913341865342,0.,-0.341413107222797));
#966=DIRECTION('',(0.,-1.,0.));
#967=DIRECTION('',(-0.422654800277033,0.,-0.906290747940627));
#968=DIRECTION('',(-0.906290747940627,0.,0.422654800277033));
#969=DIRECTION('',(0.,0.,1.));
#970=DIRECTION('',(1.,0.,0.));
#971=DIRECTION('',(0.,-1.,0.));
#972=DIRECTION('',(0.,-1.,0.));
#973=DIRECTION('',(0.,-1.,0.));
#974=DIRECTION('',(0.,0.,-1.));
#975=DIRECTION('',(-1.,0.,0.));
#976=DIRECTION('',(0.,-1.,0.));
#977=DIRECTION('',(-0.386691493348544,0.,0.92220913515963));
#978=DIRECTION('',(0.92220913515963,0.,0.386691493348544));
#979=DIRECTION('',(0.,-1.,0.));
#980=DIRECTION('',(0.,-1.,0.));
#981=DIRECTION('',(-0.363319798621291,0.,-0.931664491074864));
#982=DIRECTION('',(-0.931664491074864,0.,0.363319798621291));
#983=DIRECTION('',(0.,-1.,0.));
#984=DIRECTION('',(0.376432384124082,0.,-0.926444094472332));
#985=DIRECTION('',(-0.926444094472332,0.,-0.376432384124082));
#986=DIRECTION('',(0.,-1.,0.));
#987=DIRECTION('',(0.400350636315957,0.,0.916362028895463));
#988=DIRECTION('',(0.916362028895463,0.,-0.400350636315957));
#989=CARTESIAN_POINT('',(0.,0.,0.));
#990=CARTESIAN_POINT('',(0.,0.058,0.));
#991=CARTESIAN_POINT('',(-0.0146063943393528,0.058,0.000859959865920246));
#992=CARTESIAN_POINT('',(-0.0125555014237761,0.058,0.00171991973184049));
#993=CARTESIAN_POINT('',(-0.0166572872549295,0.058,2.16840434497101E-19));
#994=CARTESIAN_POINT('',(-0.0105871404521167,0.058,0.000859959865920246));
#995=CARTESIAN_POINT('',(-0.0086187794804573,0.058,0.));
#996=CARTESIAN_POINT('',(-0.0105871404521167,0.058,-0.000799783621914685));
#997=CARTESIAN_POINT('',(-0.0125555014237761,0.058,-0.00159956724382937));
#998=CARTESIAN_POINT('',(-0.0146063943393528,0.058,-0.000799783621914685));
#999=CARTESIAN_POINT('',(0.000542688183486463,0.058,0.0213294606655836));
#1000=CARTESIAN_POINT('',(0.00590992532670498,0.058,0.0213294606655836));
#1001=CARTESIAN_POINT('',(-0.00482454895973206,0.058,0.0213294606655836));
#1002=CARTESIAN_POINT('',(0.00402615964412689,0.058,0.00308982492424547));
#1003=CARTESIAN_POINT('',(0.00267174124252779,0.058,0.00673048433804446));
#1004=CARTESIAN_POINT('',(8.49566474214765E-5,0.058,0.0136837283847328));
#1005=CARTESIAN_POINT('',(0.0040303204417684,0.058,0.018862330534032));
#1006=CARTESIAN_POINT('',(0.00590992532670498,0.058,0.0213294606655836));
#1007=CARTESIAN_POINT('',(0.00402615964412689,0.058,0.00308982492424547));
#1008=CARTESIAN_POINT('',(0.000124073587357998,0.058,0.00308982492424547));
#1009=CARTESIAN_POINT('',(-0.0037780124694109,0.058,0.00308982492424547));
#1010=CARTESIAN_POINT('',(-0.00482454895973206,0.058,0.0213294606655836));
#1011=CARTESIAN_POINT('',(-0.00312355768282709,0.058,0.0188492525281372));
#1012=CARTESIAN_POINT('',(0.000477248043814052,0.058,0.013598933031597));
#1013=CARTESIAN_POINT('',(-0.00230832266149895,0.058,0.00671948027146037));
#1014=CARTESIAN_POINT('',(-0.0037780124694109,0.058,0.00308982492424547));
#1015=CARTESIAN_POINT('',(3.46944695195361E-18,0.058,0.0225));
#1016=CARTESIAN_POINT('',(-0.0086187794804573,0.058,0.0225));
#1017=CARTESIAN_POINT('',(-0.0175,0.058,0.0225));
#1018=CARTESIAN_POINT('',(-0.00684085302054882,0.058,0.00303813023492694));
#1019=CARTESIAN_POINT('',(-0.00503837359564779,0.058,0.00650151423074698));
#1020=CARTESIAN_POINT('',(-0.00144346926301445,0.058,0.0134089629151225));
#1021=CARTESIAN_POINT('',(-0.00623147323266283,0.058,0.0194753099205522));
#1022=CARTESIAN_POINT('',(-0.0086187794804573,0.058,0.0225));
#1023=CARTESIAN_POINT('',(-0.00684085302054882,0.058,0.00303813023492694));
#1024=CARTESIAN_POINT('',(-0.0121704265102744,0.058,0.00303813023492694));
#1025=CARTESIAN_POINT('',(-0.0175,0.058,0.00303813023492694));
#1026=CARTESIAN_POINT('',(-0.0175,0.058,3.46944695195361E-18));
#1027=CARTESIAN_POINT('',(0.0127257480844855,0.058,-0.00284947641193867));
#1028=CARTESIAN_POINT('',(0.00795149616897106,0.058,-0.00284947641193867));
#1029=CARTESIAN_POINT('',(0.0175,0.058,-0.00284947641193867));
#1030=CARTESIAN_POINT('',(0.0175,0.058,-3.46944695195361E-18));
#1031=CARTESIAN_POINT('',(0.0175,0.058,-0.0225));
#1032=CARTESIAN_POINT('',(-3.46944695195361E-18,0.058,-0.0225));
#1033=CARTESIAN_POINT('',(0.0100850081071257,0.058,-0.0225));
#1034=CARTESIAN_POINT('',(0.0100850081071257,0.058,-0.0225));
#1035=CARTESIAN_POINT('',(0.00704865900710842,0.058,-0.0184559007114181));
#1036=CARTESIAN_POINT('',(0.00150243619230515,0.058,-0.0110689122588929));
#1037=CARTESIAN_POINT('',(0.00594229406208703,0.058,-0.00541023842700005));
#1038=CARTESIAN_POINT('',(0.00795149616897106,0.058,-0.00284947641193867));
#1039=CARTESIAN_POINT('',(-0.00861877948045731,0.058,-0.0225));
#1040=CARTESIAN_POINT('',(-0.00573882549126552,0.058,-0.0184509147221974));
#1041=CARTESIAN_POINT('',(-0.000463460287225598,0.058,-0.0110339894300317));
#1042=CARTESIAN_POINT('',(-0.00484933648549801,0.058,-0.00540531602985998));
#1043=CARTESIAN_POINT('',(-0.00684085302054882,0.058,-0.00284947641193867));
#1044=CARTESIAN_POINT('',(-0.00861877948045731,0.058,-0.0225));
#1045=CARTESIAN_POINT('',(-0.00684085302054882,0.058,-0.00284947641193867));
#1046=CARTESIAN_POINT('',(-3.46944695195361E-18,0.058,-0.0225));
#1047=CARTESIAN_POINT('',(-0.0175,0.058,-0.0225));
#1048=CARTESIAN_POINT('',(-0.0175,0.058,3.46944695195361E-18));
#1049=CARTESIAN_POINT('',(-0.0175,0.058,-0.00284947641193867));
#1050=CARTESIAN_POINT('',(-0.0121704265102744,0.058,-0.00284947641193867));
#1051=CARTESIAN_POINT('',(0.02,0.058,0.));
#1052=CARTESIAN_POINT('',(0.02,0.058,0.025));
#1053=CARTESIAN_POINT('',(0.02,0.058,-0.025));
#1054=CARTESIAN_POINT('',(0.,0.058,0.025));
#1055=CARTESIAN_POINT('',(-0.02,0.058,0.025));
#1056=CARTESIAN_POINT('',(-0.02,0.058,0.));
#1057=CARTESIAN_POINT('',(-0.02,0.058,-0.025));
#1058=CARTESIAN_POINT('',(0.,0.058,-0.025));
#1059=CARTESIAN_POINT('',(3.46944695195361E-18,0.058,0.0225));
#1060=CARTESIAN_POINT('',(0.0175,0.058,0.0225));
#1061=CARTESIAN_POINT('',(0.0100850081071258,0.058,0.0225));
#1062=CARTESIAN_POINT('',(0.0175,0.058,-3.46944695195361E-18));
#1063=CARTESIAN_POINT('',(0.0175,0.058,0.00305896019563079));
#1064=CARTESIAN_POINT('',(0.0127257480844855,0.058,0.00304854521527887));
#1065=CARTESIAN_POINT('',(0.00795149616897106,0.058,0.00303813023492694));
#1066=CARTESIAN_POINT('',(0.00795149616897106,0.058,0.00303813023492694));
#1067=CARTESIAN_POINT('',(0.00579027040997689,0.058,0.00651183814325543));
#1068=CARTESIAN_POINT('',(0.00144943550990763,0.058,0.0134888013125897));
#1069=CARTESIAN_POINT('',(0.00719836835490256,0.058,0.0194877985445181));
#1070=CARTESIAN_POINT('',(0.0100850081071258,0.058,0.0225));
#1071=CARTESIAN_POINT('',(0.000451735453680158,0.058,-0.0225));
#1072=CARTESIAN_POINT('',(0.00650015007704496,0.058,-0.0225));
#1073=CARTESIAN_POINT('',(-0.00559667916968465,0.058,-0.0225));
#1074=CARTESIAN_POINT('',(-0.00559667916968465,0.058,-0.0225));
#1075=CARTESIAN_POINT('',(-0.00342511806775623,0.058,-0.0186262098877776));
#1076=CARTESIAN_POINT('',(0.000566209800228312,0.058,-0.0115061862255809));
#1077=CARTESIAN_POINT('',(-0.00241760245916239,0.058,-0.0058554668663858));
#1078=CARTESIAN_POINT('',(-0.0037780124694109,0.058,-0.0032791334670037));
#1079=CARTESIAN_POINT('',(-0.0037780124694109,0.058,-0.0032791334670037));
#1080=CARTESIAN_POINT('',(0.000124073587357997,0.058,-0.0032791334670037));
#1081=CARTESIAN_POINT('',(0.00402615964412689,0.058,-0.0032791334670037));
#1082=CARTESIAN_POINT('',(0.00402615964412689,0.058,-0.0032791334670037));
#1083=CARTESIAN_POINT('',(0.00298259514862459,0.058,-0.00586358843876933));
#1084=CARTESIAN_POINT('',(0.000680343130200318,0.058,-0.0115652644740488));
#1085=CARTESIAN_POINT('',(0.00444301928199683,0.058,-0.018634892206633));
#1086=CARTESIAN_POINT('',(0.00650015007704496,0.058,-0.0225));
#1087=CARTESIAN_POINT('',(0.0120232840999961,0.058,-0.000669811037369072));
#1088=CARTESIAN_POINT('',(0.0100850081071258,0.058,0.));
#1089=CARTESIAN_POINT('',(0.0139615600928664,0.058,-0.00133962207473814));
#1090=CARTESIAN_POINT('',(0.0120232840999961,0.058,0.000859959865920246));
#1091=CARTESIAN_POINT('',(0.0139615600928664,0.058,0.00171991973184049));
#1092=CARTESIAN_POINT('',(0.0158055558775421,0.058,0.000859959865920246));
#1093=CARTESIAN_POINT('',(0.0176495516622177,0.058,-8.67361737988404E-19));
#1094=CARTESIAN_POINT('',(0.0158055558775421,0.058,-0.000669811037369072));
#1095=CARTESIAN_POINT('',(0.,0.06,0.));
#1096=CARTESIAN_POINT('',(-0.00138142342218419,0.06,-0.00316193819888769));
#1097=CARTESIAN_POINT('',(-0.0086187794804573,0.06,-2.16840434497101E-19));
#1098=CARTESIAN_POINT('',(-0.0125555014237761,0.06,0.00171991973184049));
#1099=CARTESIAN_POINT('',(-0.00249076934411446,0.06,0.00594016233154505));
#1100=CARTESIAN_POINT('',(-0.0166572872549295,0.06,2.16840434497101E-19));
#1101=CARTESIAN_POINT('',(-0.00219878317351882,0.06,-0.00563836106403795));
#1102=CARTESIAN_POINT('',(-0.0125555014237761,0.06,-0.00159956724382937));
#1103=CARTESIAN_POINT('',(-0.001221292599971,0.06,0.00300574383231846));
#1104=CARTESIAN_POINT('',(0.00402615964412689,0.06,0.00308982492424547));
#1105=CARTESIAN_POINT('',(0.00267174124252779,0.06,0.00673048433804446));
#1106=CARTESIAN_POINT('',(8.49566474214765E-5,0.06,0.0136837283847328));
#1107=CARTESIAN_POINT('',(0.0040303204417684,0.06,0.018862330534032));
#1108=CARTESIAN_POINT('',(0.00590992532670498,0.06,0.0213294606655836));
#1109=CARTESIAN_POINT('',(0.00402615964412689,0.06,0.00308982492424547));
#1110=CARTESIAN_POINT('',(0.00590992532670498,0.06,0.0213294606655836));
#1111=CARTESIAN_POINT('',(0.,0.06,0.0213294606655836));
#1112=CARTESIAN_POINT('',(-0.00482454895973206,0.06,0.0213294606655836));
#1113=CARTESIAN_POINT('',(-0.00482454895973206,0.06,0.0213294606655836));
#1114=CARTESIAN_POINT('',(-0.00312355768282709,0.06,0.0188492525281372));
#1115=CARTESIAN_POINT('',(0.000477248043814052,0.06,0.013598933031597));
#1116=CARTESIAN_POINT('',(-0.00230832266149895,0.06,0.00671948027146037));
#1117=CARTESIAN_POINT('',(-0.0037780124694109,0.06,0.00308982492424547));
#1118=CARTESIAN_POINT('',(-0.0037780124694109,0.06,0.00308982492424547));
#1119=CARTESIAN_POINT('',(0.,0.06,0.00308982492424547));
#1120=CARTESIAN_POINT('',(-0.00559667916968465,0.06,-0.0225));
#1121=CARTESIAN_POINT('',(-0.00342511806775623,0.06,-0.0186262098877776));
#1122=CARTESIAN_POINT('',(0.000566209800228312,0.06,-0.0115061862255809));
#1123=CARTESIAN_POINT('',(-0.00241760245916239,0.06,-0.0058554668663858));
#1124=CARTESIAN_POINT('',(-0.0037780124694109,0.06,-0.0032791334670037));
#1125=CARTESIAN_POINT('',(-0.00559667916968465,0.06,-0.0225));
#1126=CARTESIAN_POINT('',(-0.0037780124694109,0.06,-0.0032791334670037));
#1127=CARTESIAN_POINT('',(0.,0.06,-0.0225));
#1128=CARTESIAN_POINT('',(0.00650015007704496,0.06,-0.0225));
#1129=CARTESIAN_POINT('',(0.00402615964412689,0.06,-0.0032791334670037));
#1130=CARTESIAN_POINT('',(0.00298259514862459,0.06,-0.00586358843876933));
#1131=CARTESIAN_POINT('',(0.000680343130200318,0.06,-0.0115652644740488));
#1132=CARTESIAN_POINT('',(0.00444301928199683,0.06,-0.018634892206633));
#1133=CARTESIAN_POINT('',(0.00650015007704496,0.06,-0.0225));
#1134=CARTESIAN_POINT('',(0.00402615964412689,0.06,-0.0032791334670037));
#1135=CARTESIAN_POINT('',(0.,0.06,-0.0032791334670037));
#1136=CARTESIAN_POINT('',(-0.00684085302054882,0.06,0.00303813023492694));
#1137=CARTESIAN_POINT('',(-0.00503837359564779,0.06,0.00650151423074698));
#1138=CARTESIAN_POINT('',(-0.00144346926301445,0.06,0.0134089629151225));
#1139=CARTESIAN_POINT('',(-0.00623147323266283,0.06,0.0194753099205522));
#1140=CARTESIAN_POINT('',(-0.0086187794804573,0.06,0.0225));
#1141=CARTESIAN_POINT('',(-0.00684085302054882,0.06,0.00303813023492694));
#1142=CARTESIAN_POINT('',(-0.0086187794804573,0.06,0.0225));
#1143=CARTESIAN_POINT('',(3.46944695195361E-18,0.06,0.0225));
#1144=CARTESIAN_POINT('',(-0.0175,0.06,0.0225));
#1145=CARTESIAN_POINT('',(-0.0175,0.06,3.46944695195361E-18));
#1146=CARTESIAN_POINT('',(-0.0175,0.06,0.00303813023492694));
#1147=CARTESIAN_POINT('',(-0.0121704265102744,0.06,0.00303813023492694));
#1148=CARTESIAN_POINT('',(0.0175,0.06,-3.46944695195361E-18));
#1149=CARTESIAN_POINT('',(0.0175,0.06,-0.00284947641193867));
#1150=CARTESIAN_POINT('',(0.0175,0.06,-0.0225));
#1151=CARTESIAN_POINT('',(0.0127257480844855,0.06,-0.00284947641193867));
#1152=CARTESIAN_POINT('',(0.00795149616897106,0.06,-0.00284947641193867));
#1153=CARTESIAN_POINT('',(0.0100850081071257,0.06,-0.0225));
#1154=CARTESIAN_POINT('',(0.00704865900710842,0.06,-0.0184559007114181));
#1155=CARTESIAN_POINT('',(0.00150243619230515,0.06,-0.0110689122588929));
#1156=CARTESIAN_POINT('',(0.00594229406208703,0.06,-0.00541023842700005));
#1157=CARTESIAN_POINT('',(0.00795149616897106,0.06,-0.00284947641193867));
#1158=CARTESIAN_POINT('',(0.0100850081071257,0.06,-0.0225));
#1159=CARTESIAN_POINT('',(-3.46944695195361E-18,0.06,-0.0225));
#1160=CARTESIAN_POINT('',(-3.46944695195361E-18,0.06,-0.0225));
#1161=CARTESIAN_POINT('',(-0.00861877948045731,0.06,-0.0225));
#1162=CARTESIAN_POINT('',(-0.0175,0.06,-0.0225));
#1163=CARTESIAN_POINT('',(-0.00861877948045731,0.06,-0.0225));
#1164=CARTESIAN_POINT('',(-0.00573882549126552,0.06,-0.0184509147221974));
#1165=CARTESIAN_POINT('',(-0.000463460287225598,0.06,-0.0110339894300317));
#1166=CARTESIAN_POINT('',(-0.00484933648549801,0.06,-0.00540531602985998));
#1167=CARTESIAN_POINT('',(-0.00684085302054882,0.06,-0.00284947641193867));
#1168=CARTESIAN_POINT('',(-0.00684085302054882,0.06,-0.00284947641193867));
#1169=CARTESIAN_POINT('',(-0.0121704265102744,0.06,-0.00284947641193867));
#1170=CARTESIAN_POINT('',(-0.0175,0.06,-0.00284947641193867));
#1171=CARTESIAN_POINT('',(-0.0175,0.06,3.46944695195361E-18));
#1172=CARTESIAN_POINT('',(0.02,0.06,0.));
#1173=CARTESIAN_POINT('',(0.02,0.06,0.025));
#1174=CARTESIAN_POINT('',(0.02,0.06,-0.025));
#1175=CARTESIAN_POINT('',(0.,0.06,-0.025));
#1176=CARTESIAN_POINT('',(-0.02,0.06,-0.025));
#1177=CARTESIAN_POINT('',(-0.02,0.06,0.));
#1178=CARTESIAN_POINT('',(-0.02,0.06,0.025));
#1179=CARTESIAN_POINT('',(0.,0.06,0.025));
#1180=CARTESIAN_POINT('',(3.46944695195361E-18,0.06,0.0225));
#1181=CARTESIAN_POINT('',(0.0175,0.06,0.0225));
#1182=CARTESIAN_POINT('',(0.0100850081071258,0.06,0.0225));
#1183=CARTESIAN_POINT('',(0.00795149616897106,0.06,0.00303813023492694));
#1184=CARTESIAN_POINT('',(0.00579027040997689,0.06,0.00651183814325543));
#1185=CARTESIAN_POINT('',(0.00144943550990763,0.06,0.0134888013125897));
#1186=CARTESIAN_POINT('',(0.00719836835490256,0.06,0.0194877985445181));
#1187=CARTESIAN_POINT('',(0.0100850081071258,0.06,0.0225));
#1188=CARTESIAN_POINT('',(0.00795149616897106,0.06,0.00303813023492694));
#1189=CARTESIAN_POINT('',(0.0127257480844855,0.06,0.00304854521527887));
#1190=CARTESIAN_POINT('',(0.0175,0.06,0.00305896019563079));
#1191=CARTESIAN_POINT('',(0.0175,0.06,-3.46944695195361E-18));
#1192=CARTESIAN_POINT('',(0.00165868284324391,0.06,-0.00373852927590431));
#1193=CARTESIAN_POINT('',(0.0100850081071258,0.06,0.));
#1194=CARTESIAN_POINT('',(0.0139615600928664,0.06,0.00171991973184049));
#1195=CARTESIAN_POINT('',(0.00107586294704819,0.06,0.00311329495266767));
#1196=CARTESIAN_POINT('',(0.0139615600928664,0.06,-0.00133962207473814));
#1197=CARTESIAN_POINT('',(0.00205728309812275,0.06,-0.00566371879407014));
#1198=CARTESIAN_POINT('',(0.0176495516622177,0.06,-1.0842021724855E-19));
#1199=CARTESIAN_POINT('',(0.00315286437572854,0.06,0.00676062784892414));
#1200=CARTESIAN_POINT('',(3.46944695195361E-18,0.058,0.0225));
#1201=CARTESIAN_POINT('',(0.0100850081071258,0.058,0.0225));
#1202=CARTESIAN_POINT('',(0.0175,0.058,0.0225));
#1203=CARTESIAN_POINT('',(0.0175,0.058,-3.46944695195361E-18));
#1204=CARTESIAN_POINT('',(0.0175,0.058,0.00305896019563079));
#1205=CARTESIAN_POINT('',(-3.46944695195361E-18,0.058,-0.0225));
#1206=CARTESIAN_POINT('',(0.0100850081071257,0.058,-0.0225));
#1207=CARTESIAN_POINT('',(0.0175,0.058,-0.0225));
#1208=CARTESIAN_POINT('',(-0.0175,0.058,3.46944695195361E-18));
#1209=CARTESIAN_POINT('',(-0.0175,0.058,0.00303813023492694));
#1210=CARTESIAN_POINT('',(-0.0175,0.058,0.0225));
#1211=CARTESIAN_POINT('',(3.46944695195361E-18,0.058,0.0225));
#1212=CARTESIAN_POINT('',(-0.0086187794804573,0.058,0.0225));
#1213=CARTESIAN_POINT('',(0.0175,0.058,-3.46944695195361E-18));
#1214=CARTESIAN_POINT('',(0.0175,0.058,-0.00284947641193867));
#1215=CARTESIAN_POINT('',(-3.46944695195361E-18,0.058,-0.0225));
#1216=CARTESIAN_POINT('',(-0.00861877948045731,0.058,-0.0225));
#1217=CARTESIAN_POINT('',(-0.0175,0.058,-0.0225));
#1218=CARTESIAN_POINT('',(0.02,0.058,0.));
#1219=CARTESIAN_POINT('',(0.02,0.058,0.025));
#1220=CARTESIAN_POINT('',(0.02,0.058,-0.025));
#1221=CARTESIAN_POINT('',(0.,0.058,0.025));
#1222=CARTESIAN_POINT('',(-0.02,0.058,0.025));
#1223=CARTESIAN_POINT('',(-0.02,0.058,0.));
#1224=CARTESIAN_POINT('',(-0.02,0.058,-0.025));
#1225=CARTESIAN_POINT('',(0.,0.058,-0.025));
#1226=CARTESIAN_POINT('',(-0.0175,0.058,3.46944695195361E-18));
#1227=CARTESIAN_POINT('',(-0.0175,0.058,-0.00284947641193867));
#1228=CARTESIAN_POINT('',(0.0100850081071257,0.058,-0.0225));
#1229=CARTESIAN_POINT('',(0.0100850081071257,0.06,-0.0225));
#1230=CARTESIAN_POINT('',(0.00704865900710842,0.058,-0.0184559007114181));
#1231=CARTESIAN_POINT('',(0.00704865900710842,0.06,-0.0184559007114181));
#1232=CARTESIAN_POINT('',(0.00150243619230515,0.058,-0.0110689122588929));
#1233=CARTESIAN_POINT('',(0.00150243619230515,0.06,-0.0110689122588929));
#1234=CARTESIAN_POINT('',(0.00594229406208703,0.058,-0.00541023842700005));
#1235=CARTESIAN_POINT('',(0.00594229406208703,0.06,-0.00541023842700005));
#1236=CARTESIAN_POINT('',(0.00795149616897106,0.058,-0.00284947641193867));
#1237=CARTESIAN_POINT('',(0.00795149616897106,0.06,-0.00284947641193867));
#1238=CARTESIAN_POINT('',(0.00795149616897106,0.058,-0.00284947641193867));
#1239=CARTESIAN_POINT('',(-0.00861877948045731,0.058,-0.0225));
#1240=CARTESIAN_POINT('',(-0.00861877948045731,0.06,-0.0225));
#1241=CARTESIAN_POINT('',(-0.00573882549126552,0.058,-0.0184509147221974));
#1242=CARTESIAN_POINT('',(-0.00573882549126552,0.06,-0.0184509147221974));
#1243=CARTESIAN_POINT('',(-0.000463460287225598,0.058,-0.0110339894300317));
#1244=CARTESIAN_POINT('',(-0.000463460287225598,0.06,-0.0110339894300317));
#1245=CARTESIAN_POINT('',(-0.00484933648549801,0.058,-0.00540531602985998));
#1246=CARTESIAN_POINT('',(-0.00484933648549801,0.06,-0.00540531602985998));
#1247=CARTESIAN_POINT('',(-0.00684085302054882,0.058,-0.00284947641193867));
#1248=CARTESIAN_POINT('',(-0.00684085302054882,0.06,-0.00284947641193867));
#1249=CARTESIAN_POINT('',(-0.00684085302054882,0.058,-0.00284947641193867));
#1250=CARTESIAN_POINT('',(-0.0121704265102744,0.058,-0.00284947641193867));
#1251=CARTESIAN_POINT('',(-0.0121704265102744,0.058,0.00303813023492694));
#1252=CARTESIAN_POINT('',(-0.00684085302054882,0.058,0.00303813023492694));
#1253=CARTESIAN_POINT('',(-0.00684085302054882,0.058,0.00303813023492694));
#1254=CARTESIAN_POINT('',(-0.00684085302054882,0.06,0.00303813023492694));
#1255=CARTESIAN_POINT('',(-0.00503837359564779,0.058,0.00650151423074698));
#1256=CARTESIAN_POINT('',(-0.00503837359564779,0.06,0.00650151423074698));
#1257=CARTESIAN_POINT('',(-0.00144346926301445,0.058,0.0134089629151225));
#1258=CARTESIAN_POINT('',(-0.00144346926301445,0.06,0.0134089629151225));
#1259=CARTESIAN_POINT('',(-0.00623147323266283,0.058,0.0194753099205522));
#1260=CARTESIAN_POINT('',(-0.00623147323266283,0.06,0.0194753099205522));
#1261=CARTESIAN_POINT('',(-0.0086187794804573,0.058,0.0225));
#1262=CARTESIAN_POINT('',(-0.0086187794804573,0.06,0.0225));
#1263=CARTESIAN_POINT('',(0.00795149616897106,0.058,0.00303813023492694));
#1264=CARTESIAN_POINT('',(0.00795149616897106,0.06,0.00303813023492694));
#1265=CARTESIAN_POINT('',(0.00579027040997689,0.058,0.00651183814325543));
#1266=CARTESIAN_POINT('',(0.00579027040997689,0.06,0.00651183814325543));
#1267=CARTESIAN_POINT('',(0.00144943550990763,0.058,0.0134888013125897));
#1268=CARTESIAN_POINT('',(0.00144943550990763,0.06,0.0134888013125897));
#1269=CARTESIAN_POINT('',(0.00719836835490256,0.058,0.0194877985445181));
#1270=CARTESIAN_POINT('',(0.00719836835490256,0.06,0.0194877985445181));
#1271=CARTESIAN_POINT('',(0.0100850081071258,0.058,0.0225));
#1272=CARTESIAN_POINT('',(0.0100850081071258,0.06,0.0225));
#1273=CARTESIAN_POINT('',(0.00795149616897106,0.058,0.00303813023492694));
#1274=CARTESIAN_POINT('',(0.0127257480844855,0.058,0.00304854521527887));
#1275=CARTESIAN_POINT('',(0.0127257480844855,0.058,-0.00284947641193867));
#1276=CARTESIAN_POINT('',(-0.00559667916968465,0.06,-0.0225));
#1277=CARTESIAN_POINT('',(-0.00559667916968465,0.058,-0.0225));
#1278=CARTESIAN_POINT('',(-0.00342511806775623,0.06,-0.0186262098877776));
#1279=CARTESIAN_POINT('',(-0.00342511806775623,0.058,-0.0186262098877776));
#1280=CARTESIAN_POINT('',(0.000566209800228312,0.06,-0.0115061862255809));
#1281=CARTESIAN_POINT('',(0.000566209800228312,0.058,-0.0115061862255809));
#1282=CARTESIAN_POINT('',(-0.00241760245916239,0.06,-0.0058554668663858));
#1283=CARTESIAN_POINT('',(-0.00241760245916239,0.058,-0.0058554668663858));
#1284=CARTESIAN_POINT('',(-0.0037780124694109,0.06,-0.0032791334670037));
#1285=CARTESIAN_POINT('',(-0.0037780124694109,0.058,-0.0032791334670037));
#1286=CARTESIAN_POINT('',(-0.0037780124694109,0.083,-0.0032791334670037));
#1287=CARTESIAN_POINT('',(-0.00559667916968465,0.083,-0.0225));
#1288=CARTESIAN_POINT('',(0.000451735453680158,0.083,-0.0225));
#1289=CARTESIAN_POINT('',(0.00650015007704496,0.083,-0.0225));
#1290=CARTESIAN_POINT('',(0.00402615964412689,0.06,-0.0032791334670037));
#1291=CARTESIAN_POINT('',(0.00402615964412689,0.058,-0.0032791334670037));
#1292=CARTESIAN_POINT('',(0.00298259514862459,0.06,-0.00586358843876933));
#1293=CARTESIAN_POINT('',(0.00298259514862459,0.058,-0.00586358843876933));
#1294=CARTESIAN_POINT('',(0.000680343130200318,0.06,-0.0115652644740488));
#1295=CARTESIAN_POINT('',(0.000680343130200318,0.058,-0.0115652644740488));
#1296=CARTESIAN_POINT('',(0.00444301928199683,0.06,-0.018634892206633));
#1297=CARTESIAN_POINT('',(0.00444301928199683,0.058,-0.018634892206633));
#1298=CARTESIAN_POINT('',(0.00650015007704496,0.06,-0.0225));
#1299=CARTESIAN_POINT('',(0.00650015007704496,0.058,-0.0225));
#1300=CARTESIAN_POINT('',(0.00402615964412689,0.083,-0.0032791334670037));
#1301=CARTESIAN_POINT('',(0.000124073587357997,0.083,-0.0032791334670037));
#1302=CARTESIAN_POINT('',(0.0120232840999961,0.083,0.000859959865920246));
#1303=CARTESIAN_POINT('',(0.0139615600928664,0.083,0.00171991973184049));
#1304=CARTESIAN_POINT('',(0.0100850081071258,0.083,0.));
#1305=CARTESIAN_POINT('',(0.0120232840999961,0.083,-0.000669811037369072));
#1306=CARTESIAN_POINT('',(0.0139615600928664,0.083,-0.00133962207473814));
#1307=CARTESIAN_POINT('',(0.0158055558775421,0.083,-0.000669811037369072));
#1308=CARTESIAN_POINT('',(0.0176495516622177,0.083,-1.0842021724855E-19));
#1309=CARTESIAN_POINT('',(0.0158055558775421,0.083,0.000859959865920246));
#1310=CARTESIAN_POINT('',(0.000542688183486463,0.083,0.0213294606655836));
#1311=CARTESIAN_POINT('',(0.00590992532670498,0.083,0.0213294606655836));
#1312=CARTESIAN_POINT('',(-0.00482454895973206,0.083,0.0213294606655836));
#1313=CARTESIAN_POINT('',(-0.00482454895973206,0.06,0.0213294606655836));
#1314=CARTESIAN_POINT('',(-0.00482454895973206,0.058,0.0213294606655836));
#1315=CARTESIAN_POINT('',(-0.00312355768282709,0.06,0.0188492525281372));
#1316=CARTESIAN_POINT('',(-0.00312355768282709,0.058,0.0188492525281372));
#1317=CARTESIAN_POINT('',(0.000477248043814052,0.06,0.013598933031597));
#1318=CARTESIAN_POINT('',(0.000477248043814052,0.058,0.013598933031597));
#1319=CARTESIAN_POINT('',(-0.00230832266149895,0.06,0.00671948027146037));
#1320=CARTESIAN_POINT('',(-0.00230832266149895,0.058,0.00671948027146037));
#1321=CARTESIAN_POINT('',(-0.0037780124694109,0.06,0.00308982492424547));
#1322=CARTESIAN_POINT('',(-0.0037780124694109,0.058,0.00308982492424547));
#1323=CARTESIAN_POINT('',(-0.0037780124694109,0.083,0.00308982492424547));
#1324=CARTESIAN_POINT('',(0.000124073587357998,0.083,0.00308982492424547));
#1325=CARTESIAN_POINT('',(0.00402615964412689,0.083,0.00308982492424547));
#1326=CARTESIAN_POINT('',(0.00402615964412689,0.06,0.00308982492424547));
#1327=CARTESIAN_POINT('',(0.00402615964412689,0.058,0.00308982492424547));
#1328=CARTESIAN_POINT('',(0.00267174124252779,0.06,0.00673048433804446));
#1329=CARTESIAN_POINT('',(0.00267174124252779,0.058,0.00673048433804446));
#1330=CARTESIAN_POINT('',(8.49566474214765E-5,0.06,0.0136837283847328));
#1331=CARTESIAN_POINT('',(8.49566474214765E-5,0.058,0.0136837283847328));
#1332=CARTESIAN_POINT('',(0.0040303204417684,0.06,0.018862330534032));
#1333=CARTESIAN_POINT('',(0.0040303204417684,0.058,0.018862330534032));
#1334=CARTESIAN_POINT('',(0.00590992532670498,0.06,0.0213294606655836));
#1335=CARTESIAN_POINT('',(0.00590992532670498,0.058,0.0213294606655836));
#1336=CARTESIAN_POINT('',(-0.0146063943393528,0.083,0.000859959865920246));
#1337=CARTESIAN_POINT('',(-0.0125555014237761,0.083,0.00171991973184049));
#1338=CARTESIAN_POINT('',(-0.0166572872549295,0.083,2.16840434497101E-19));
#1339=CARTESIAN_POINT('',(-0.0146063943393528,0.083,-0.000799783621914685));
#1340=CARTESIAN_POINT('',(-0.0125555014237761,0.083,-0.00159956724382937));
#1341=CARTESIAN_POINT('',(-0.0105871404521167,0.083,-0.000799783621914685));
#1342=CARTESIAN_POINT('',(-0.0086187794804573,0.083,-2.16840434497101E-19));
#1343=CARTESIAN_POINT('',(-0.0105871404521167,0.083,0.000859959865920246));
#1344=MECHANICAL_DESIGN_GEOMETRIC_PRESENTATION_REPRESENTATION('',(#793),
#1345);
#1345=(
GEOMETRIC_REPRESENTATION_CONTEXT(3)
GLOBAL_UNCERTAINTY_ASSIGNED_CONTEXT((#1346))
GLOBAL_UNIT_ASSIGNED_CONTEXT((#1349,#1348,#1347))
REPRESENTATION_CONTEXT('Part 1','TOP_LEVEL_ASSEMBLY_PART')
);
#1346=UNCERTAINTY_MEASURE_WITH_UNIT(LENGTH_MEASURE(2.E-5),#1349,
'DISTANCE_ACCURACY_VALUE','Maximum Tolerance applied to model');
#1347=(
NAMED_UNIT(*)
SI_UNIT($,.STERADIAN.)
SOLID_ANGLE_UNIT()
);
#1348=(
NAMED_UNIT(*)
PLANE_ANGLE_UNIT()
SI_UNIT($,.RADIAN.)
);
#1349=(
LENGTH_UNIT()
NAMED_UNIT(*)
SI_UNIT($,.METRE.)
);
#1350=PRODUCT_DEFINITION_SHAPE('','',#1351);
#1351=PRODUCT_DEFINITION('','',#1353,#1352);
#1352=PRODUCT_DEFINITION_CONTEXT('',#1359,'design');
#1353=PRODUCT_DEFINITION_FORMATION_WITH_SPECIFIED_SOURCE('','',#1355,
 .NOT_KNOWN.);
#1354=PRODUCT_RELATED_PRODUCT_CATEGORY('','',(#1355));
#1355=PRODUCT('Part 1','Part 1','Part 1',(#1357));
#1356=PRODUCT_CATEGORY('','');
#1357=PRODUCT_CONTEXT('',#1359,'mechanical');
#1358=APPLICATION_PROTOCOL_DEFINITION('international standard',
'ap242_managed_model_based_3d_engineering',2020,#1359);
#1359=APPLICATION_CONTEXT('managed model based 3d engineering');
ENDSEC;
END-ISO-10303-21;
